<svg xmlns="http://www.w3.org/2000/svg" width="663.113" height="742.86" viewBox="0 0 663.113 742.86">
  <g id="Forgot_password-cuate" data-name="Forgot password-cuate" transform="translate(-46.98)">
    <g id="freepik--background-complete--inject-5" transform="translate(50.214)">
      <rect id="Retângulo_414" data-name="Retângulo 414" width="43.246" height="18.275" transform="translate(24.122 560.06)" fill="#ebebeb"/>
      <rect id="Retângulo_415" data-name="Retângulo 415" width="43.246" height="18.275" transform="translate(0 583.104)" fill="#ebebeb"/>
      <rect id="Retângulo_416" data-name="Retângulo 416" width="43.246" height="18.275" transform="translate(48.244 583.104)" fill="#ebebeb"/>
      <rect id="Retângulo_417" data-name="Retângulo 417" width="43.246" height="18.275" transform="translate(589.294 71.598)" fill="#ebebeb"/>
      <rect id="Retângulo_418" data-name="Retângulo 418" width="43.246" height="18.275" transform="translate(613.416 94.642)" fill="#ebebeb"/>
      <rect id="Retângulo_419" data-name="Retângulo 419" width="43.246" height="18.275" transform="translate(0 71.63)" fill="#ebebeb"/>
      <rect id="Retângulo_420" data-name="Retângulo 420" width="43.246" height="18.275" transform="translate(656.678 578.188) rotate(180)" fill="#ebebeb"/>
      <rect id="Retângulo_421" data-name="Retângulo 421" width="43.246" height="18.275" transform="translate(553.413 367.625) rotate(180)" fill="#ebebeb"/>
      <rect id="Retângulo_422" data-name="Retângulo 422" width="43.246" height="18.275" transform="translate(577.535 344.581) rotate(180)" fill="#ebebeb"/>
      <rect id="Retângulo_423" data-name="Retângulo 423" width="1.633" height="174.765" transform="translate(70.585)" fill="#c7c7c7"/>
      <path id="Caminho_573" data-name="Caminho 573" d="M176.9,155.582l-4.883,10.73H60.387l-4.867-10.73,47.525-32.892h26.327Z" transform="translate(-44.806 77.683)" fill="#ebebeb"/>
      <path id="Caminho_574" data-name="Caminho 574" d="M115.525,103.29l-3.3,31.683H85.9L82.6,103.29Z" transform="translate(-27.66 65.399)" fill="#dbdbdb"/>
      <path id="Caminho_575" data-name="Caminho 575" d="M176.88,142.84,172,153.57H60.37l-4.85-10.73Z" transform="translate(-44.806 90.441)" fill="#dbdbdb"/>
      <rect id="Retângulo_424" data-name="Retângulo 424" width="1.633" height="140.158" transform="translate(186.736)" fill="#c7c7c7"/>
      <path id="Caminho_576" data-name="Caminho 576" d="M248.017,134.392l-4.883,10.73H131.507l-4.867-10.73L174.165,101.5h26.327Z" transform="translate(0.224 64.266)" fill="#ebebeb"/>
      <path id="Caminho_577" data-name="Caminho 577" d="M186.645,82.09l-3.3,31.7H157.019l-3.3-31.7Z" transform="translate(17.37 51.976)" fill="#dbdbdb"/>
      <path id="Caminho_578" data-name="Caminho 578" d="M248.017,121.64l-4.883,10.73H131.507l-4.867-10.73Z" transform="translate(0.224 77.018)" fill="#dbdbdb"/>
    </g>
    <g id="freepik--Shadow--inject-5" transform="translate(54.672 665.187)">
      <path id="Caminho_579" data-name="Caminho 579" d="M699.435,446.137c0,21.46-144.992,38.837-323.872,38.837S51.69,467.6,51.69,446.137,196.682,407.3,375.562,407.3,699.435,424.677,699.435,446.137Z" transform="translate(-51.69 -407.3)" fill="#ebebeb"/>
    </g>
    <g id="freepik--Plant--inject-5" transform="translate(563.17 449.863)">
      <path id="Caminho_580" data-name="Caminho 580" d="M429.348,311.834a64.181,64.181,0,0,1-1.257,24.759,67.718,67.718,0,0,1-3.789,10.942c-1.976,4.54-4.034,8.95-3.528,13.915.474.31-1.16.261-1.225-.212-13.245-7.545-30.23-8.933-40.421-21.231a42.461,42.461,0,0,1-8.411-20.643c-1.257-8.068-1.633-16.985.474-24.922,1.747-6.663,5.683-13.2,12.069-16.462s15.058-3.1,21.917-.98C419.892,281.555,427.257,297.576,429.348,311.834Z" transform="translate(-358.841 -275.455)" fill="#fff"/>
      <path id="Caminho_581" data-name="Caminho 581" d="M431.815,404.233q-2.695-9.031-5.471-18.046c-3.626-11.775-7.4-23.5-11.6-35.1q-3.756-10.4-7.921-20.627a126.269,126.269,0,0,1,1.633-12.8c1.111-5.128,2.711-10.093,4.214-15.107.1-.31-.408-.474-.539-.18-2.972,6.925-6.859,15.776-6.941,23.975q-4.9-11.563-10.42-22.783a97.177,97.177,0,0,1,.49-18.977.229.229,0,0,0-.441-.082,67.419,67.419,0,0,0-1.306,16.74q-4.263-8.427-9.031-16.642c-.294-.49-.964,0-.719.506,4.981,9.587,9.587,19.369,13.931,29.283a63.561,63.561,0,0,0-20.774-12.02c-.327-.131-.572.359-.245.49a75.565,75.565,0,0,1,22.472,14.878q4.654,10.877,8.9,21.95c-8.3-8.166-19.6-13.474-30.605-16.332-.376-.1-.474.474-.114.572,12.706,3.822,22.554,11.024,32.222,19.6,1.111,2.989,2.221,5.977,3.266,8.966q6.124,17.018,11.677,34.3,2.678,8.166,5.259,16.528c1.845,5.945,3.266,12.216,5.716,17.965.229.539,1.208.425,1.078-.245a169.838,169.838,0,0,0-4.736-16.805Z" transform="translate(-354.514 -269.816)" fill="#263238"/>
      <path id="Caminho_582" data-name="Caminho 582" d="M398.779,290.694a33.169,33.169,0,0,0-4.769,11.889c0,.114.147.18.2,0a101.61,101.61,0,0,1,5.161-11.661C399.579,290.6,399.008,290.351,398.779,290.694Z" transform="translate(-343.444 -265.912)" fill="#263238"/>
      <path id="Caminho_583" data-name="Caminho 583" d="M387.106,309.081a34.754,34.754,0,0,0-11.873-4c-.114,0-.18.147,0,.2,1.911.784,3.92,1.339,5.847,2.09s3.838,1.633,5.8,2.335a.343.343,0,0,0,.229-.621Z" transform="translate(-355.403 -256.698)" fill="#263238"/>
      <path id="Caminho_584" data-name="Caminho 584" d="M379.982,288.133a23.2,23.2,0,0,0-3.822-2.368.212.212,0,0,0-.229.343,23.989,23.989,0,0,0,3.773,2.434C379.949,288.688,380.227,288.28,379.982,288.133Z" transform="translate(-354.925 -268.936)" fill="#263238"/>
      <path id="Caminho_585" data-name="Caminho 585" d="M449.475,353.312c-9.538,2.825-19.124,5.438-28.662,8.247-.833.245-16.952-30.654-11.122-46.578a51.869,51.869,0,0,1,32.418-30.72c6.81-2.319,15.172-4.263,22.374-2.678,6.4,1.421,10.91,6.647,13.065,12.673,2.825,8.166,1.878,17.965.343,26.278a45.877,45.877,0,0,1-9.391,21.443C463.374,347.955,456.906,351.107,449.475,353.312Z" transform="translate(-334.318 -271.94)" fill="#fff"/>
      <path id="Caminho_586" data-name="Caminho 586" d="M463.857,316.59a125.451,125.451,0,0,1-18.716,7.366,78.781,78.781,0,0,0-12.477,4.524c4.034-8.982,8.444-17.769,13.147-26.49,6.157-1.78,12.641-4.557,17.279-8.917a.267.267,0,0,0-.343-.408c-5.079,3.593-10.7,5.749-16.332,8.166,1.274-2.352,2.548-4.687,3.854-7.023.359-.653-.523-1.29-.964-.67A201.142,201.142,0,0,0,435.75,315.9a103.454,103.454,0,0,1-.98-20.855c0-.18-.245-.2-.278,0a69.621,69.621,0,0,0,.229,22.864c-3.266,6.68-6.386,13.523-9.129,20.447-1.078-4.165-2.5-8.264-3.446-12.461a57.405,57.405,0,0,1-1.372-18.357c0-.18-.245-.2-.278,0a64.821,64.821,0,0,0,4.165,33.741c-1.633,4.165-3.119,8.345-4.508,12.543A249.875,249.875,0,0,0,407.48,420a.408.408,0,1,0,.817,0,328,328,0,0,1,14.209-65.326c2.76-8.313,5.945-16.332,9.44-24.318,5.634-1.633,11.253-3.92,16.789-5.83a52.867,52.867,0,0,0,15.466-7.594.242.242,0,0,0-.343-.343Z" transform="translate(-334.915 -264.599)" fill="#263238"/>
      <path id="Caminho_587" data-name="Caminho 587" d="M454.187,301.806c-5.83,2.074-11.432,4.981-17.181,7.088-.278.1-.114.523.147.474,6.173-1.274,12.281-3.185,17.263-7.235C454.6,301.986,454.4,301.724,454.187,301.806Z" transform="translate(-316.312 -258.781)" fill="#263238"/>
      <path id="Caminho_588" data-name="Caminho 588" d="M419.22,294.221c.082-.31-.376-.49-.474-.163-1.633,5.373-2.695,11.089-1.143,16.577,0,.212.408.229.408,0C418.289,305.065,417.979,299.675,419.22,294.221Z" transform="translate(-328.984 -263.787)" fill="#263238"/>
      <path id="Caminho_589" data-name="Caminho 589" d="M434.054,286.553a14.339,14.339,0,0,0-2.531,9.146c0,.2.343.31.392.082.719-3.087,1.911-5.879,2.858-8.868a.408.408,0,0,0-.719-.359Z" transform="translate(-319.713 -268.532)" fill="#263238"/>
      <path id="Caminho_590" data-name="Caminho 590" d="M364.75,341.05c2.793,8.884,9.44,21.149,19.957,21.231,6.827,0,13.686-.751,20.529-.849,7.317-.114,14.7-.1,21.966.343.6,0-.882-21.933-18.471-32.663-4.9-3-10.958-3.952-16.56-5.161a76.593,76.593,0,0,0-19.6-2.041c-4.05.163-7.415,1.013-8.852,5.161S363.394,336.771,364.75,341.05Z" transform="translate(-363.048 -246.058)" fill="#fff"/>
      <path id="Caminho_591" data-name="Caminho 591" d="M368.933,328.446c4.279,1.094,8.59,2.368,12.886,3.724a47.368,47.368,0,0,0-3.544-3.462c-1.845-1.519-3.871-2.744-5.847-4.1-.163-.1,0-.425.147-.343a24.057,24.057,0,0,1,10.371,8.264c5.357,1.715,10.648,3.626,15.744,5.716a60.423,60.423,0,0,1,10.093,5.308,40.688,40.688,0,0,0-3.658-6.337c-2.335-3.038-5.487-4.72-8.541-6.859a.278.278,0,0,1,.278-.474,25.053,25.053,0,0,1,13.719,14.878,59.146,59.146,0,0,1,9.978,9.064c11.645,13.229,20.823,30.834,20.855,48.783,0,.425-.686.555-.768.1a99.622,99.622,0,0,0-22.211-47.688,37.613,37.613,0,0,0-2.564-2.793,78.672,78.672,0,0,0-9.619-.719c-3.74,0-7.464.555-11.187.849-6.141.506-12.935.572-18.487-2.515-.245-.131,0-.555.2-.457,12.363,4.491,25.314-1.209,37.693,1.47a57.815,57.815,0,0,0-18.259-11.775l-1.143-.457c-7.921.947-16.332,3.021-24.008.441a.186.186,0,0,1,.1-.359c7.464,1.862,14.617-.49,21.982-.866-8.019-3.119-16.2-5.6-24.236-8.7C368.214,328.871,368.2,328.25,368.933,328.446Z" transform="translate(-359.669 -244.559)" fill="#263238"/>
      <path id="Caminho_592" data-name="Caminho 592" d="M366.655,331.6a109.212,109.212,0,0,0,11.546.882.074.074,0,1,1,0,.147,23.876,23.876,0,0,1-11.645-.735C366.377,331.846,366.475,331.568,366.655,331.6Z" transform="translate(-360.886 -239.908)" fill="#263238"/>
      <path id="Caminho_593" data-name="Caminho 593" d="M382.7,326.944a18.831,18.831,0,0,1,5.716,3.969.239.239,0,0,1-.294.376c-.964-.7-1.96-1.372-2.972-2.009a32.022,32.022,0,0,1-2.776-1.764.343.343,0,0,1,.327-.572Z" transform="translate(-350.87 -242.861)" fill="#263238"/>
      <path id="Caminho_594" data-name="Caminho 594" d="M420.6,355.381c-.131.278.294.555.457.245h0a.425.425,0,0,0,.278.18,178.206,178.206,0,0,0,21.492,3.756c5.814.523,12.526.833,17.622-2.531,6.908-4.589,11.432-16.822,7.709-24.6-4.41-9.227-17.72-4.214-24.4-.931A49,49,0,0,0,420.6,355.381Z" transform="translate(-326.624 -242.718)" fill="#fff"/>
      <path id="Caminho_595" data-name="Caminho 595" d="M425.779,357.567a68.181,68.181,0,0,1,12.837-9.8,44.1,44.1,0,0,1,13.065-13.278c.261-.18.474.229.245.408a59.135,59.135,0,0,0-10.975,11.53,120.324,120.324,0,0,1,16.1-7.317,21.477,21.477,0,0,1,8.656-8.672s.163,0,.1.114a35.455,35.455,0,0,0-7.823,8.166c3.266-1.208,6.533-2.352,9.881-3.446.294-.1.408.359.131.457-5.879,2.3-11.889,4.72-17.72,7.513a68.057,68.057,0,0,0,21.46,0c.2,0,.278.245,0,.294a42.266,42.266,0,0,1-22.766.343,106.9,106.9,0,0,0-10.8,6.043,26.833,26.833,0,0,1,8.721.719,66.516,66.516,0,0,0,15.335,1.731.18.18,0,0,1,0,.359c-8.9,1.519-17.312-2.515-26.131-1.47a67.464,67.464,0,0,0-9.178,7.513,68.594,68.594,0,0,0-13.392,18.9c-3.724,7.561-5.732,15.564-8.737,23.37a.279.279,0,1,1-.539-.147C406.9,385.51,414.559,368.542,425.779,357.567Z" transform="translate(-336.964 -240.641)" fill="#263238"/>
      <path id="Caminho_596" data-name="Caminho 596" d="M433.871,335.95a10.323,10.323,0,0,1,2.286-2.76,8.592,8.592,0,0,1,2.629-1.96c.082,0,.131,0,.082.147-.735.817-1.747,1.437-2.531,2.221s-1.454,1.731-2.254,2.515a.134.134,0,0,1-.212-.163Z" transform="translate(-318.223 -240.141)" fill="#263238"/>
      <path id="Caminho_597" data-name="Caminho 597" d="M442.912,337.736c1.323-.327,2.711-.31,4.05-.588a36.373,36.373,0,0,0,3.936-1.176.163.163,0,0,1,.131.294,13.066,13.066,0,0,1-8.166,1.878C442.7,338.111,442.716,337.785,442.912,337.736Z" transform="translate(-312.582 -237.142)" fill="#263238"/>
      <path id="Caminho_598" data-name="Caminho 598" d="M394.98,361.97l1.16,13.261,3.969,44.781h35.08l4.948-44.781,1.453-13.261Z" transform="translate(-342.829 -220.678)" fill="#455a64"/>
      <path id="Caminho_599" data-name="Caminho 599" d="M394.98,361.97l1.16,13.261h44l1.453-13.261Z" transform="translate(-342.829 -220.678)" fill="#263238"/>
      <rect id="Retângulo_425" data-name="Retângulo 425" width="53.568" height="10.763" transform="translate(102.256 148.429) rotate(180)" fill="#455a64"/>
    </g>
    <g id="freepik--Floor--inject-5" transform="translate(46.98 648.284)">
      <path id="Caminho_600" data-name="Caminho 600" d="M46.98,397.75l82.9-.392,82.883-.147,165.782-.261,165.782.261,82.883.147,82.883.392-82.883.408-82.883.147-165.782.261-165.782-.261-82.883-.147Z" transform="translate(-46.98 -396.95)" fill="#263238"/>
    </g>
    <g id="freepik--Screen--inject-5" transform="translate(301.532 89.007)">
      <path id="Caminho_601" data-name="Caminho 601" d="M500.4,86.691V615.933c0,14.96-11.2,27.062-25.02,27.062h-247c-13.849,0-25.053-12.1-25.053-27.062V86.691c0-30.475,11.2-31.961,25.053-31.961h49.534c2.874,0,5.226,3.266,5.226,7.317v1.747c0,9.489,5.193,9.521,11.563,9.521H409.125c6.435,0,11.6,0,11.6-9.521V62.047c0-4.05,2.319-7.317,5.242-7.317h49.468C489.2,54.73,500.4,58.78,500.4,86.691Z" transform="translate(-202.537 -54.354)" fill="#fff"/>
      <path id="Caminho_602" data-name="Caminho 602" d="M500.4,86.691V615.933c0,14.96-11.2,27.062-25.02,27.062h-247c-13.849,0-25.053-12.1-25.053-27.062V86.691c0-30.475,11.2-31.961,25.053-31.961h49.534c2.874,0,5.226,3.266,5.226,7.317v1.747c0,9.489,5.193,9.521,11.563,9.521H409.125c6.435,0,11.6,0,11.6-9.521V62.047c0-4.05,2.319-7.317,5.242-7.317h49.468C489.2,54.73,500.4,58.78,500.4,86.691Z" transform="translate(-202.537 -54.354)" fill="#fff"/>
      <path id="Caminho_603" data-name="Caminho 603" d="M500.71,86.837l.408,438.667v89.122a38.022,38.022,0,0,1-.506,6.925,28.742,28.742,0,0,1-5.7,12.575,28.2,28.2,0,0,1-5.014,4.9,26.838,26.838,0,0,1-6.157,3.266,23.405,23.405,0,0,1-6.843,1.388c-2.335.147-4.589,0-6.876.082H387.842l-109.65.114H230.209a29.859,29.859,0,0,1-6.99-.621,24.824,24.824,0,0,1-12.134-6.859,28.286,28.286,0,0,1-7.072-12.02,30.311,30.311,0,0,1-1.111-6.941c-.131-2.352,0-4.589,0-6.892v-13.7l.408-438.667V89.613a113.416,113.416,0,0,1,.621-13.719l.523-3.413.784-3.364c.327-1.094.735-2.188,1.111-3.266a32.2,32.2,0,0,1,1.633-3.087,16.332,16.332,0,0,1,4.753-5.046,19.092,19.092,0,0,1,6.533-2.5A77.5,77.5,0,0,1,233,54.566h44.406a5.961,5.961,0,0,1,1.764.131,4.655,4.655,0,0,1,1.633.784,8.28,8.28,0,0,1,2.825,6.369,22.438,22.438,0,0,0,.6,6.729,6.042,6.042,0,0,0,1.633,2.793,6.532,6.532,0,0,0,2.907,1.486,30.149,30.149,0,0,0,6.778.441h116.51a9.995,9.995,0,0,0,6.369-1.845,6.255,6.255,0,0,0,1.878-2.809,12.841,12.841,0,0,0,.572-3.266c0-1.127,0-2.27,0-3.413a9.619,9.619,0,0,1,.7-3.381,6.7,6.7,0,0,1,2.025-2.776,4.6,4.6,0,0,1,1.535-.8,6.205,6.205,0,0,1,1.731-.131h47.982a50.45,50.45,0,0,1,6.843.376A19.124,19.124,0,0,1,493.8,60.9a25.445,25.445,0,0,1,5.716,12.379,74.8,74.8,0,0,1,1.192,13.555Zm0,0A74.831,74.831,0,0,0,499.485,73.2,25.477,25.477,0,0,0,493.8,60.935a19.124,19.124,0,0,0-12.118-5.618,50.167,50.167,0,0,0-6.827-.343H426.842a6.4,6.4,0,0,0-1.633.147,4.769,4.769,0,0,0-1.486.768,6.533,6.533,0,0,0-1.96,2.695c-.947,2.107-.588,4.442-.735,6.729a13.473,13.473,0,0,1-.588,3.4,6.533,6.533,0,0,1-1.764,2.94,10.126,10.126,0,0,1-6.533,1.911H295.6a31.357,31.357,0,0,1-6.876-.457,7.072,7.072,0,0,1-3.136-1.633,6.533,6.533,0,0,1-1.813-2.989,23.845,23.845,0,0,1-.653-6.631,7.79,7.79,0,0,0-2.646-5.863,4.785,4.785,0,0,0-1.453-.7,6.647,6.647,0,0,0-1.633-.114H232.855a78.75,78.75,0,0,0-13.621.67A18.864,18.864,0,0,0,213,58.257a15.777,15.777,0,0,0-4.557,4.9c-.588.947-1.013,2.009-1.519,3.005a17.379,17.379,0,0,0-1.062,3.266l-.784,3.266-.49,3.364a108.61,108.61,0,0,0-.6,13.637v68.544l.408,438.667v20.512a28.97,28.97,0,0,0,1.045,6.533,26.636,26.636,0,0,0,6.647,11.432,23.4,23.4,0,0,0,11.432,6.533,28.65,28.65,0,0,0,6.631.6h48.08l109.651.114h89.073a22.456,22.456,0,0,0,6.533-1.323,24.676,24.676,0,0,0,5.912-3.119,27.1,27.1,0,0,0,4.818-4.654,27.764,27.764,0,0,0,5.536-12.118,38.61,38.61,0,0,0,.49-6.745V525.586Z" transform="translate(-202.844 -54.5)" fill="#263238"/>
      <path id="Caminho_604" data-name="Caminho 604" d="M500.4,86.691v63.448H203.33V86.691c0-30.475,11.2-31.961,25.053-31.961h49.534c2.874,0,5.226,3.266,5.226,7.317v1.747c0,9.489,5.193,9.521,11.563,9.521H409.125c6.435,0,11.6,0,11.6-9.521V62.047c0-4.05,2.319-7.317,5.242-7.317h49.468C489.2,54.73,500.4,58.78,500.4,86.691Z" transform="translate(-202.537 -54.354)" fill="#fff"/>
      <g id="freepik--u5Zjqx--inject-5" transform="translate(56.092 10.077)">
        <path id="Caminho_605" data-name="Caminho 605" d="M247.887,62.842l-.49.474-.261.278a6.533,6.533,0,0,0-9.227,0l-.245-.278-.474-.474h0c.2-.18.392-.359.6-.523a7.414,7.414,0,0,1,3.266-1.519,2.3,2.3,0,0,0,.931-.131h1.437a7.578,7.578,0,0,1,1.633.408,7.3,7.3,0,0,1,1.143.539,8.916,8.916,0,0,1,1.111.768l.506.457Z" transform="translate(-237.19 -60.67)" fill="#fff"/>
        <path id="Caminho_606" data-name="Caminho 606" d="M238.851,64.3l-.751-.751a5.422,5.422,0,0,1,7.692,0l-.751.751a4.377,4.377,0,0,0-6.19,0Z" transform="translate(-236.614 -59.859)" fill="#fff"/>
        <path id="Caminho_607" data-name="Caminho 607" d="M243.739,64.251l-.751.751a2.368,2.368,0,0,0-3.266,0l-.751-.751a3.266,3.266,0,0,1,4.769,0Z" transform="translate(-236.063 -59.057)" fill="#fff"/>
        <path id="Caminho_608" data-name="Caminho 608" d="M241.436,65a.67.67,0,0,1-.67.67.686.686,0,1,1,0-1.356.67.67,0,0,1,.67.686Z" transform="translate(-235.426 -58.368)" fill="#fff"/>
      </g>
      <path id="Caminho_609" data-name="Caminho 609" d="M215.19,63.656a1.976,1.976,0,1,1,1.976,1.976A1.976,1.976,0,0,1,215.19,63.656Z" transform="translate(-195.028 -49.953)" fill="#fff"/>
      <path id="Caminho_610" data-name="Caminho 610" d="M219,63.656a1.96,1.96,0,1,1,.568,1.4,1.976,1.976,0,0,1-.568-1.4Z" transform="translate(-192.615 -49.953)" fill="#fff"/>
      <path id="Caminho_611" data-name="Caminho 611" d="M222.79,63.656a1.96,1.96,0,1,1,.574,1.4,1.976,1.976,0,0,1-.574-1.4Z" transform="translate(-190.216 -49.953)" fill="#fff"/>
      <path id="Caminho_612" data-name="Caminho 612" d="M226.58,63.656a1.976,1.976,0,1,1,1.976,1.976A1.976,1.976,0,0,1,226.58,63.656Z" transform="translate(-187.816 -49.953)" fill="#fff"/>
      <path id="Caminho_613" data-name="Caminho 613" d="M230.38,63.656a1.976,1.976,0,1,1,1.976,1.976A1.976,1.976,0,0,1,230.38,63.656Z" transform="translate(-185.41 -49.953)" fill="#fff"/>
      <path id="Caminho_614" data-name="Caminho 614" d="M377.808,68.382H361.77V61h16.038Zm-15.221-.817h14.4V61.784h-14.4Z" transform="translate(-102.219 -50.384)" fill="#fff"/>
      <rect id="Retângulo_426" data-name="Retângulo 426" width="10.338" height="4.899" transform="translate(260.89 11.841)" fill="#fff"/>
      <rect id="Retângulo_427" data-name="Retângulo 427" width="1.421" height="3.969" transform="translate(275.589 12.315)" fill="#fff"/>
      <path id="Caminho_615" data-name="Caminho 615" d="M223.31,108.84l-8.77-8.215,8.77-8.215,1.356,1.437-7.219,6.778,7.219,6.778Z" transform="translate(-195.439 -30.496)" fill="#fff"/>
      <path id="Caminho_616" data-name="Caminho 616" d="M271.919,100.688h-1.894v3.348a.866.866,0,0,1-1.715,0v-9.1a.849.849,0,0,1,.849-.849h2.76a3.266,3.266,0,1,1,0,6.533Zm-1.894-1.633h1.894a1.633,1.633,0,1,0,0-3.168h-1.894Z" transform="translate(-161.394 -29.432)" fill="#fff"/>
      <path id="Caminho_617" data-name="Caminho 617" d="M278.9,102.316h-3.74l-.751,2.009a.9.9,0,0,1-.8.539.785.785,0,0,1-.294,0,.866.866,0,0,1-.506-1.111l3.4-9.08a.882.882,0,0,1,1.633,0l3.479,9.048a.866.866,0,0,1-.506,1.111.784.784,0,0,1-.294,0,.865.865,0,0,1-.784-.539Zm-.637-1.633-1.241-3.266-1.258,3.266Z" transform="translate(-158.579 -29.411)" fill="#fff"/>
      <path id="Caminho_618" data-name="Caminho 618" d="M278.945,102.3a.817.817,0,0,1,1.127-.1,4.9,4.9,0,0,0,2.94,1.176,3.446,3.446,0,0,0,1.927-.555,1.4,1.4,0,0,0,.653-1.111,1.013,1.013,0,0,0-.131-.506,1.634,1.634,0,0,0-.474-.457,5.913,5.913,0,0,0-2.107-.719h0a8.753,8.753,0,0,1-1.976-.6,3.266,3.266,0,0,1-1.437-1.192,2.417,2.417,0,0,1-.359-1.274,2.825,2.825,0,0,1,1.241-2.237,4.557,4.557,0,0,1,2.662-.817,6.043,6.043,0,0,1,3.266,1.225.8.8,0,0,1,.229,1.094.784.784,0,0,1-1.094.229,4.491,4.491,0,0,0-2.483-.98A2.939,2.939,0,0,0,281.2,96a1.241,1.241,0,0,0-.588.964.735.735,0,0,0,.114.441,1.437,1.437,0,0,0,.425.392,5.308,5.308,0,0,0,1.911.686h0a8.525,8.525,0,0,1,2.123.637,3.658,3.658,0,0,1,1.551,1.29,2.45,2.45,0,0,1,.359,1.307,2.989,2.989,0,0,1-1.323,2.384,4.785,4.785,0,0,1-2.842.882,6.631,6.631,0,0,1-3.952-1.633.833.833,0,0,1-.033-1.045Z" transform="translate(-154.767 -29.546)" fill="#fff"/>
      <path id="Caminho_619" data-name="Caminho 619" d="M285.134,102.3a.8.8,0,0,1,1.111-.1,5.063,5.063,0,0,0,2.956,1.176,3.348,3.348,0,0,0,1.911-.555,1.388,1.388,0,0,0,.67-1.111.882.882,0,0,0-.147-.506,1.5,1.5,0,0,0-.457-.457,5.912,5.912,0,0,0-2.107-.719h0a8.494,8.494,0,0,1-1.976-.6,3.266,3.266,0,0,1-1.437-1.192,2.418,2.418,0,0,1-.359-1.274,2.826,2.826,0,0,1,1.241-2.237,4.524,4.524,0,0,1,2.662-.817,6.043,6.043,0,0,1,3.348,1.225.8.8,0,0,1-.882,1.323,4.442,4.442,0,0,0-2.466-.98,2.94,2.94,0,0,0-1.731.523,1.241,1.241,0,0,0-.588.964.735.735,0,0,0,.114.441,1.633,1.633,0,0,0,.408.392,5.521,5.521,0,0,0,1.927.686h0a8.753,8.753,0,0,1,2.123.637,3.511,3.511,0,0,1,1.535,1.29,2.319,2.319,0,0,1,.376,1.307,2.989,2.989,0,0,1-1.323,2.384,4.786,4.786,0,0,1-2.842.882,6.631,6.631,0,0,1-3.952-1.633.817.817,0,0,1-.114-1.045Z" transform="translate(-150.83 -29.547)" fill="#fff"/>
      <path id="Caminho_620" data-name="Caminho 620" d="M305.723,95.348l-3.773,8.966a.406.406,0,0,1,0,.147h0l-.082.1h-.114a.278.278,0,0,1-.131.1h-.6a.392.392,0,0,1-.131-.1h-.114v-.1h0a.409.409,0,0,1,0-.147l-2.009-4.769-2.025,4.769v.147l-.082.1h-.1l-.114.1h-.621a.391.391,0,0,1-.131-.1h-.114l-.082-.1h0a1.036,1.036,0,0,0,0-.147l-4.475-8.966a.879.879,0,0,1,1.633-.653l3.021,7.137,1.992-4.736a.833.833,0,0,1,.8-.523.9.9,0,0,1,.719.6l1.976,4.736,3-7.137a.849.849,0,0,1,1.127-.441A.817.817,0,0,1,305.723,95.348Z" transform="translate(-147.052 -29.4)" fill="#fff"/>
      <path id="Caminho_621" data-name="Caminho 621" d="M310.092,95.543a5.683,5.683,0,0,1,0,7.807,5.079,5.079,0,0,1-3.674,1.633,5.193,5.193,0,0,1-3.773-1.633,5.732,5.732,0,0,1,0-7.807,5.112,5.112,0,0,1,3.773-1.633,5,5,0,0,1,3.675,1.633Zm-.2,3.9a4.067,4.067,0,0,0-1.045-2.695,3.266,3.266,0,0,0-4.9,0,3.9,3.9,0,0,0-1.045,2.695,3.805,3.805,0,0,0,1.045,2.678,3.266,3.266,0,0,0,4.9,0A3.953,3.953,0,0,0,309.9,99.446Z" transform="translate(-140.626 -29.546)" fill="#fff"/>
      <path id="Caminho_622" data-name="Caminho 622" d="M316.633,103.6a.849.849,0,0,1-.539,1.078,1.29,1.29,0,0,1-.343,0h0a1.241,1.241,0,0,1-.6-.163,1.732,1.732,0,0,1-.49-.539,4.28,4.28,0,0,1-.31-1.845,1.258,1.258,0,0,0-.2-.67,1.323,1.323,0,0,0-.457-.441,2.662,2.662,0,0,0-.866-.376h-1.813v3.348a.866.866,0,0,1-.866.849.849.849,0,0,1-.849-.849V94.94a.849.849,0,0,1,.849-.849h2.76A3.266,3.266,0,0,1,315,99.937a2.254,2.254,0,0,1,.539.572,2.875,2.875,0,0,1,.506,1.633,3.557,3.557,0,0,0,0,.9.849.849,0,0,1,.588.555Zm-2.156-6.19a1.633,1.633,0,0,0-1.633-1.633h-1.894v3.168h1.894A1.633,1.633,0,0,0,314.477,97.406Z" transform="translate(-135.441 -29.433)" fill="#fff"/>
      <path id="Caminho_623" data-name="Caminho 623" d="M315.32,104.036v-9.1a.849.849,0,0,1,.849-.849h1.894a5.406,5.406,0,0,1,0,10.8h-1.813a.849.849,0,0,1-.931-.849Zm1.715-.866h1.029a3.691,3.691,0,0,0,0-7.366h-.947Z" transform="translate(-131.629 -29.432)" fill="#fff"/>
      <path id="Caminho_624" data-name="Caminho 624" d="M228.71,273.862v-6.745a.621.621,0,0,1,.637-.637h3.74a.637.637,0,0,1,.621.637.653.653,0,0,1-.621.637h-3.1v2.09h2.662a.637.637,0,0,1,0,1.274h-2.662v2.107h3.1a.637.637,0,0,1,0,1.258h-3.74a.621.621,0,0,1-.637-.621Z" transform="translate(-186.467 79.718)" fill="#263238"/>
      <path id="Caminho_625" data-name="Caminho 625" d="M237.556,270.288v2.744a.6.6,0,0,1-.621.6.621.621,0,0,1-.6-.6v-2.744a1.192,1.192,0,0,0-1.192-1.143A1.16,1.16,0,0,0,234,270.321v2.711a.721.721,0,0,1,0,.082h0v.082h0a.637.637,0,0,1-.572.359h-.114a.621.621,0,0,1-.49-.6v-2.711h0v-1.7a.6.6,0,0,1,.6-.621.555.555,0,0,1,.539.343,2.515,2.515,0,0,1,1.225-.343,2.3,2.3,0,0,1,1.8.8,2.319,2.319,0,0,1,1.8-.8,2.384,2.384,0,0,1,2.384,2.4v2.711a.6.6,0,0,1-.6.6.621.621,0,0,1-.621-.6v-2.711a1.176,1.176,0,0,0-2.335,0Z" transform="translate(-183.865 80.63)" fill="#263238"/>
      <path id="Caminho_626" data-name="Caminho 626" d="M244.525,270.794v2.237a.6.6,0,0,1-.6.6.621.621,0,0,1-.6-.49,2.646,2.646,0,0,1-3.462-.343,2.966,2.966,0,0,1,0-4.018,2.646,2.646,0,0,1,1.943-.866,2.613,2.613,0,0,1,1.519.506.637.637,0,0,1,.6-.506.621.621,0,0,1,.6.621Zm-1.225,0a1.633,1.633,0,0,0-.441-1.176,1.4,1.4,0,0,0-1.062-.474,1.372,1.372,0,0,0-1.062.474,1.788,1.788,0,0,0,0,2.352,1.421,1.421,0,0,0,1.062.457,1.437,1.437,0,0,0,1.062-.457A1.633,1.633,0,0,0,243.3,270.794Z" transform="translate(-179.908 80.63)" fill="#263238"/>
      <path id="Caminho_627" data-name="Caminho 627" d="M245.021,267.386a.6.6,0,0,1-.621.621.621.621,0,0,1-.621-.621v-.245a.621.621,0,0,1,.621-.621.6.6,0,0,1,.621.621Zm0,2.058v4.475a.621.621,0,0,1-1.241,0v-4.475a.621.621,0,1,1,1.241,0Z" transform="translate(-176.926 79.744)" fill="#263238"/>
      <path id="Caminho_628" data-name="Caminho 628" d="M246.241,266.52a.637.637,0,0,1,.637.637v6.68a.637.637,0,0,1-1.258,0v-6.745a.637.637,0,0,1,.621-.572Z" transform="translate(-175.761 79.744)" fill="#263238"/>
      <rect id="Retângulo_428" data-name="Retângulo 428" width="216.525" height="19.173" transform="translate(41.067 362.416)" fill="#ebebeb"/>
      <path id="Caminho_629" data-name="Caminho 629" d="M231.409,283.948a2.842,2.842,0,0,1,2.793-2.858,2.744,2.744,0,0,1,2.76,2.662h0a.277.277,0,0,1,0,.114.555.555,0,0,1-.588.457h-3.642a1.4,1.4,0,0,0,.392.751,1.714,1.714,0,0,0,1.094.506,1.943,1.943,0,0,0,1.192-.278.6.6,0,0,1,.849,0,.523.523,0,0,1,0,.735,2.891,2.891,0,0,1-4.9-2.107Zm1.241-.555h3.266a1.878,1.878,0,0,0-1.633-1.208A1.633,1.633,0,0,0,232.65,283.393Z" transform="translate(-184.79 88.969)" fill="#c7c7c7"/>
      <path id="Caminho_630" data-name="Caminho 630" d="M240.666,283.553V286.3a.6.6,0,0,1-.6.6.621.621,0,0,1-.621-.6v-2.744a1.192,1.192,0,0,0-1.176-1.143,1.159,1.159,0,0,0-1.16,1.176V286.3h0a.637.637,0,0,1-.572.359h-.114a.621.621,0,0,1-.49-.6v-2.711h0v-1.78a.611.611,0,0,1,1.16-.278,2.417,2.417,0,0,1,1.225-.343,2.352,2.352,0,0,1,1.8.8,2.3,2.3,0,0,1,1.8-.8,2.384,2.384,0,0,1,2.368,2.4v2.711a.6.6,0,0,1-.6.6.621.621,0,0,1-.621-.6v-2.711a1.16,1.16,0,0,0-1.143-1.176,1.192,1.192,0,0,0-1.241,1.388Z" transform="translate(-181.896 88.874)" fill="#c7c7c7"/>
      <path id="Caminho_631" data-name="Caminho 631" d="M247.629,283.964V286.2a.6.6,0,0,1-.6.6.637.637,0,0,1-.6-.49,2.563,2.563,0,0,1-1.519.49,2.629,2.629,0,0,1-1.943-.833,2.907,2.907,0,0,1-.768-2.009,2.874,2.874,0,0,1,.768-2.009,2.662,2.662,0,0,1,1.943-.866,2.563,2.563,0,0,1,1.519.506.653.653,0,0,1,.6-.506.621.621,0,0,1,.6.621Zm-1.209,0a1.633,1.633,0,0,0-.457-1.176,1.421,1.421,0,0,0-2.123,0,1.789,1.789,0,0,0,0,2.352,1.453,1.453,0,0,0,2.123,0A1.633,1.633,0,0,0,246.42,283.964Z" transform="translate(-177.933 88.969)" fill="#c7c7c7"/>
      <path id="Caminho_632" data-name="Caminho 632" d="M248.128,280.594a.621.621,0,1,1-1.225,0v-.245a.621.621,0,1,1,1.225,0Zm0,2.058v4.475a.621.621,0,0,1-1.225,0v-4.475a.621.621,0,1,1,1.225,0Z" transform="translate(-174.953 88.044)" fill="#c7c7c7"/>
      <path id="Caminho_633" data-name="Caminho 633" d="M249.381,279.69a.653.653,0,0,1,.653.637v6.745a.637.637,0,0,1-.653.621.621.621,0,0,1-.621-.621v-6.745a.637.637,0,0,1,.621-.637Z" transform="translate(-173.772 88.082)" fill="#c7c7c7"/>
      <path id="Caminho_634" data-name="Caminho 634" d="M255.519,283.964V286.2a.588.588,0,0,1-.6.6.6.6,0,0,1-.588-.49,2.646,2.646,0,0,1-3.462-.343,2.966,2.966,0,0,1,0-4.018,2.645,2.645,0,0,1,1.943-.866,2.613,2.613,0,0,1,1.519.506.621.621,0,0,1,.588-.506.6.6,0,0,1,.6.621Zm-1.209,0a1.633,1.633,0,0,0-.441-1.176,1.421,1.421,0,0,0-1.062-.474,1.372,1.372,0,0,0-1.062.474,1.788,1.788,0,0,0,0,2.352,1.42,1.42,0,0,0,1.062.457,1.47,1.47,0,0,0,1.062-.457,1.633,1.633,0,0,0,.441-1.176Z" transform="translate(-172.937 88.969)" fill="#c7c7c7"/>
      <path id="Caminho_635" data-name="Caminho 635" d="M260.184,287.055a.621.621,0,0,1-.621.6.6.6,0,0,1-.6-.49,2.694,2.694,0,0,1-1.552.49,2.858,2.858,0,1,1,0-5.716,2.6,2.6,0,0,1,1.519.49v-2.156a.637.637,0,0,1,1.258,0V284.8h0Zm-2.776-3.854a1.454,1.454,0,0,0-1.078.457,1.633,1.633,0,0,0-.457,1.16,1.535,1.535,0,0,0,.457,1.127,1.437,1.437,0,0,0,2.139,0,1.535,1.535,0,0,0,.457-1.127,1.633,1.633,0,0,0-.457-1.16,1.437,1.437,0,0,0-1.127-.457Z" transform="translate(-170.106 88.116)" fill="#c7c7c7"/>
      <path id="Caminho_636" data-name="Caminho 636" d="M262.921,281.688a.621.621,0,0,1-.6.621,1.11,1.11,0,0,0-.686.212,1.634,1.634,0,0,0-.523.539,3.816,3.816,0,0,0-.474.964V286.2a.6.6,0,0,1-.621.6.588.588,0,0,1-.6-.6v-4.508a.588.588,0,0,1,.6-.588.6.6,0,0,1,.621.588v.082a1.638,1.638,0,0,1,.245-.229,2.5,2.5,0,0,1,1.437-.441.588.588,0,0,1,.6.588Z" transform="translate(-167.029 88.975)" fill="#c7c7c7"/>
      <path id="Caminho_637" data-name="Caminho 637" d="M261.88,283.948a2.842,2.842,0,0,1,2.793-2.858,2.744,2.744,0,0,1,2.76,2.662h0a.278.278,0,0,1,0,.114.555.555,0,0,1-.588.457H263.2a1.519,1.519,0,0,0,.392.751,1.763,1.763,0,0,0,1.094.506,1.943,1.943,0,0,0,1.192-.278.637.637,0,0,1,.866,0,.523.523,0,0,1,0,.735,2.891,2.891,0,0,1-2.058.751,2.825,2.825,0,0,1-2.809-2.842Zm1.258-.555H266.4a1.878,1.878,0,0,0-1.633-1.208A1.633,1.633,0,0,0,263.138,283.393Z" transform="translate(-165.465 88.969)" fill="#c7c7c7"/>
      <path id="Caminho_638" data-name="Caminho 638" d="M266.29,285.141a.6.6,0,0,1,.866,0,2.221,2.221,0,0,0,1.257.506,1.47,1.47,0,0,0,.768-.229.457.457,0,0,0,.212-.343.229.229,0,0,0,0-.114.392.392,0,0,0-.147-.131,2.728,2.728,0,0,0-.915-.327h0a4.44,4.44,0,0,1-1-.294,1.829,1.829,0,0,1-.784-.67,1.322,1.322,0,0,1-.2-.719,1.633,1.633,0,0,1,.67-1.258,2.449,2.449,0,0,1,1.4-.425,2.826,2.826,0,0,1,1.715.637.637.637,0,0,1,.2.849.621.621,0,0,1-.849.147,2.058,2.058,0,0,0-1.062-.408,1.175,1.175,0,0,0-.686.2.343.343,0,0,0-.18.261v.1c0,.1,0,0,.114.114a2.841,2.841,0,0,0,.833.278h0a4.492,4.492,0,0,1,1.062.343,1.632,1.632,0,0,1,.817.67,1.535,1.535,0,0,1,.212.751,1.633,1.633,0,0,1-.719,1.323,2.548,2.548,0,0,1-1.486.457,3.266,3.266,0,0,1-2.041-.784.621.621,0,0,1-.065-.931Z" transform="translate(-162.787 89)" fill="#c7c7c7"/>
      <path id="Caminho_639" data-name="Caminho 639" d="M269.67,285.141a.588.588,0,0,1,.849,0,2.221,2.221,0,0,0,1.257.506,1.535,1.535,0,0,0,.784-.229.425.425,0,0,0,.2-.343.131.131,0,0,0,0-.114s0-.082-.147-.131a2.726,2.726,0,0,0-.915-.327h0a4.444,4.444,0,0,1-1-.294,1.96,1.96,0,0,1-.8-.669,1.471,1.471,0,0,1-.2-.719,1.633,1.633,0,0,1,.686-1.258,2.417,2.417,0,0,1,1.4-.425,2.874,2.874,0,0,1,1.715.637.6.6,0,1,1-.67,1,2.009,2.009,0,0,0-1.045-.408,1.144,1.144,0,0,0-.686.2.343.343,0,0,0-.18.261.18.18,0,0,0,0,.1.5.5,0,0,0,.131.114,2.681,2.681,0,0,0,.833.278h0a4.487,4.487,0,0,1,1.062.343,1.633,1.633,0,0,1,.817.67,1.372,1.372,0,0,1,.212.751,1.633,1.633,0,0,1-.719,1.323,2.516,2.516,0,0,1-1.486.457,3.266,3.266,0,0,1-2.025-.784.6.6,0,0,1-.082-.931Z" transform="translate(-160.648 89)" fill="#c7c7c7"/>
      <path id="Caminho_640" data-name="Caminho 640" d="M280.941,283.655a3.838,3.838,0,0,1-.441,1.829h0a2.447,2.447,0,0,1-.278.408,1.829,1.829,0,0,1-.9.539.9.9,0,0,1-.294,0,.98.98,0,0,1-.866-.425.931.931,0,0,1-.2-.343,2.189,2.189,0,0,1-1.029.261,2.123,2.123,0,0,1-1.633-.686,2.4,2.4,0,0,1-.637-1.633,2.352,2.352,0,0,1,.637-1.633,2.14,2.14,0,0,1,1.633-.7,2.2,2.2,0,0,1,1.633.7,2.336,2.336,0,0,1,.621,1.633v1.486h0a.869.869,0,0,0,.147-.18,2.777,2.777,0,0,0,.294-1.241,2.727,2.727,0,1,0-2.744,2.727,3.061,3.061,0,0,0,.686,0,.621.621,0,0,1,.768.441.653.653,0,0,1-.457.784,4,4,0,1,1,3.005-3.887Zm-3.054,0a1.11,1.11,0,0,0-.278-.768.931.931,0,0,0-1.323,0,1.192,1.192,0,0,0,0,1.535.914.914,0,0,0,.653.278.931.931,0,0,0,.67-.278,1.11,1.11,0,0,0,.359-.768Z" transform="translate(-158.494 88.119)" fill="#c7c7c7"/>
      <path id="Caminho_641" data-name="Caminho 641" d="M284.836,283.553V286.3a.6.6,0,0,1-.6.6.621.621,0,0,1-.621-.6v-2.744a1.192,1.192,0,0,0-1.176-1.143,1.16,1.16,0,0,0-1.16,1.176V286.3h0a.637.637,0,0,1-.572.359h-.114a.621.621,0,0,1-.49-.6v-2.711h0v-1.78a.611.611,0,0,1,1.16-.278,2.417,2.417,0,0,1,1.225-.343,2.352,2.352,0,0,1,1.8.8,2.27,2.27,0,0,1,1.78-.8,2.384,2.384,0,0,1,2.384,2.4v2.711a.6.6,0,0,1-.6.6.621.621,0,0,1-.621-.6v-2.711a1.159,1.159,0,0,0-1.16-1.176,1.192,1.192,0,0,0-1.225,1.388Z" transform="translate(-153.929 88.874)" fill="#c7c7c7"/>
      <path id="Caminho_642" data-name="Caminho 642" d="M291.8,283.964V286.2a.6.6,0,0,1-.6.6.637.637,0,0,1-.6-.49,2.563,2.563,0,0,1-1.519.49,2.629,2.629,0,0,1-1.943-.833,2.966,2.966,0,0,1,0-4.018,2.662,2.662,0,0,1,1.943-.866,2.563,2.563,0,0,1,1.519.506.653.653,0,0,1,.6-.506.621.621,0,0,1,.6.621Zm-1.208,0a1.634,1.634,0,0,0-.457-1.176,1.421,1.421,0,0,0-2.123,0,1.788,1.788,0,0,0,0,2.352,1.453,1.453,0,0,0,2.123,0,1.633,1.633,0,0,0,.539-1.176Z" transform="translate(-149.972 88.969)" fill="#c7c7c7"/>
      <path id="Caminho_643" data-name="Caminho 643" d="M292.3,280.594a.621.621,0,1,1-1.225,0v-.245a.621.621,0,1,1,1.225,0Zm0,2.058v4.475a.621.621,0,0,1-1.225,0v-4.475a.621.621,0,1,1,1.225,0Z" transform="translate(-146.987 88.044)" fill="#c7c7c7"/>
      <path id="Caminho_644" data-name="Caminho 644" d="M293.551,279.69a.653.653,0,0,1,.653.637v6.745a.637.637,0,0,1-.653.621.621.621,0,0,1-.621-.621v-6.745a.637.637,0,0,1,.621-.637Z" transform="translate(-145.806 88.082)" fill="#c7c7c7"/>
      <path id="Caminho_645" data-name="Caminho 645" d="M295.358,283.6a.727.727,0,1,1-.768.866A.866.866,0,0,1,295.358,283.6Z" transform="translate(-144.755 90.558)" fill="#c7c7c7"/>
      <path id="Caminho_646" data-name="Caminho 646" d="M295.85,283.964a2.924,2.924,0,0,1,2.907-2.874,3,3,0,0,1,1.813.637.606.606,0,0,1-.735.964,1.731,1.731,0,0,0-1.078-.376,1.633,1.633,0,1,0,0,3.266,1.862,1.862,0,0,0,1.078-.359.606.606,0,0,1,.735.964,3.086,3.086,0,0,1-1.813.6A2.891,2.891,0,0,1,295.85,283.964Z" transform="translate(-143.957 88.969)" fill="#c7c7c7"/>
      <path id="Caminho_647" data-name="Caminho 647" d="M300.62,285.973a2.776,2.776,0,0,1-.8-2.009,2.907,2.907,0,0,1,.8-2.009,2.7,2.7,0,0,1,1.96-.865,2.6,2.6,0,0,1,1.911.866,2.842,2.842,0,0,1,.8,2.009,2.711,2.711,0,0,1-.8,2.009,2.548,2.548,0,0,1-1.911.882,2.662,2.662,0,0,1-1.96-.882Zm.457-2.009a1.829,1.829,0,0,0,.408,1.209,1.5,1.5,0,0,0,1.094.425,1.437,1.437,0,0,0,1.045-.425,1.8,1.8,0,0,0,0-2.4,1.559,1.559,0,0,0-2.14,0,1.813,1.813,0,0,0-.408,1.192Z" transform="translate(-141.443 88.969)" fill="#c7c7c7"/>
      <path id="Caminho_648" data-name="Caminho 648" d="M309.126,283.553V286.3a.6.6,0,0,1-.6.6.621.621,0,0,1-.621-.6v-2.744a1.192,1.192,0,0,0-1.176-1.143,1.16,1.16,0,0,0-1.16,1.176V286.3h0a.637.637,0,0,1-.572.359h-.114a.621.621,0,0,1-.49-.6v-2.711h0v-1.78a.611.611,0,0,1,1.16-.278,2.417,2.417,0,0,1,1.225-.343,2.352,2.352,0,0,1,1.8.8,2.27,2.27,0,0,1,1.78-.8,2.384,2.384,0,0,1,2.384,2.4v2.711a.6.6,0,0,1-.6.6.621.621,0,0,1-.621-.6v-2.711a1.16,1.16,0,0,0-1.16-1.176,1.192,1.192,0,0,0-1.225,1.388Z" transform="translate(-138.55 88.874)" fill="#c7c7c7"/>
      <path id="Caminho_649" data-name="Caminho 649" d="M233.99,238.7l24.612-.2,24.612-.065,49.24-.147,49.224.147,24.612.065,24.612.2-24.612.2-24.612.082-49.224.131-49.24-.131-24.612-.082Z" transform="translate(-183.124 61.87)" fill="#263238"/>
      <path id="Caminho_650" data-name="Caminho 650" d="M245.12,245.378l20.072-.2,20.072-.065,40.143-.147,40.143.147,20.055.065,20.072.2-20.072.2-20.055.082-40.143.131-40.143-.131-20.072-.082Z" transform="translate(-176.077 66.099)" fill="#263238"/>
      <path id="Caminho_651" data-name="Caminho 651" d="M227.99,310.5l27.061-.212,27.061-.065,54.139-.131,54.123.131,27.078.065,27.061.212-27.061.2-27.078.065-54.123.131-54.139-.131-27.061-.065Z" transform="translate(-186.923 107.331)" fill="#ebebeb"/>
      <rect id="Retângulo_429" data-name="Retângulo 429" width="169.441" height="26.31" transform="translate(64.601 446.197)" fill="#fff"/>
      <path id="Caminho_652" data-name="Caminho 652" d="M265.934,340.311a1.862,1.862,0,0,0-.833-1.551,2.956,2.956,0,0,0-1.192-.506h-2.58v4.067a.359.359,0,0,1-.719,0v-9.587a.343.343,0,0,1,.327-.343h2.94a2.94,2.94,0,0,1,1.241,5.586h.147a2.6,2.6,0,0,1,1.372,2.286,4.232,4.232,0,0,0,.131,1.192.6.6,0,0,0,.163.261.392.392,0,0,1,.392.229.408.408,0,0,1-.245.474h-.2a.817.817,0,0,1-.67-.474A3.61,3.61,0,0,1,265.934,340.311Zm-2.058-7.235h-2.548v4.442h2.613a2.221,2.221,0,0,0,0-4.442Z" transform="translate(-166.27 121.45)" fill="#fff"/>
      <path id="Caminho_653" data-name="Caminho 653" d="M265.86,337.8a3.495,3.495,0,0,1,6.974-.261h0a.343.343,0,0,1-.359.327h-5.912a2.842,2.842,0,0,0,2.793,2.776,2.678,2.678,0,0,0,2.319-1.323.376.376,0,0,1,.474-.114.392.392,0,0,1,.131.506,3.462,3.462,0,0,1-2.923,1.633,3.544,3.544,0,0,1-3.495-3.544Zm.751-.572h5.455a2.76,2.76,0,0,0-5.455,0Z" transform="translate(-162.945 122.705)" fill="#fff"/>
      <path id="Caminho_654" data-name="Caminho 654" d="M271.395,339.935a.359.359,0,0,1,.506,0,3.772,3.772,0,0,0,2.2.849,2.058,2.058,0,0,0,1.355-.457,1.078,1.078,0,0,0,.555-.882,1.143,1.143,0,0,0-.523-.882,3.61,3.61,0,0,0-1.535-.523h0a4,4,0,0,1-1.633-.555,1.5,1.5,0,0,1-.784-1.29,1.813,1.813,0,0,1,.784-1.421,3.1,3.1,0,0,1,1.764-.474,3.887,3.887,0,0,1,2.139.768.392.392,0,0,1,.114.506.343.343,0,0,1-.49.1,3.266,3.266,0,0,0-1.764-.719,2.2,2.2,0,0,0-1.372.408,1.111,1.111,0,0,0-.457.833.882.882,0,0,0,.408.719,3.754,3.754,0,0,0,1.47.49h0a5.244,5.244,0,0,1,1.748.588,1.813,1.813,0,0,1,.816,1.47,1.862,1.862,0,0,1-.833,1.47,2.939,2.939,0,0,1-1.78.572,4.327,4.327,0,0,1-2.662-1.029.343.343,0,0,1-.033-.539Z" transform="translate(-159.514 122.659)" fill="#fff"/>
      <path id="Caminho_655" data-name="Caminho 655" d="M275.77,337.8a3.495,3.495,0,0,1,6.974-.261h0a.343.343,0,0,1-.359.327h-5.912a2.842,2.842,0,0,0,2.793,2.776,2.678,2.678,0,0,0,2.319-1.323.359.359,0,1,1,.588.392,3.413,3.413,0,0,1-2.907,1.633A3.544,3.544,0,0,1,275.77,337.8Zm.751-.572h5.455a2.76,2.76,0,0,0-5.455,0Z" transform="translate(-156.671 122.705)" fill="#fff"/>
      <path id="Caminho_656" data-name="Caminho 656" d="M283.975,335.781a.376.376,0,0,1-.343.359h-.866v5.242a.572.572,0,0,0,.539.539.359.359,0,1,1,0,.719,1.225,1.225,0,0,1-1.274-1.258V336.14h-.9c-.343,0-.343-.18-.343-.359s0-.343.343-.343h.9v-2.678a.392.392,0,0,1,.359-.359.408.408,0,0,1,.376.359v2.678h.931a.359.359,0,0,1,.278.343Z" transform="translate(-153.492 121.456)" fill="#fff"/>
      <path id="Caminho_657" data-name="Caminho 657" d="M287.625,332.713a.343.343,0,0,1,.359-.343h2.907a2.94,2.94,0,0,1,0,5.863l-2.613.065v4.034a.359.359,0,1,1-.719,0Zm3.266,4.818a2.221,2.221,0,0,0,0-4.442h-2.613v4.442Z" transform="translate(-149.206 121.437)" fill="#fff"/>
      <path id="Caminho_658" data-name="Caminho 658" d="M299.079,334.59v6.533a.359.359,0,1,1-.7,0v-1.078a3.266,3.266,0,0,1-2.711,1.437,3.609,3.609,0,0,1,0-7.2,3.348,3.348,0,0,1,2.711,1.4v-1.062a.352.352,0,0,1,.7-.033Zm-.7,3.266a2.711,2.711,0,1,0-2.711,2.907,2.809,2.809,0,0,0,2.678-2.923Z" transform="translate(-146.206 122.647)" fill="#fff"/>
      <path id="Caminho_659" data-name="Caminho 659" d="M298.028,339.935a.343.343,0,0,1,.49,0,3.855,3.855,0,0,0,2.2.849,2.124,2.124,0,0,0,1.372-.457,1.061,1.061,0,0,0,.539-.882,1.176,1.176,0,0,0-.506-.882,3.692,3.692,0,0,0-1.535-.523h0a4.18,4.18,0,0,1-1.633-.555,1.519,1.519,0,0,1-.768-1.29,1.846,1.846,0,0,1,.768-1.421,3.267,3.267,0,0,1,1.78-.474,3.936,3.936,0,0,1,2.139.768.359.359,0,0,1,.1.506.327.327,0,0,1-.474.1,3.267,3.267,0,0,0-1.764-.719,2.173,2.173,0,0,0-1.372.408,1.11,1.11,0,0,0-.457.833.882.882,0,0,0,.408.719,3.755,3.755,0,0,0,1.47.49h0a5.374,5.374,0,0,1,1.747.588,1.813,1.813,0,0,1,.817,1.47,1.862,1.862,0,0,1-.833,1.47,2.989,2.989,0,0,1-1.8.572,4.376,4.376,0,0,1-2.695-1.159A.326.326,0,0,1,298.028,339.935Z" transform="translate(-142.623 122.659)" fill="#fff"/>
      <path id="Caminho_660" data-name="Caminho 660" d="M302.392,339.935a.359.359,0,0,1,.506,0,3.805,3.805,0,0,0,2.2.849,2.123,2.123,0,0,0,1.372-.457,1.094,1.094,0,0,0,.539-.882,1.176,1.176,0,0,0-.506-.882,3.692,3.692,0,0,0-1.535-.523h0a4.18,4.18,0,0,1-1.633-.555,1.486,1.486,0,0,1-.768-1.29,1.8,1.8,0,0,1,.768-1.421,3.1,3.1,0,0,1,1.764-.474,4,4,0,0,1,2.156.767.376.376,0,0,1,.1.506.343.343,0,0,1-.49.1,3.266,3.266,0,0,0-1.764-.719,2.123,2.123,0,0,0-1.355.408,1.111,1.111,0,0,0-.457.833.882.882,0,0,0,.408.719,3.658,3.658,0,0,0,1.47.49h0a5.372,5.372,0,0,1,1.747.588,1.8,1.8,0,0,1,.8,1.47,1.845,1.845,0,0,1-.816,1.47,3.021,3.021,0,0,1-1.8.572,4.377,4.377,0,0,1-2.662-1.029.343.343,0,0,1-.049-.539Z" transform="translate(-139.883 122.659)" fill="#fff"/>
      <path id="Caminho_661" data-name="Caminho 661" d="M309.548,341.376a.245.245,0,0,1-.147-.163l-2.711-6.435a.359.359,0,0,1,.18-.457.343.343,0,0,1,.457.2l2.4,5.667,1.633-3.952a.376.376,0,0,1,.327-.229.425.425,0,0,1,.359.229l1.633,3.952,2.368-5.667a.359.359,0,0,1,.457-.2.343.343,0,0,1,.2.457l-2.695,6.4a.376.376,0,0,1-.131.18.262.262,0,0,1-.18.082h0a.359.359,0,0,1-.278-.229h0l-1.633-3.985-1.633,3.969h0a.375.375,0,0,1-.31.229h-.131Z" transform="translate(-137.11 122.655)" fill="#fff"/>
      <path id="Caminho_662" data-name="Caminho 662" d="M317.684,334.262a3.609,3.609,0,1,1-3.413,3.593,3.511,3.511,0,0,1,3.413-3.593Zm0,6.533a2.907,2.907,0,1,0-2.711-2.907,2.826,2.826,0,0,0,2.711,2.874Z" transform="translate(-132.294 122.632)" fill="#fff"/>
      <path id="Caminho_663" data-name="Caminho 663" d="M319.92,334.619a.359.359,0,0,1,.376-.359.343.343,0,0,1,.327.359v1.633l.114-.18a3.479,3.479,0,0,1,2.874-1.764.359.359,0,1,1,0,.719,2.613,2.613,0,0,0-2.09,1.176,7.087,7.087,0,0,0-.866,1.633.245.245,0,0,0,0,.131v3.152a.343.343,0,0,1-.327.359.359.359,0,0,1-.376-.359Z" transform="translate(-128.717 122.634)" fill="#fff"/>
      <path id="Caminho_664" data-name="Caminho 664" d="M329.555,341.261a3.446,3.446,0,0,1-2.76,1.4,3.609,3.609,0,0,1,0-7.2,3.446,3.446,0,0,1,2.76,1.4v-4.148a.359.359,0,0,1,.719,0v9.587a.359.359,0,1,1-.719,0Zm0-2.074v-.229a2.874,2.874,0,1,0,0,.229Z" transform="translate(-126.495 121.431)" fill="#fff"/>
      <circle id="Elipse_76" data-name="Elipse 76" cx="37.84" cy="37.84" r="37.84" transform="translate(155.78 137.268)" fill="#455a64"/>
      <circle id="Elipse_77" data-name="Elipse 77" cx="25.853" cy="25.853" r="25.853" transform="translate(67.181 203.836)" fill="#ebebeb"/>
      <path id="Caminho_665" data-name="Caminho 665" d="M326.771,167.79V194.9H319.1V167.79c0-10.322-7.839-18.716-17.475-18.716s-17.475,8.394-17.475,18.716V194.9H276.47V167.79c0-14.78,11.285-26.8,25.151-26.8S326.771,153.01,326.771,167.79Z" transform="translate(-156.228 0.263)" fill="#c7c7c7"/>
      <path id="Caminho_666" data-name="Caminho 666" d="M276.47,161.72l7.676.31v19.778H276.47Z" transform="translate(-156.228 13.388)" fill="#a6a6a6"/>
      <path id="Caminho_667" data-name="Caminho 667" d="M310.246,163.107v18.03H302.57V162.78Z" transform="translate(-139.702 14.06)" fill="#a6a6a6"/>
      <rect id="Retângulo_430" data-name="Retângulo 430" width="69.965" height="63.465" transform="translate(110.411 179.747)" fill="#fff"/>
      <rect id="Retângulo_431" data-name="Retângulo 431" width="34.982" height="63.465" transform="translate(145.393 179.747)" opacity="0.1"/>
      <path id="Caminho_668" data-name="Caminho 668" d="M297.372,189.876l2.94,13.9H287.867l2.94-13.9a6.222,6.222,0,1,1,6.533,0Z" transform="translate(-149.022 23.922)" fill="#263238"/>
      <path id="Caminho_669" data-name="Caminho 669" d="M285.894,383.018a4.132,4.132,0,1,1-1.2-2.932,4.132,4.132,0,0,1,1.2,2.932Z" transform="translate(-155.493 150.88)" fill="#dbdbdb"/>
      <path id="Caminho_670" data-name="Caminho 670" d="M302.96,383.841a6.255,6.255,0,1,1-6.255-6.271,6.255,6.255,0,0,1,6.255,6.271Z" transform="translate(-147.376 150.056)" fill="#c7c7c7"/>
      <path id="Caminho_671" data-name="Caminho 671" d="M314.146,383.018A4.148,4.148,0,1,1,310,378.87a4.148,4.148,0,0,1,4.148,4.148Z" transform="translate(-137.625 150.879)" fill="#dbdbdb"/>
      <path id="Caminho_672" data-name="Caminho 672" d="M255.83,230.109V221.42a.8.8,0,0,1,.817-.8h4.8a.817.817,0,0,1,.8.8.833.833,0,0,1-.8.833h-3.985v2.695h3.43a.817.817,0,0,1,0,1.633h-3.43v3.528a.817.817,0,0,1-.817.8.8.8,0,0,1-.817-.8Z" transform="translate(-169.296 50.682)" fill="#263238"/>
      <path id="Caminho_673" data-name="Caminho 673" d="M261.323,228.691a3.691,3.691,0,0,1-1.013-2.58,3.9,3.9,0,0,1,1.013-2.58,3.462,3.462,0,0,1,2.531-1.111,3.267,3.267,0,0,1,2.466,1.111,3.756,3.756,0,0,1,1.029,2.58,3.56,3.56,0,0,1-1.029,2.58,3.266,3.266,0,0,1-2.466,1.127,3.43,3.43,0,0,1-2.531-1.127Zm.588-2.58a2.319,2.319,0,0,0,.539,1.551,1.943,1.943,0,0,0,1.4.555,1.91,1.91,0,0,0,1.355-.555,2.368,2.368,0,0,0,0-3.087,2.058,2.058,0,0,0-1.355-.555,2.091,2.091,0,0,0-1.4.555,2.335,2.335,0,0,0-.539,1.535Z" transform="translate(-166.46 51.821)" fill="#263238"/>
      <path id="Caminho_674" data-name="Caminho 674" d="M270.5,223.2a.784.784,0,0,1-.784.768,1.453,1.453,0,0,0-.882.278,2.172,2.172,0,0,0-.67.719,4.245,4.245,0,0,0-.6,1.225v2.793a.8.8,0,0,1-.817.784.784.784,0,0,1-.784-.784V223.2a.784.784,0,0,1,.784-.768.8.8,0,0,1,.817.768v.163a1.632,1.632,0,0,1,.294-.294,3.266,3.266,0,0,1,1.862-.572.768.768,0,0,1,.784.7Z" transform="translate(-162.882 51.828)" fill="#263238"/>
      <path id="Caminho_675" data-name="Caminho 675" d="M276.675,226.169V228.9a3.528,3.528,0,0,1-5.079,3.168.784.784,0,0,1-.343-1.062.817.817,0,0,1,1.062-.376,1.633,1.633,0,0,0,.833.212,1.976,1.976,0,0,0,1.927-1.633,3.5,3.5,0,0,1-1.927.588,3.348,3.348,0,0,1-2.5-1.127,3.626,3.626,0,0,1-1.029-2.58,3.821,3.821,0,0,1,1.029-2.613,3.446,3.446,0,0,1,2.5-1.094,3.267,3.267,0,0,1,1.976.621.768.768,0,0,1,.768-.621.784.784,0,0,1,.784.784v2.923Zm-1.633,0a2.3,2.3,0,0,0-.572-1.5,1.829,1.829,0,0,0-1.388-.637,1.78,1.78,0,0,0-1.355.637,2.155,2.155,0,0,0-.588,1.5,2.107,2.107,0,0,0,.588,1.519,1.8,1.8,0,0,0,1.356.588,1.846,1.846,0,0,0,1.388-.588,2.237,2.237,0,0,0,.67-1.535Z" transform="translate(-160.565 51.796)" fill="#263238"/>
      <path id="Caminho_676" data-name="Caminho 676" d="M276.663,228.691a3.609,3.609,0,0,1-1.013-2.58,3.821,3.821,0,0,1,1.013-2.58,3.446,3.446,0,0,1,2.531-1.111,3.267,3.267,0,0,1,2.45,1.111,3.691,3.691,0,0,1,1.029,2.58,3.5,3.5,0,0,1-1.029,2.58,3.266,3.266,0,0,1-2.45,1.127,3.4,3.4,0,0,1-2.531-1.127Zm.588-2.58a2.4,2.4,0,0,0,.523,1.551,2.009,2.009,0,0,0,1.421.555,1.943,1.943,0,0,0,1.355-.555,2.368,2.368,0,0,0,0-3.087,2.107,2.107,0,0,0-1.355-.555,2.172,2.172,0,0,0-1.421.555,2.417,2.417,0,0,0-.523,1.535Z" transform="translate(-156.747 51.821)" fill="#263238"/>
      <path id="Caminho_677" data-name="Caminho 677" d="M284.9,224.366a.833.833,0,0,1-.817.817h-.359v4.1a.817.817,0,0,1,.8.833.784.784,0,0,1-.8.8,1.633,1.633,0,0,1-1.633-1.633v-4.1h-.441a.817.817,0,0,1-.8-.817.8.8,0,0,1,.8-.8h.441v-2.139a.817.817,0,1,1,1.633,0v2.139h.359a.817.817,0,0,1,.817.8Z" transform="translate(-153.454 50.675)" fill="#263238"/>
      <path id="Caminho_678" data-name="Caminho 678" d="M291.14,226.886h-1.8v3.266a.816.816,0,0,1-.833.8.8.8,0,0,1-.8-.8v-8.688a.8.8,0,0,1,.8-.8h2.629a3.152,3.152,0,1,1,0,6.288Zm-1.8-1.633h1.8a1.519,1.519,0,1,0,0-3.021h-1.8Z" transform="translate(-149.111 50.704)" fill="#263238"/>
      <path id="Caminho_679" data-name="Caminho 679" d="M299.371,226.128V229a.768.768,0,0,1-.768.784.784.784,0,0,1-.768-.637,3.266,3.266,0,0,1-1.96.637,3.4,3.4,0,0,1-2.5-1.078,3.854,3.854,0,0,1,0-5.177,3.413,3.413,0,0,1,2.5-1.094,3.266,3.266,0,0,1,1.96.653.771.771,0,1,1,1.535.147Zm-1.633,0a2.221,2.221,0,0,0-.572-1.519,1.845,1.845,0,0,0-1.372-.6,1.813,1.813,0,0,0-1.372.6,2.222,2.222,0,0,0-.555,1.519,2.271,2.271,0,0,0,.555,1.519,1.911,1.911,0,0,0,1.372.572,1.943,1.943,0,0,0,1.372-.572,2.286,2.286,0,0,0,.653-1.519Z" transform="translate(-146.155 51.804)" fill="#263238"/>
      <path id="Caminho_680" data-name="Caminho 680" d="M298.258,227.669a.784.784,0,0,1,1.11-.114,2.662,2.662,0,0,0,1.633.653,1.992,1.992,0,0,0,1-.278.637.637,0,0,0,.261-.441.18.18,0,0,0,0-.147.36.36,0,0,0-.18-.18,3.412,3.412,0,0,0-1.176-.408h0a6.255,6.255,0,0,1-1.29-.392,2.515,2.515,0,0,1-1.013-.849,1.764,1.764,0,0,1-.245-.931,2.074,2.074,0,0,1,.866-1.633,3.266,3.266,0,0,1,1.813-.539,3.887,3.887,0,0,1,2.2.8.817.817,0,0,1,.229,1.094.768.768,0,0,1-1.078.212,2.531,2.531,0,0,0-1.355-.555,1.486,1.486,0,0,0-.882.278c-.2.131-.245.261-.245.327v.114a.36.36,0,0,0,.163.147,2.629,2.629,0,0,0,1.078.359h0a5.457,5.457,0,0,1,1.356.425,2.237,2.237,0,0,1,1.045.866,1.894,1.894,0,0,1,.278.98,2.107,2.107,0,0,1-.915,1.633,3.266,3.266,0,0,1-1.911.588,4.263,4.263,0,0,1-2.629-1.013.8.8,0,0,1-.114-1Z" transform="translate(-142.511 51.815)" fill="#263238"/>
      <path id="Caminho_681" data-name="Caminho 681" d="M302.6,227.669a.768.768,0,0,1,1.094-.114,2.694,2.694,0,0,0,1.633.653,2.008,2.008,0,0,0,1.013-.278.637.637,0,0,0,.261-.441.18.18,0,0,0,0-.147s0-.114-.2-.18a3.168,3.168,0,0,0-1.176-.408h0a6.254,6.254,0,0,1-1.29-.392,2.4,2.4,0,0,1-1.013-.849,1.765,1.765,0,0,1-.245-.931,2.074,2.074,0,0,1,.866-1.633,3.266,3.266,0,0,1,1.813-.539,3.887,3.887,0,0,1,2.2.8.817.817,0,0,1,.229,1.094.784.784,0,0,1-1.094.212,2.482,2.482,0,0,0-1.339-.555,1.453,1.453,0,0,0-.882.278c-.2.131-.245.261-.245.327v.114a.359.359,0,0,0,.163.147,2.63,2.63,0,0,0,1.078.359h0a5.372,5.372,0,0,1,1.372.425,2.319,2.319,0,0,1,1.045.866,1.894,1.894,0,0,1,.278.98,2.074,2.074,0,0,1-.931,1.633,3.266,3.266,0,0,1-1.911.588,4.262,4.262,0,0,1-2.613-1.013.784.784,0,0,1-.114-1Z" transform="translate(-139.764 51.815)" fill="#263238"/>
      <path id="Caminho_682" data-name="Caminho 682" d="M316.337,223.523l-2.433,5.7v.131h0l-.082.1h-.67a.179.179,0,0,0-.1,0h-.131a.18.18,0,0,1-.082,0h0v-.1h0a.673.673,0,0,1,0-.131l-1.078-2.531-1.045,2.531v.131h0l-.1.1h0v.082c0,.082-.1,0-.131,0h-.457a.163.163,0,0,1-.131,0h-.082v-.1h0V229.3l-2.417-5.7a.767.767,0,0,1,.425-1.013.735.735,0,0,1,.98.441l1.731,3.952,1.029-2.45a.784.784,0,0,1,.719-.474.751.751,0,0,1,.719.474l1.045,2.45,1.731-3.952a.751.751,0,0,1,1-.441.768.768,0,0,1-.441.931Z" transform="translate(-136.68 51.894)" fill="#263238"/>
      <path id="Caminho_683" data-name="Caminho 683" d="M315.4,228.691a3.625,3.625,0,0,1-1.029-2.58,3.837,3.837,0,0,1,1.029-2.58,3.413,3.413,0,0,1,2.515-1.111,3.267,3.267,0,0,1,2.466,1.111,3.756,3.756,0,0,1,1.029,2.58,3.561,3.561,0,0,1-1.029,2.58,3.266,3.266,0,0,1-2.466,1.127A3.364,3.364,0,0,1,315.4,228.691Zm.588-2.58a2.319,2.319,0,0,0,.523,1.551,1.976,1.976,0,0,0,1.4.555,1.894,1.894,0,0,0,1.356-.555,2.368,2.368,0,0,0,0-3.087,2.025,2.025,0,0,0-1.355-.555,2.123,2.123,0,0,0-1.4.555A2.336,2.336,0,0,0,315.987,226.111Z" transform="translate(-132.231 51.821)" fill="#263238"/>
      <path id="Caminho_684" data-name="Caminho 684" d="M324.554,223.2a.784.784,0,0,1-.784.768,1.535,1.535,0,0,0-.882.278,2.352,2.352,0,0,0-.67.719,4.244,4.244,0,0,0-.6,1.225v2.793a.8.8,0,0,1-.817.784.768.768,0,0,1-.768-.784V223.2a.767.767,0,0,1,.768-.768.8.8,0,0,1,.817.768v.163a1.322,1.322,0,0,1,.31-.294,3.266,3.266,0,0,1,1.845-.572.767.767,0,0,1,.784.7Z" transform="translate(-128.647 51.828)" fill="#263238"/>
      <path id="Caminho_685" data-name="Caminho 685" d="M330.641,230.109a.792.792,0,0,1-1.568.163,3.545,3.545,0,0,1-2.009.637,3.675,3.675,0,1,1,0-7.349,3.43,3.43,0,0,1,1.976.621V221.4a.8.8,0,0,1,.817-.784.784.784,0,0,1,.784.784v5.83h0Zm-3.577-4.9a1.911,1.911,0,0,0-1.372.6,2.074,2.074,0,0,0-.588,1.486,2.025,2.025,0,0,0,.588,1.453,1.878,1.878,0,0,0,2.76,0,2.091,2.091,0,0,0,.588-1.453,2.139,2.139,0,0,0-.588-1.486,1.911,1.911,0,0,0-1.388-.653Z" transform="translate(-126.52 50.682)" fill="#263238"/>
      <path id="Caminho_686" data-name="Caminho 686" d="M332.728,226.673v.947a.7.7,0,0,1-.719.719.719.719,0,0,1-.719-.719V226.1h0a.751.751,0,0,1,.719-.719,1.633,1.633,0,1,0-1.4-2.45.735.735,0,0,1-1,.261.718.718,0,0,1-.261-.98,3.087,3.087,0,1,1,3.381,4.556Zm0,3.266v.261a.7.7,0,0,1-.719.719.719.719,0,0,1-.719-.719v-.261a.719.719,0,0,1,.719-.719.7.7,0,0,1,.719.67Z" transform="translate(-122.809 50.72)" fill="#263238"/>
    </g>
    <g id="freepik--Character--inject-5" transform="translate(53.17 283.732)">
      <path id="Caminho_687" data-name="Caminho 687" d="M149.48,329.51l3.871,23.24,26.261,141.791h4.23L164.75,352.75l-2.825-23.24Z" transform="translate(11.729 -75.099)" fill="#dbdbdb"/>
      <path id="Caminho_688" data-name="Caminho 688" d="M161.925,329.51H149.48l3.871,23.24h11.4Z" transform="translate(11.729 -75.099)" fill="#a6a6a6"/>
      <path id="Caminho_689" data-name="Caminho 689" d="M98.99,494.541h4.23L129.481,352.75l3.871-23.24H120.907l-2.825,23.24Z" transform="translate(-20.239 -75.099)" fill="#dbdbdb"/>
      <path id="Caminho_690" data-name="Caminho 690" d="M113.505,329.51l-2.825,23.24h11.4l3.871-23.24Z" transform="translate(-12.837 -75.099)" fill="#a6a6a6"/>
      <path id="Caminho_691" data-name="Caminho 691" d="M50.77,494.541H55L81.261,352.75l3.871-23.24H72.687l-2.825,23.24Z" transform="translate(-50.77 -75.099)" fill="#dbdbdb"/>
      <path id="Caminho_692" data-name="Caminho 692" d="M62.46,352.75h11.4l3.871-23.24H65.285Z" transform="translate(-43.368 -75.099)" fill="#a6a6a6"/>
      <path id="Caminho_693" data-name="Caminho 693" d="M54.88,384.975H247.266V364.708H175.244l-24.2-105.568H62.213Z" transform="translate(-48.168 -119.654)" fill="#dbdbdb"/>
      <path id="Caminho_694" data-name="Caminho 694" d="M54.88,384.975H65.365L72.208,259.14H62.213Z" transform="translate(-48.168 -119.654)" fill="#a6a6a6"/>
      <path id="Caminho_695" data-name="Caminho 695" d="M212.846,486.853c-3.626.457-102.677-22.652-105.894-25.771-.392-.343,3.087-19.516,3.087-19.516C111.672,433.742,138.586,370,138.586,370l64.82,15.972-27.5,59.153s12.347,8.362,22.962,16.332A143.155,143.155,0,0,1,212.291,472.2C215.443,476.058,216.472,486.428,212.846,486.853Z" transform="translate(-15.217 -49.462)" fill="#c95f50"/>
      <path id="Caminho_696" data-name="Caminho 696" d="M106.942,442.948c3.266,3.119,102.285,26.229,105.911,25.771s2.6-10.8-.539-14.568a144.022,144.022,0,0,0-13.425-10.73h0c-10.6-7.97-22.946-16.332-22.946-16.332l6.075-13.163L119.272,398.64c-4.753,11.84-8.656,22.031-9.227,24.873C110.045,423.448,106.55,442.6,106.942,442.948Z" transform="translate(-15.224 -31.328)" fill="#ebebeb"/>
      <path id="Caminho_697" data-name="Caminho 697" d="M213.559,464.767c-3.74.392-103.608-21.982-106.858-25.249-1.258-1.225,1.16-15.94,4.589-33.643a.977.977,0,0,1,.114-.555l64.575,13.719-.261,1.094s34.378,25.641,37.563,29.609S217.233,464.391,213.559,464.767Z" transform="translate(-15.57 -27.099)" fill="#fff"/>
      <path id="Caminho_698" data-name="Caminho 698" d="M211.188,447.868c-16.74-4.181-84.647-19.484-101.517-22.358-.131,0-.147,0,0,.1,16.495,4.524,84.532,19.271,101.485,22.538C211.531,448.211,211.531,447.95,211.188,447.868Z" transform="translate(-13.543 -14.315)" fill="#263238"/>
      <path id="Caminho_699" data-name="Caminho 699" d="M161.41,415.733c-6.353-2.727-14.7-3.528-20.79,0-.245.147,0,.474.2.457a95.574,95.574,0,0,1,20.382.327.441.441,0,0,0,.212-.784Z" transform="translate(6.054 -21.997)" fill="#263238"/>
      <path id="Caminho_700" data-name="Caminho 700" d="M163.94,418.153c-6.337-2.727-14.7-3.528-20.79,0-.245.147,0,.474.2.457a96.647,96.647,0,0,1,20.382.31.425.425,0,0,0,.212-.768Z" transform="translate(7.656 -20.464)" fill="#263238"/>
      <path id="Caminho_701" data-name="Caminho 701" d="M166.47,420.558c-6.337-2.711-14.7-3.511-20.79,0-.245.147,0,.474.2.457a95.569,95.569,0,0,1,20.382.31.441.441,0,0,0,.212-.768Z" transform="translate(9.258 -18.934)" fill="#263238"/>
      <path id="Caminho_702" data-name="Caminho 702" d="M169.847,408.412c-1.8-4.165-7.006-3.642-10.289-1.944a36.125,36.125,0,0,0-13.6,12.869.163.163,0,0,0,.1.261.833.833,0,0,0,.849,1.061c5.928-.784,12.363-.915,17.867-3.495C167.969,415.647,171.545,412.348,169.847,408.412Zm-14.209,9.211c-2.907.457-5.814.784-8.7,1.356a107.99,107.99,0,0,1,8.166-7.349,39.606,39.606,0,0,1,4.361-2.989c2.368-1.355,11.024-3.413,8.166,3.577-1.519,3.854-8.509,4.85-11.987,5.406Z" transform="translate(9.474 -27.169)" fill="#263238"/>
      <path id="Caminho_703" data-name="Caminho 703" d="M137.543,415.084c4.9,3.544,11.252,4.9,16.92,6.7a.849.849,0,0,0,1.045-.882.176.176,0,0,0,.147-.245,36.191,36.191,0,0,0-11.024-15.139c-2.923-2.27-7.954-3.724-10.485,0S134.668,413.01,137.543,415.084Zm-1.927-5.389c-1.47-7.382,6.663-3.789,8.754-2.025a38.684,38.684,0,0,1,3.74,3.756,106.983,106.983,0,0,1,6.631,8.688c-2.727-1.094-5.536-1.927-8.3-2.907-3.315-1.176-10.011-3.43-10.828-7.513Z" transform="translate(1.423 -28.419)" fill="#263238"/>
      <path id="Caminho_704" data-name="Caminho 704" d="M154.12,446.055c15.695,3.43,27.862,5.879,29.119,5.749,3.756-.376,2.923-11.089-.261-15.041a142.916,142.916,0,0,0-13.065-10.942Z" transform="translate(14.667 -14.119)" opacity="0.2"/>
      <path id="Caminho_705" data-name="Caminho 705" d="M197.515,505.685l-68.74-16.2S186.132,358,181.036,351.319c-2.531-3.348-66.535-4.328-86.884-21.574-26.441-22.407-8.7-56.638-8.7-56.638L157,271s-.866,14.927,1.927,17.165c1.829,1.5,87,8.672,96.357,37.367C266.744,360.726,197.515,505.685,197.515,505.685Z" transform="translate(-32.5 -112.145)" fill="#37474f"/>
      <path id="Caminho_706" data-name="Caminho 706" d="M175.762,414.384c-1.8-.849-19.6-6.075-23.6-7.088-8.035-2.058-16.1-4.083-24.187-5.928-4.23-.964-13.278-3.054-13.833-2.956-.261,0-.31.49,0,.572,7.839,2.58,15.793,4.769,23.746,6.99s35.342,8.8,37.742,8.966C175.811,414.955,176.105,414.5,175.762,414.384Z" transform="translate(-10.78 -31.475)" fill="#263238"/>
      <path id="Caminho_707" data-name="Caminho 707" d="M189.933,342.686a11.023,11.023,0,0,0-5.389-1.633l-31.03-5.177c-9.652-1.633-19.369-3.054-28.972-4.9-7.954-1.535-16.054-3.609-22.864-7.921a33.185,33.185,0,0,1-14.062-18.373,59.4,59.4,0,0,1-1.813-23.55c.18-1.927.539-3.838.9-5.732a.115.115,0,1,0-.229,0c-2.629,14.7-2.858,31.618,8.166,43.3,5.357,5.683,12.706,9.015,20.2,11.187a229.778,229.778,0,0,0,26,5.046l31.03,5.161c4.9.833,10.011,1.47,14.943,2.5a5.145,5.145,0,0,1,2.678,1.192,3.805,3.805,0,0,1,.441,3.577c-.49,2.433-1.16,4.9-1.845,7.219-5.634,19.222-47.215,117.261-48.325,119.368a.2.2,0,0,0,.343.18c9.472-16.854,40.584-94.021,46.839-112.2a116.211,116.211,0,0,0,4.05-14.143C191.174,345.92,191.452,343.977,189.933,342.686Z" transform="translate(-29.116 -109.441)" fill="#263238"/>
      <path id="Caminho_708" data-name="Caminho 708" d="M277.9,483.215c-3.462,1.16-102.6-.229-106.368-2.646-4.132-3.936-5.9-97.467-5.9-97.467l63.775-.523,3.985,67.156s13.768,5.732,25.755,11.432h0a144.119,144.119,0,0,1,15.286,7.856C278.312,472.11,281.366,482.072,277.9,483.215Z" transform="translate(21.961 -41.497)" fill="#c95f50"/>
      <path id="Caminho_709" data-name="Caminho 709" d="M166.7,416.78c.947,21.019,2.3,40.4,4.148,42.136,3.773,2.417,102.889,3.822,106.384,2.646s.408-11.089-3.43-14.16a143.257,143.257,0,0,0-15.3-7.855h0c-11.987-5.7-25.755-11.432-25.755-11.432l-.67-11.3Z" transform="translate(22.632 -19.843)" fill="#ebebeb"/>
      <path id="Caminho_710" data-name="Caminho 710" d="M279.261,458.435c-3.593,1.192-105.927.7-109.8-1.8-1.5-.915-2.3-15.809-2.744-33.839v-.572l66.012-.408v1.111S271.814,440.618,275.8,443.8,282.838,457.276,279.261,458.435Z" transform="translate(22.645 -16.652)" fill="#fff"/>
      <path id="Caminho_711" data-name="Caminho 711" d="M275.273,442.029c-17.246-.506-86.868-.915-103.951-.114-.147,0-.147.114,0,.114,17.083.882,86.7.719,103.951.294C275.633,442.34,275.633,442.046,275.273,442.029Z" transform="translate(25.49 -4.214)" fill="#263238"/>
      <path id="Caminho_712" data-name="Caminho 712" d="M219.541,422.2c-6.778-1.29-15.09-.294-20.3,4.508-.2.2,0,.474.294.408a95.633,95.633,0,0,1,19.99-4.05.441.441,0,0,0,.016-.866Z" transform="translate(43.186 -16.738)" fill="#263238"/>
      <path id="Caminho_713" data-name="Caminho 713" d="M222.544,423.97c-6.794-1.29-15.09-.294-20.3,4.507-.212.2,0,.474.278.408a95.635,95.635,0,0,1,19.99-4.05.441.441,0,0,0,.033-.866Z" transform="translate(45.083 -15.617)" fill="#263238"/>
      <path id="Caminho_714" data-name="Caminho 714" d="M225.534,425.79c-6.794-1.29-15.09-.294-20.3,4.508-.212.2,0,.474.278.408a95.638,95.638,0,0,1,19.99-4.05.441.441,0,0,0,.033-.865Z" transform="translate(46.976 -14.465)" fill="#263238"/>
      <path id="Caminho_715" data-name="Caminho 715" d="M225.237,413.773c-2.646-3.691-7.627-2.058-10.469.31a36.158,36.158,0,0,0-10.534,15.466.18.18,0,0,0,.163.245.833.833,0,0,0,1.062.849c5.618-2.041,11.873-3.528,16.691-7.235C224.96,421.236,227.752,417.251,225.237,413.773Zm-11.889,12.036c-2.744,1.078-5.52,2.009-8.166,3.185a103.508,103.508,0,0,1,6.353-8.9,38.5,38.5,0,0,1,3.609-3.871c2.025-1.829,10.044-5.7,8.819,1.731C223.228,422.053,216.6,424.535,213.348,425.809Z" transform="translate(46.39 -23.123)" fill="#263238"/>
      <path id="Caminho_716" data-name="Caminho 716" d="M195.944,426.105c5.569,2.4,12,2.319,17.965,2.923a.882.882,0,0,0,.833-1.094.18.18,0,0,0,0-.278,36.191,36.191,0,0,0-14.012-12.412c-3.348-1.633-8.558-1.943-10.224,2.27S192.678,424.7,195.944,426.105Zm-3.054-4.9c-3.021-6.908,5.7-5.128,8.166-3.854a39.742,39.742,0,0,1,4.459,2.858,107.8,107.8,0,0,1,8.345,7.072c-2.907-.474-5.814-.686-8.737-1.061-3.528-.392-10.567-1.16-12.232-4.965Z" transform="translate(37.451 -21.525)" fill="#263238"/>
      <path id="Caminho_717" data-name="Caminho 717" d="M295.264,518.41H223.405s.9-129.787-4.736-136.973c-7.513-9.6-112.688-9.391-135.242-40.682-20.251-28.123-3.152-67.907-3.152-67.907l79.649-2.368a166.091,166.091,0,0,1-7.382,25.053S248.474,313.22,275.356,342.6C293.419,362.46,295.264,518.41,295.264,518.41Z" transform="translate(-36.359 -112.474)" fill="#37474f"/>
      <path id="Caminho_718" data-name="Caminho 718" d="M140.573,282.491a39.058,39.058,0,0,0-6.745,2.156c-2.286.882-4.54,1.862-6.745,2.94a134.615,134.615,0,0,0-12.592,7.121c-.131,0,0,.245.131.18,4.3-2.237,8.754-4.246,13.212-6.157l6.435-2.776a65.989,65.989,0,0,0,6.533-2.874.327.327,0,0,0-.229-.588Z" transform="translate(-10.459 -104.871)" fill="#263238"/>
      <path id="Caminho_719" data-name="Caminho 719" d="M131.848,270.566c-.915,3.626-1.633,7.284-2.76,10.893a44.177,44.177,0,0,1-1.633,4.9c-.523,1.339-1.323,2.891-2.891,3.185s-2.319-1.192-2.172-2.678.588-3.266.915-4.9c.376-1.878.768-3.773,1.111-5.651.163-.947.343-1.895.506-2.842a24.144,24.144,0,0,1,.343-2.58.079.079,0,0,0,.1.082h0s.114,0,.114-.1a.328.328,0,0,0-.1-.278c-.1-.1-.1,0-.163,0-.343.2-.359.67-.474,1.013-.294.915-.588,1.845-.866,2.76-.506,1.731-1,3.479-1.437,5.226s-.866,3.495-1.29,5.242a8.166,8.166,0,0,0-.359,4.034,3.1,3.1,0,0,0,2.858,2.335l-.2.343c-.163.359-.278.735-.408,1.111s-.261.751-.376,1.127a3.489,3.489,0,0,0-.1.572v.621c0,.212.408.523.572.212a5.756,5.756,0,0,1,.343-.523,3.362,3.362,0,0,0,.261-.6c.114-.359.229-.719.31-1.094s.212-.735.278-1.111a4.431,4.431,0,0,0,0-.67,4.082,4.082,0,0,0,2.107-.8,7.022,7.022,0,0,0,2.172-3.266c.539-1.5.964-3.07,1.388-4.622a66.457,66.457,0,0,0,2.319-11.693C132.534,270.288,131.946,270.141,131.848,270.566Z" transform="translate(-6.503 -112.577)" fill="#263238"/>
      <path id="Caminho_720" data-name="Caminho 720" d="M108.683,275.961c-.327,1.8-.539,3.626-.964,5.406s-.882,3.5-1.454,5.194a18.422,18.422,0,0,1-2.221,4.687,17.51,17.51,0,0,1-3.528,3.593,29.986,29.986,0,0,1-8.541,4.736,39.372,39.372,0,0,1-4.736,1.388,23.986,23.986,0,0,1-2.531.457,5.324,5.324,0,0,0-2.041.457.425.425,0,0,0,0,.719,7.561,7.561,0,0,0,3.773.114,30.169,30.169,0,0,0,4.034-.7,29.4,29.4,0,0,0,7.627-3.266,23.894,23.894,0,0,0,6.467-5.161,17.965,17.965,0,0,0,3.413-7.464,36.5,36.5,0,0,0,1.111-10.126C109.01,275.8,108.716,275.765,108.683,275.961Z" transform="translate(-30.7 -109.087)" fill="#263238"/>
      <path id="Caminho_721" data-name="Caminho 721" d="M230.334,425.807q-1.062-16.952-2.809-33.823c-.294-2.776-.572-5.569-.915-8.329a25.589,25.589,0,0,0-1.4-6.337c-1.633-4.23-5.177-6.369-9.44-7.431-5.03-1.274-10.24-2.041-15.352-2.858s-10.485-1.633-15.744-2.335c-10.632-1.486-21.231-2.858-31.863-4.638a252.307,252.307,0,0,1-31.275-7.023c-9.407-2.842-19.059-6.353-26.588-12.869C78.728,326.135,78.14,302.6,80.116,283c.278-2.776.621-5.536.964-8.313a.115.115,0,1,0-.229,0c-1.274,11.073-2.776,22.227-1.633,33.382a54.6,54.6,0,0,0,8.852,25.869c5.487,7.855,13.621,12.935,22.391,16.479a176.5,176.5,0,0,0,29.838,8.574c21.019,4.41,42.462,6.271,63.612,9.881,2.613.441,5.21.915,7.807,1.421a32.874,32.874,0,0,1,7.055,1.895c4.8,2.139,6.124,6.81,6.712,11.644,1.388,11.2,2.319,22.472,3.136,33.741,1.633,22.685,2.5,45.5,2.466,68.25V500.9c0,.245.376.212.376,0C232.065,477.97,231.771,448.556,230.334,425.807Z" transform="translate(-33.015 -109.89)" fill="#263238"/>
      <path id="Caminho_722" data-name="Caminho 722" d="M231.993,415.657c-16.332-1.111-63.138-.653-63.693-.425-.245.114-.18.555.082.572,8.166.588,61.162.866,63.53.441C232.172,416.2,232.27,415.673,231.993,415.657Z" transform="translate(23.548 -21.006)" fill="#263238"/>
      <path id="Caminho_723" data-name="Caminho 723" d="M122.37,286.006a267.981,267.981,0,0,1,43.442,8.9,304.218,304.218,0,0,1,41.923,15.172c7.627,3.413,15.009,7.235,22.309,11.252.147.082,0,.294-.131.229a336.741,336.741,0,0,0-40.829-17.785,330.417,330.417,0,0,0-42.462-12.314c-8.166-1.764-16.332-3.136-24.5-4.491C121.668,286.79,121.815,285.859,122.37,286.006Z" transform="translate(-5.762 -102.654)" fill="#263238"/>
      <path id="Caminho_724" data-name="Caminho 724" d="M181.78,370.924c-.506-7.807-1.323-15.613-2.6-23.354-.523-3.119-.653-7.153-3.936-8.7-1.519-.735-31.994-6.026-36.371-5.945a.212.212,0,0,0-.1.392c.408.18,29.4,5.651,33.055,6.533a5.782,5.782,0,0,1,4.067,2.123,14.861,14.861,0,0,1,1.225,5.014,321.983,321.983,0,0,1,4.05,45.876q.18,6.4.212,12.755c0,4.377-.147,8.8.18,13.147a.359.359,0,0,0,.719,0c.327-3.952.212-7.986.229-11.955s0-7.97,0-11.971C182.5,386.847,182.319,378.878,181.78,370.924Z" transform="translate(4.891 -72.94)" fill="#263238"/>
      <path id="Caminho_725" data-name="Caminho 725" d="M126.361,233.205c20.594,27.388,69.507,65.9,80.988,56.932,14.111-11.008,11.432-51.51,11.791-56.72.31-5.569-45.957-4.165-44.1,1.519,1.094,3.364,1.633,6.974.735,6.631-2.727-1.078-8.786-6.533-35.064-21.231C126.1,212.121,112.724,215.077,126.361,233.205Z" transform="translate(-6.504 -146.977)" fill="#c95f50"/>
      <path id="Caminho_726" data-name="Caminho 726" d="M169.516,236.083l-10.828,10.632L145.1,260.041s-15.466-14.992-22.162-27.355c-4.9-9.1-5.063-16.773-.2-18.438a10.909,10.909,0,0,1,7.251.686C147.517,221.482,169.516,236.083,169.516,236.083Z" transform="translate(-7.457 -148.287)" fill="#fff"/>
      <path id="Caminho_727" data-name="Caminho 727" d="M154.361,225.794c-4.328,3.952-20.006,18.6-21.231,21.231,0,0,.114.2.18.18,2.548-1.241,17.344-16.773,21.313-21.068C154.688,225.974,154.443,225.729,154.361,225.794Z" transform="translate(1.377 -140.774)" fill="#263238"/>
      <path id="Caminho_728" data-name="Caminho 728" d="M158.688,246.587,145.1,259.914s-15.466-14.992-22.162-27.355c-4.9-9.1-5.063-16.773-.2-18.438Z" transform="translate(-7.457 -148.159)" fill="#263238"/>
      <path id="Caminho_729" data-name="Caminho 729" d="M199.742,217.161c2.613,8.868.866,29.1-1.421,33.823s-36.811,2.907-39.882-1.535-9.57-34.982-5.994-43.72S197,207.966,199.742,217.161Z" transform="translate(12.945 -155.495)" fill="#c95f50"/>
      <path id="Caminho_730" data-name="Caminho 730" d="M162.113,197.864c-1.486-4.018-8.737-15.531-12.232-14.192s-.376,10.452,1,14.111c2.858,7.529,2.76,18.651,2.629,24.04s12.461,0,12.461,0S166,208.3,162.113,197.864Z" transform="translate(10.97 -167.506)" fill="#c95f50"/>
      <path id="Caminho_731" data-name="Caminho 731" d="M153.645,222.662s-.49,9.489,4.557,11.432,6.81-5.651,6.957-6.173c0,.49-.245,9.227,5.046,10.681s6.141-6.369,6.173-6.876c.131.474,1.943,6.81,6.19,7.006,7.333.327,3.152-15.989,6.386-20.97,0,0,9.064,4.524,9.342,4.605,0,0-3.658-15.613-10.6-19.6a5.112,5.112,0,0,0-6.353.9s-.621-5.161-4.753-6.435c-2.107-.653-5.03,2.156-5.03,2.156a6.4,6.4,0,0,0-4.41-5.014c-2.972-.735-5.847,2.139-6.533,3.413C154.919,207.6,153.645,222.662,153.645,222.662Z" transform="translate(14.358 -160.735)" fill="#c95f50"/>
      <path id="Caminho_732" data-name="Caminho 732" d="M161.3,195.94h-.131a45.614,45.614,0,0,0-7.611,26.033.27.27,0,0,0,.539,0,93.318,93.318,0,0,1,7.2-26.033Z" transform="translate(14.31 -159.67)" fill="#263238"/>
      <path id="Caminho_733" data-name="Caminho 733" d="M167.358,197.367c0-.082-.114-.163-.18,0a42.675,42.675,0,0,0-6.533,28.923c0,.359.474.6.425.2C160.466,219.529,163.814,205.108,167.358,197.367Z" transform="translate(18.561 -158.827)" fill="#263238"/>
      <path id="Caminho_734" data-name="Caminho 734" d="M168.454,228.7c-1.209-9.9.866-19.19,4.377-28.417,0-.131-.131-.18-.2-.1-2.94,4.067-4.573,10.175-5.422,15.058a26.131,26.131,0,0,0,.9,13.506C168.177,228.913,168.487,228.913,168.454,228.7Z" transform="translate(22.642 -157.007)" fill="#263238"/>
      <path id="Caminho_735" data-name="Caminho 735" d="M153.658,213.512a30.067,30.067,0,0,0,.719,5.422,10.11,10.11,0,0,0,2.27,4.736,3.266,3.266,0,0,0,2.139,1,4.736,4.736,0,0,0,2.384-.474,5.814,5.814,0,0,0,2.76-3.887l.964-3.92.457,4a16.086,16.086,0,0,0,1.421,5.144,5.928,5.928,0,0,0,3.43,3.364,3.364,3.364,0,0,0,3.985-1.4,10.125,10.125,0,0,0,1.4-4.9l.294-4.753,1.274,4.557a15.827,15.827,0,0,0,1.535,3.642,6.3,6.3,0,0,0,2.6,2.6,2.989,2.989,0,0,0,3.168-.327,6.533,6.533,0,0,0,1.731-3.266,51.413,51.413,0,0,0,1.111-8.166c.131-1.388.261-2.776.457-4.165a9.8,9.8,0,0,1,1.209-4,10.7,10.7,0,0,0-.833,4.05c-.082,1.372-.1,2.76-.114,4.165a46.042,46.042,0,0,1-.7,8.411,7.9,7.9,0,0,1-1.96,4.05,4.311,4.311,0,0,1-4.671.653,7.79,7.79,0,0,1-3.266-3.152,16.69,16.69,0,0,1-1.764-4.018l1.633-.18a11.791,11.791,0,0,1-1.633,5.8,4.9,4.9,0,0,1-2.6,2.041,5.5,5.5,0,0,1-3.266,0,7.415,7.415,0,0,1-4.361-4.246,18.585,18.585,0,0,1-1.47-5.683l1.421.1a6.99,6.99,0,0,1-3.658,4.638,6.092,6.092,0,0,1-2.989.441,4.311,4.311,0,0,1-2.678-1.4,10.338,10.338,0,0,1-2.107-5.242A25.023,25.023,0,0,1,153.658,213.512Z" transform="translate(14.346 -151.585)" fill="#263238"/>
      <path id="Caminho_736" data-name="Caminho 736" d="M159.918,241.675s-25.02-30.246-8.411-34.3c4.9-1.192,26.621-.163,26.506,4.2-.163,5.618-9.293,6.892-15.156,6.761,0,0,9.962,9.1,5.7,17.965a9.8,9.8,0,0,1-8.639,5.373Z" transform="translate(9.408 -152.719)" fill="#c95f50"/>
      <path id="Caminho_737" data-name="Caminho 737" d="M148.47,208.032a20.4,20.4,0,0,1,5.847-1.225,46.107,46.107,0,0,1,6.01-.131,69.25,69.25,0,0,1,11.955,1.437,10.532,10.532,0,0,1,2.989,1.094,4.132,4.132,0,0,1,1.388,1.192,3.269,3.269,0,0,1,.457.9,3.478,3.478,0,0,1,.114.98,5.112,5.112,0,0,1-1.356,3.266,9.7,9.7,0,0,1-2.662,1.927,18.291,18.291,0,0,1-5.977,1.633,41.85,41.85,0,0,1-6.059.229l.457-1.225a24.139,24.139,0,0,1,2.972,3.528,23.275,23.275,0,0,1,2.237,3.985,15.956,15.956,0,0,1,1.143,4.41,11.856,11.856,0,0,1-.376,4.491,13.293,13.293,0,0,0-.1-4.41,15.646,15.646,0,0,0-1.47-4.116,21.742,21.742,0,0,0-2.352-3.691,24.742,24.742,0,0,0-2.972-3.152l-1.356-1.16h1.829a43.162,43.162,0,0,0,5.83-.408,17.965,17.965,0,0,0,5.455-1.535c1.633-.817,3.07-2.156,3.087-3.691s-1.878-2.156-3.675-2.629a55.341,55.341,0,0,0-5.765-1.127c-1.943-.31-3.9-.6-5.863-.784a38.07,38.07,0,0,0-11.791.212Z" transform="translate(11.09 -152.899)" fill="#263238"/>
      <path id="Caminho_738" data-name="Caminho 738" d="M154.42,231.65l1.356,3.871,1.307,3.887,2.646,7.725c.882,2.58,1.78,5.144,2.727,7.692.474,1.274.947,2.548,1.47,3.805s1.062,2.515,1.633,3.789a52.257,52.257,0,0,1-3.936-7.219c-1.143-2.5-2.107-5.079-3.021-7.66s-1.633-5.21-2.368-7.856A71.392,71.392,0,0,1,154.42,231.65Z" transform="translate(14.857 -137.06)" fill="#263238"/>
      <path id="Caminho_739" data-name="Caminho 739" d="M171.665,329.534c-2.45,1.96-99.443,3.054-99.852,2.368-1.111-1.862,25.2-90.347,66.551-117.849,7.284-4.9,18.389-1.486,23.191,2.27,2.417,1.894,9.423,16.217,10.387,27.927S173.216,328.276,171.665,329.534Z" transform="translate(-37.468 -149.741)" fill="#fff"/>
      <path id="Caminho_740" data-name="Caminho 740" d="M166.55,279.987v.719c-.457-.278-.931-.588-1.372-.915a40.339,40.339,0,0,1-8.982-9.8c-2.548-3.609-4.9-7.382-7.153-11.106a101.353,101.353,0,0,0-10.812-14.992l-.506-.539a41.325,41.325,0,0,0-5.226-4.622,28.221,28.221,0,0,0-24.71-4.3,26.849,26.849,0,0,0-9.8,5.749l1.192-1.992a26.685,26.685,0,0,1,8.345-4.508,29.021,29.021,0,0,1,13.229-.817,28.515,28.515,0,0,1,12.151,5.373,41.451,41.451,0,0,1,5.683,5.128c.18.2.359.376.523.572a102.759,102.759,0,0,1,10.485,14.7c2.319,3.74,4.589,7.5,7.1,11.089a40.062,40.062,0,0,0,8.8,9.587C165.88,279.546,166.207,279.774,166.55,279.987Zm-9.146,4.181a33.366,33.366,0,0,1-13.31-3.266c-8.411-4-15.172-10.616-21.917-17-2.45-2.319-4.9-4.638-7.464-6.827l-.408-.359c-.849-.719-1.633-1.421-2.613-2.107a32.369,32.369,0,0,0-12.477-6.369,20.286,20.286,0,0,0-5.438-.49l-.376.653a19.6,19.6,0,0,1,5.683.457,31.88,31.88,0,0,1,12.2,6.288c.849.653,1.633,1.323,2.482,2.009a4.494,4.494,0,0,1,.425.359c2.58,2.189,5.046,4.557,7.513,6.892,6.712,6.4,13.506,13.065,22.048,17.181a33.741,33.741,0,0,0,13.637,3.4,35.324,35.324,0,0,0,9.162-.964c0-.278,0-.539,0-.817a35.213,35.213,0,0,1-9.146.964Zm9.08-22.864c-1-1.633-2.025-3.266-3.119-4.9a36.731,36.731,0,0,0-9.178-9.554,21.672,21.672,0,0,0-12.657-3.658,16.977,16.977,0,0,0-2.874.163l-.915.114a27.758,27.758,0,0,0-2.825.523,32.859,32.859,0,0,0-6.222,2.335A75.731,75.731,0,0,0,114.3,256.681c-.18.147-.359.31-.539.441-2.025,1.747-4.067,3.462-6.157,5.079a54.186,54.186,0,0,1-11.154,6.892,36.209,36.209,0,0,1-12.69,3.038H81.74c0,.147-.131.294-.18.441l2.237-.082a36.713,36.713,0,0,0,12.837-3.038,55.742,55.742,0,0,0,11.285-6.908c2.139-1.633,4.214-3.381,6.271-5.128l.523-.441a73.623,73.623,0,0,1,14.241-10.191,31.589,31.589,0,0,1,6.108-2.27,26,26,0,0,1,3.266-.572h.931c.784-.082,1.633-.114,2.352-.131a21.231,21.231,0,0,1,12.3,3.593,35.929,35.929,0,0,1,8.982,9.407c1.307,1.878,2.515,3.805,3.691,5.781a7.726,7.726,0,0,1-.114-1.355Z" transform="translate(-31.275 -136.549)" fill="#fff"/>
      <path id="Caminho_741" data-name="Caminho 741" d="M131.874,240.428c-5.683-.245-12.526-10.991-14.274-18.6-.114-.523,6.892-18.079,7.921-21.7.212-.735,21.231,11.987,21.231,11.987a59.738,59.738,0,0,0-6.141,13.278C140.416,225.91,137.378,240.673,131.874,240.428Z" transform="translate(-8.456 -157.042)" fill="#c95f50"/>
      <path id="Caminho_742" data-name="Caminho 742" d="M122.955,200.23c-.506,6.157-.637,22.521,11.644,26.327a14.227,14.227,0,0,0,2.27.49c.245-1,.392-1.633.408-1.764a59.857,59.857,0,0,1,6.141-13.261h0a1.633,1.633,0,0,0-.343-.212h0c-.147-.114-.343-.212-.572-.359l-.245-.147c-.131-.1-.294-.18-.457-.278l-.588-.359-.98-.572-.359-.229-.751-.457-2.972-1.764-1.127-.67c-.49-.278-.98-.555-1.454-.866l-1.454-.833-.18-.1-2.466-1.437-.817-.474-1.633-.882-1.062-.588-2.09-1.111-.474-.229Z" transform="translate(-5.171 -156.954)" fill="#263238"/>
      <path id="Caminho_743" data-name="Caminho 743" d="M129.827,186.12c-5.357,6.925-9.8,31.03-6.124,38.265,5.308,10.371,18.275,16.087,28.172,8.737,9.6-7.121,14.829-38.739,10.338-45.729C155.6,177.3,137.747,175.9,129.827,186.12Z" transform="translate(-5.445 -170.33)" fill="#c95f50"/>
      <path id="Caminho_744" data-name="Caminho 744" d="M137.879,197.58s-.147,0-.147.114c-.359,1.633-1.045,3.495-2.662,3.675v.1C136.932,201.663,137.814,199.213,137.879,197.58Z" transform="translate(2.606 -158.632)" fill="#263238"/>
      <path id="Caminho_745" data-name="Caminho 745" d="M137.282,196.346c-2.6-.849-4.116,4.393-1.633,5.193S139.454,197.065,137.282,196.346Z" transform="translate(2.173 -159.472)" fill="#263238"/>
      <path id="Caminho_746" data-name="Caminho 746" d="M142.765,198.78s.114.114,0,.18c-.523,1.633-.866,3.528.441,4.508h0C141.524,202.765,141.965,200.217,142.765,198.78Z" transform="translate(7.028 -157.872)" fill="#263238"/>
      <path id="Caminho_747" data-name="Caminho 747" d="M144.646,198.012c2.662.588,1.307,5.879-1.16,5.34S142.409,197.538,144.646,198.012Z" transform="translate(7.107 -158.377)" fill="#263238"/>
      <path id="Caminho_748" data-name="Caminho 748" d="M134.1,205.8c.261.506.474,1.143,1.029,1.388a4.246,4.246,0,0,0,1.862.18s.1.082,0,.114a2.3,2.3,0,0,1-2.335.18,1.813,1.813,0,0,1-.784-1.845.115.115,0,1,1,.229-.016Z" transform="translate(1.828 -153.494)" fill="#263238"/>
      <path id="Caminho_749" data-name="Caminho 749" d="M142.769,209.23s-.343,2.531-.653,3.675a25.836,25.836,0,0,0-6.908-.866c-.555,0-.441-.392.229-.572a10.109,10.109,0,0,1,5.961.163c.18-.294.457-3.9.637-3.854a10.271,10.271,0,0,1,2.45,1.307c.849-5.242.866-10.6,1.8-15.809a.163.163,0,0,1,.31,0,85.249,85.249,0,0,1-1.209,17.1C145.3,211.075,143.259,209.556,142.769,209.23Z" transform="translate(2.468 -161.43)" fill="#263238"/>
      <path id="Caminho_750" data-name="Caminho 750" d="M135.394,193.731c.751-.114,1.454-.114,2.2-.163a3.659,3.659,0,0,1,2.286.278,1.143,1.143,0,0,1,.376,1.339,2.842,2.842,0,0,1-2.5,1.388,4.181,4.181,0,0,1-2.907-.686,1.209,1.209,0,0,1,.539-2.156Z" transform="translate(2.167 -161.218)" fill="#263238"/>
      <path id="Caminho_751" data-name="Caminho 751" d="M148.377,195.443a20.168,20.168,0,0,0-1.748-1.372,3.56,3.56,0,0,0-2.025-1.062,1.111,1.111,0,0,0-1.062.882,2.809,2.809,0,0,0,1.274,2.564,4.116,4.116,0,0,0,2.793,1.061,1.209,1.209,0,0,0,.768-2.074Z" transform="translate(7.965 -161.525)" fill="#263238"/>
      <path id="Caminho_752" data-name="Caminho 752" d="M130.653,199.622c2.009.768,2.384-3.43,2.482-4.9a25.969,25.969,0,0,1,1.127-4.442,24.6,24.6,0,0,1-2.156,4.05C131.175,195.457,128.644,198.821,130.653,199.622Z" transform="translate(-0.669 -163.254)" fill="#fff"/>
      <path id="Caminho_753" data-name="Caminho 753" d="M122.768,212.55s-3.838-17.018-.31-24.938c1.633-3.577,7.464-4.377,7.464-4.377a8.819,8.819,0,0,1,5.455-7.529c5.749-2.662,16.038,1.813,16.038,1.813s10.175-7.627,18.569-.457-1.633,16.087-1.633,16.087,1.878,6.239-8.166,7.284c-9.8,1.029-25.837-8.558-25.837-8.558a63.546,63.546,0,0,1-6.271,17.867,5.765,5.765,0,0,1-5.308,2.809Z" transform="translate(-6.324 -173.569)" fill="#263238"/>
      <path id="Caminho_754" data-name="Caminho 754" d="M149.752,178.367a17.966,17.966,0,0,0-6.418-3.528,19.109,19.109,0,0,0-6.533-1.094A10.762,10.762,0,0,0,127,179a7.545,7.545,0,0,0-.441,5.83c0,.082.147,0,.114,0-1.307-3.544,1.323-7.464,4.41-9.015a16.168,16.168,0,0,1,11.432-.359,31.371,31.371,0,0,1,6.908,3.136.2.2,0,1,0,.327-.229Z" transform="translate(-3.028 -173.732)" fill="#263238"/>
      <path id="Caminho_755" data-name="Caminho 755" d="M163.068,184.044a8.8,8.8,0,0,0-3.985-7.235,14.911,14.911,0,0,0-9.309-2.744,18.667,18.667,0,0,0-9.374,3.054v.114a16.527,16.527,0,0,1,16.887-.572,8.166,8.166,0,0,1,2.172,13.474,16.936,16.936,0,0,1-8.345,4.165v.114a17.165,17.165,0,0,0,8-3.266A9.8,9.8,0,0,0,163.068,184.044Z" transform="translate(5.98 -173.529)" fill="#263238"/>
      <path id="Caminho_756" data-name="Caminho 756" d="M158.563,195.737a31.112,31.112,0,0,1-12.918-1.976,63.124,63.124,0,0,1-12.281-6.059c-2.254-1.4-4.459-2.907-6.631-4.442,0,0-.131,0,0,.114a69.315,69.315,0,0,0,11.791,8.46,34.753,34.753,0,0,0,12.739,4.116,29.4,29.4,0,0,0,7.382-.114S158.628,195.721,158.563,195.737Z" transform="translate(-2.71 -167.699)" fill="#263238"/>
      <path id="Caminho_757" data-name="Caminho 757" d="M129.333,199.141s-2.531-9.211-6.533-8.558-3.936,12.706-.523,15.564a4.23,4.23,0,0,0,6.043-.163Z" transform="translate(-7.091 -163.083)" fill="#c95f50"/>
      <path id="Caminho_758" data-name="Caminho 758" d="M121.731,192.68v.1c2.352,2.107,2.891,5.161,2.972,8.166a2.352,2.352,0,0,0-3.1-1.78v.163a2.629,2.629,0,0,1,2.4,1.829,13.063,13.063,0,0,1,.523,2.646c0,.294.523.327.539,0h0C126.353,200.258,125.373,194.379,121.731,192.68Z" transform="translate(-5.923 -161.734)" fill="#263238"/>
      <path id="Caminho_759" data-name="Caminho 759" d="M108.371,229.3c-4.785,26.719-1.911,82.736,10.256,92.127,14.094,10.861,75.8,13.065,89.514,9.048,5.471-1.633-7.545-37.775-13.621-37.726-25.526.18-47.019-2.76-49.207-5.781-3.364-4.622-12.167-37.2-18.177-57.618C119.607,203.707,110.51,217.311,108.371,229.3Z" transform="translate(-15.689 -147.741)" fill="#c95f50"/>
      <path id="Caminho_760" data-name="Caminho 760" d="M217.778,239.762l-39.2,25.608a1.633,1.633,0,0,0-.245,2.744L196.563,281.8a3.675,3.675,0,0,0,3.936,0l39.2-25.608a1.633,1.633,0,0,0,.245-2.76l-18.226-13.67a3.675,3.675,0,0,0-3.936,0Z" transform="translate(29.597 -132.286)" fill="#263238"/>
      <path id="Caminho_761" data-name="Caminho 761" d="M216.748,239.062l-39.2,25.608a1.633,1.633,0,0,0-.245,2.744L195.533,281.1a3.675,3.675,0,0,0,3.936,0l39.2-25.608a1.633,1.633,0,0,0,.245-2.76l-18.226-13.67a3.675,3.675,0,0,0-3.936,0Z" transform="translate(28.945 -132.729)" fill="#37474f"/>
      <path id="Caminho_762" data-name="Caminho 762" d="M215,240.554l-35.93,23.485c-1.111.719-1.258,1.862-.343,2.548l16.332,12.232a3.479,3.479,0,0,0,3.658,0l35.93-23.5c2.254-1.453,2.009-2.335,1.094-3.021l-3.266-2.45a.849.849,0,0,0-.882.1h-.131a1.061,1.061,0,0,1-1.47-.114l-7.562-5.667c-.425-.327-.751-.588,0-1.045l.114-.082c.31-.2.392-.457.2-.6l-3.266-2.45C218.483,239.329,217.112,239.215,215,240.554Z" transform="translate(29.872 -132.082)" fill="#fff"/>
      <path id="Caminho_763" data-name="Caminho 763" d="M207.479,243.345l2.058,1.633a.278.278,0,0,0,.278,0h0a.131.131,0,0,0,0-.2l-2.074-1.535a.212.212,0,0,0-.261,0h0C207.414,243.215,207.414,243.3,207.479,243.345Z" transform="translate(48.421 -129.745)" fill="#fff"/>
      <path id="Caminho_764" data-name="Caminho 764" d="M189.49,253.857l13.849,10.387,15.45-10.06-13.866-10.4Z" transform="translate(37.062 -129.38)" fill="#fff"/>
      <path id="Caminho_765" data-name="Caminho 765" d="M191.47,253.838l8.084,6.075.915-.6-8.084-6.059Z" transform="translate(38.316 -123.384)" fill="#a6a6a6"/>
      <path id="Caminho_766" data-name="Caminho 766" d="M189.65,253.634l9.57,7.186.457-.294-9.587-7.186Z" transform="translate(37.163 -123.327)" fill="#a6a6a6"/>
      <path id="Caminho_767" data-name="Caminho 767" d="M189.14,253.964l9.57,7.186.457-.294-9.587-7.186Z" transform="translate(36.841 -123.118)" fill="#a6a6a6"/>
      <path id="Caminho_768" data-name="Caminho 768" d="M188.63,254.31l9.57,7.17.457-.294L189.087,254Z" transform="translate(36.518 -122.909)" fill="#a6a6a6"/>
      <path id="Caminho_769" data-name="Caminho 769" d="M209.25,247.575l1.731,1.29.359-.245-1.715-1.29Z" transform="translate(49.573 -127.132)" fill="#a6a6a6"/>
      <path id="Caminho_770" data-name="Caminho 770" d="M208.83,247.845l1.715,1.29.376-.245-1.715-1.29Z" transform="translate(49.308 -126.961)" fill="#a6a6a6"/>
      <path id="Caminho_771" data-name="Caminho 771" d="M208.41,248.115l1.731,1.307.359-.245-1.715-1.307Z" transform="translate(49.042 -126.79)" fill="#a6a6a6"/>
      <path id="Caminho_772" data-name="Caminho 772" d="M188.206,251.157a1.257,1.257,0,0,0,0,.637,3.072,3.072,0,0,0,.931,0c.6,0,1.062-.392.735-.653a.734.734,0,0,0-.768,0s.376-.31.1-.506S188.32,250.732,188.206,251.157Z" transform="translate(36.223 -125.079)" fill="#fff"/>
      <path id="Caminho_773" data-name="Caminho 773" d="M182.23,256.729l11.171,8.394,3.577-2.319L185.79,254.41Z" transform="translate(32.465 -122.649)" fill="#fff"/>
      <path id="Caminho_774" data-name="Caminho 774" d="M174.514,306.838c3.005,0,28.286-6.271,35.93-10.567a85.61,85.61,0,0,0,21.982-16.789c9.995-10.714,15.891-19.075,16.087-23.7.212-5.373,0-6.32-20.2,10.158-11.432,9.309-18.781,8.166-24.661,5.945-24.171-9.211-47.46-2.923-47.46-2.923S162.951,306.805,174.514,306.838Z" transform="translate(15.978 -123.992)" fill="#c95f50"/>
      <path id="Caminho_775" data-name="Caminho 775" d="M205.672,272.813c-6.157-2.107,18.242-7.366,21.051-14.241s-4.85-7.121-11.546-5.161c-23.518,6.974-37.318,1.258-51.445,10.926-1.5,1.013-5.928,3.266-6.01,3.985C157.053,275.083,205.672,272.813,205.672,272.813Z" transform="translate(16.944 -123.953)" fill="#c95f50"/>
      <path id="Caminho_776" data-name="Caminho 776" d="M186.992,255.687a51.592,51.592,0,0,0-13.065.376,31.633,31.633,0,0,0-11.073,4.769c-.147.082,0,.327.131.245,7.251-4.361,15.793-4.785,24.007-5.193a.1.1,0,1,0,0-.2Z" transform="translate(20.158 -121.999)" fill="#263238"/>
      <path id="Caminho_777" data-name="Caminho 777" d="M104.553,265.666l14.862-2.793,18.716-3.511s-4.393-20.839-9.8-33.839c-5.52-13.359-14.7-17.72-19.745.637C103.687,244.207,104.553,265.666,104.553,265.666Z" transform="translate(-16.754 -148.294)" fill="#fff"/>
      <path id="Caminho_778" data-name="Caminho 778" d="M105.364,243.546c5.716-1.29,26.7-5.765,29.495-5.324,0,0,.1.212,0,.245-2.466,1.388-23.681,4.638-29.479,5.422C105.315,243.905,105.25,243.579,105.364,243.546Z" transform="translate(-16.243 -132.918)" fill="#263238"/>
      <path id="Caminho_779" data-name="Caminho 779" d="M107.4,255.959c-.882.261-1.764.49-2.646.719h-.245V256.4c-.229-2.335-.261-4.687-.261-7.023s.114-4.687.278-7.023.376-4.671.7-6.99.67-4.622,1.16-6.925c0,2.352-.163,4.671-.278,7.006s-.261,4.654-.392,6.99c-.245,4.638-.572,9.293-.768,13.947l-.261-.2C105.573,256.138,106.487,256.024,107.4,255.959Z" transform="translate(-16.909 -139.092)" fill="#263238"/>
      <path id="Caminho_780" data-name="Caminho 780" d="M103.8,231.65a27.554,27.554,0,0,1,1.045,4.344c.114.735.229,1.47.294,2.2a20.636,20.636,0,0,1,.114,2.254,17.606,17.606,0,0,1-1.209-4.328A18.585,18.585,0,0,1,103.8,231.65Z" transform="translate(-17.222 -137.06)" fill="#263238"/>
      <path id="Caminho_781" data-name="Caminho 781" d="M126.217,251.086l1.209-.359-.1.163c-.637-1.943-1.143-3.9-1.715-5.847l-1.519-5.879c-.98-3.92-1.894-7.839-2.744-11.824a48.077,48.077,0,0,1,2.2,5.683,53.686,53.686,0,0,1,1.633,5.847c.441,1.96.947,3.952,1.339,5.945s.735,3.985.98,6.01v.147h-.131A10.294,10.294,0,0,1,126.217,251.086Z" transform="translate(-6.081 -139.789)" fill="#263238"/>
      <path id="Caminho_782" data-name="Caminho 782" d="M123.324,229.75a11.04,11.04,0,0,1,.555,3.4,10.274,10.274,0,0,1-.114,1.731,6.091,6.091,0,0,1-.441,1.633,24.153,24.153,0,0,1-.261-3.4,16.2,16.2,0,0,1,.261-3.364Z" transform="translate(-5.001 -138.263)" fill="#263238"/>
    </g>
    <g id="freepik--speech-bubble--inject-5" transform="translate(224.434 171.128)">
      <path id="Caminho_783" data-name="Caminho 783" d="M184.1,169.023a10.06,10.06,0,1,1-3.542-6.849,10.077,10.077,0,0,1,3.542,6.849Z" transform="translate(-150.353 -69.945)" fill="#fff"/>
      <path id="Caminho_784" data-name="Caminho 784" d="M184.256,169.172a10.281,10.281,0,1,1-10.942-9.588,10.5,10.5,0,0,1,10.942,9.588Zm0,0A9.652,9.652,0,0,0,173.4,160.4,9.8,9.8,0,0,0,165,170.837a9.663,9.663,0,1,0,19.255-1.666Z" transform="translate(-150.51 -70.093)" fill="#263238"/>
      <path id="Caminho_785" data-name="Caminho 785" d="M167.336,178.81a5.6,5.6,0,1,1-6.075-5.112,5.6,5.6,0,0,1,6.075,5.112Z" transform="translate(-155.311 -61.162)" fill="#fff"/>
      <path id="Caminho_786" data-name="Caminho 786" d="M167.662,178.933a6.026,6.026,0,1,1-4.319-5.211A6.059,6.059,0,0,1,167.662,178.933Zm0,0a5.34,5.34,0,0,0-2.058-3.724,5.21,5.21,0,1,0,.67,7.741,5.341,5.341,0,0,0,1.388-4.018Z" transform="translate(-155.637 -61.285)" fill="#263238"/>
      <path id="Caminho_787" data-name="Caminho 787" d="M264.458,156.888a29.4,29.4,0,0,1-40.633,30.654,24.677,24.677,0,0,1-39.2-.082,18.486,18.486,0,0,1-3.266.686,20.023,20.023,0,0,1-18.879-31.357A29.4,29.4,0,0,1,202.1,114.23a24.677,24.677,0,0,1,42.364,6.729,15.662,15.662,0,0,1,3.168-.719,16.136,16.136,0,0,1,13.882,26.9A28.727,28.727,0,0,1,264.458,156.888Z" transform="translate(-155.358 -104.665)" fill="#fff"/>
      <path id="Caminho_788" data-name="Caminho 788" d="M264.737,157.006a29.855,29.855,0,0,1-2.107,15.058,31.422,31.422,0,0,1-3.871,6.647,30.432,30.432,0,0,1-5.471,5.373,29.707,29.707,0,0,1-29.283,3.805h.278A25.118,25.118,0,0,1,184.4,188l.588.2a20.35,20.35,0,0,1-6.271.866,19.4,19.4,0,0,1-6.255-1.045,20.725,20.725,0,0,1-10.158-7.431,22.2,22.2,0,0,1-2.891-5.683,21.674,21.674,0,0,1-1.045-6.288,20.724,20.724,0,0,1,3.74-12.069v.849a30.1,30.1,0,0,1,1.633-39.2,30.426,30.426,0,0,1,18.683-9.374,29.969,29.969,0,0,1,20.186,5.112l-.719.114a25.1,25.1,0,0,1,42.985,7.039l-.212-.1a16.446,16.446,0,0,1,10.518.131,16.217,16.217,0,0,1,6.533,26.245h0A28.711,28.711,0,0,1,264.737,157.006Zm0,0a28.81,28.81,0,0,0-2.989-9.8h0A16.054,16.054,0,0,0,255.1,121.24a15.858,15.858,0,0,0-10.322,0h-.163v-.163a24.5,24.5,0,0,0-7.513-10.256,24.276,24.276,0,0,0-34.28,3.822l-.294.392-.425-.294a28.78,28.78,0,0,0-38.69,41.646l.343.441-.327.474a19.124,19.124,0,0,0-3.511,11.171,19.827,19.827,0,0,0,.931,5.863,20.481,20.481,0,0,0,2.662,5.308,19.729,19.729,0,0,0,9.423,7.039,18.42,18.42,0,0,0,5.879,1.062,18.7,18.7,0,0,0,5.928-.735l.359-.114.245.31a24.661,24.661,0,0,0,8.427,7.072,24.334,24.334,0,0,0,30.2-6.794l.114-.147h.163a28.972,28.972,0,0,0,28.989-3.495,30.8,30.8,0,0,0,5.487-5.324,31.148,31.148,0,0,0,3.887-6.533,29.757,29.757,0,0,0,2.123-14.976Z" transform="translate(-155.637 -104.783)" fill="#263238"/>
      <path id="Caminho_789" data-name="Caminho 789" d="M203.887,147.69l-.931,4.459a3.266,3.266,0,0,1-4.05,2.662,3.43,3.43,0,0,1-2.662-4.067l1.486-7.137.1-.114c.1-.114,0,0,0-.163a3.528,3.528,0,0,1,4.067-2.646,7.864,7.864,0,1,0-4.116-12.967,3.446,3.446,0,1,1-5.128-4.589,14.7,14.7,0,1,1,11.35,24.5Zm-3.119,15.025-.261,1.241a3.364,3.364,0,0,1-4.067,2.662,3.462,3.462,0,0,1-2.662-4.067l.261-1.241a3.479,3.479,0,0,1,4.067-2.629A3.43,3.43,0,0,1,200.767,162.715Z" transform="translate(-132.839 -96.268)" fill="#fff"/>
      <path id="Caminho_790" data-name="Caminho 790" d="M180.93,138.6l-.474-4.442a3.266,3.266,0,0,1,2.989-3.838,3.446,3.446,0,0,1,3.822,2.989l.9,7.235v.147c0,.147,0,0,.082.131a3.511,3.511,0,0,1-2.989,3.822,7.856,7.856,0,1,0,1.927,15.58,7.709,7.709,0,0,0,6.206-4.638,3.462,3.462,0,0,1,4.573-1.845,3.413,3.413,0,0,1,1.764,4.508,14.7,14.7,0,1,1-18.667-19.6Zm-1.878-15.221-.163-1.258a3.266,3.266,0,0,1,2.989-3.822,3.413,3.413,0,0,1,3.822,2.989l.163,1.241a3.5,3.5,0,0,1-2.989,3.838,3.4,3.4,0,0,1-3.822-2.989Z" transform="translate(-145.567 -96.242)" fill="#fff"/>
    </g>
  </g>
</svg>
