<svg xmlns="http://www.w3.org/2000/svg" width="610.67" height="636.85" viewBox="0 0 610.67 636.85">
  <g id="My_password-cuate_1_" data-name="My password-cuate (1)" transform="translate(-46.92 -49.45)">
    <g id="freepik--background-complete--inject-4" transform="translate(46.92 49.45)">
      <path id="Caminho_1040" data-name="Caminho 1040" d="M411.051,281.4l20.074-.421,9.894-.165c3.293-.075,6.556,0,9.849-.09l-.677.677-.075-16.826.752.752-19.909-.105c-6.646,0-13.278-.165-19.909-.241l.406-.406c0,2.752-.135,5.519-.2,8.315Zm0,0-.226-8.331c0-2.812-.165-5.639-.2-8.5v-.466h.421c6.631,0,13.263-.226,19.909-.241l19.909-.09h.752v.752l-.09,16.826v.8h-.662c-3.368,0-6.722,0-10.075-.075l-10.015-.165Z" transform="translate(136.283 58.509)" fill="#ebebeb"/>
      <path id="Caminho_1041" data-name="Caminho 1041" d="M425.821,295.493l20.074-.421,9.894-.165c3.293-.075,6.571,0,9.849-.09l-.677.677V278.667l.752.752-19.909-.105c-6.646,0-13.278-.165-19.909-.241l.406-.406c0,2.752-.135,5.519-.2,8.316Zm0,0-.211-8.331c-.075-2.812-.18-5.639-.211-8.5v-.406h.421c6.631-.075,13.263-.226,19.909-.241l19.909-.09h.752v.752l-.09,16.826v.677h-.662c-3.353,0-6.722,0-10.075-.075l-10.015-.165Z" transform="translate(143.723 65.637)" fill="#ebebeb"/>
      <rect id="Retângulo_523" data-name="Retângulo 523" width="39.818" height="16.826" transform="translate(564.852 361.115) rotate(180)" fill="#ebebeb"/>
      <path id="Caminho_1042" data-name="Caminho 1042" d="M47.976,372.733l20.09-.421,9.894-.165c3.278,0,6.556,0,9.834-.09l-.662.677-.09-16.826.752.752-19.909-.105c-6.631,0-13.263-.165-19.909-.241l.406-.406c0,2.752-.12,5.519-.2,8.315Zm0,0-.211-8.331c-.075-2.812-.165-5.639-.2-8.5V355.5h.406c6.646-.075,13.278-.226,19.909-.241l19.909-.09h.752v18.255h-.677c-3.353,0-6.722,0-10.06-.075l-10.045-.2Z" transform="translate(-46.593 104.543)" fill="#ebebeb"/>
      <rect id="Retângulo_524" data-name="Retângulo 524" width="39.818" height="16.826" transform="translate(63.426 498.479) rotate(180)" fill="#ebebeb"/>
      <path id="Caminho_1043" data-name="Caminho 1043" d="M116.586,163.748l20.09-.421,9.894-.165c3.278-.075,6.556,0,9.834-.075l-.662.662-.09-16.826.752.752-19.909-.09c-6.631,0-13.278-.165-19.909-.256l.406-.406c0,2.752-.12,5.534-.2,8.331Zm0,0-.211-8.315c0-2.812-.165-5.654-.2-8.511v-.406h.406c6.631-.075,13.278-.241,19.909-.241l19.909-.105h.752v.752l-.075,16.826v.677h-.662c-3.353,0-6.722,0-10.06-.09l-10.015-.165Z" transform="translate(-12.033 -0.732)" fill="#ebebeb"/>
      <rect id="Retângulo_525" data-name="Retângulo 525" width="39.818" height="16.826" transform="translate(63.216 17.578) rotate(180)" fill="#ebebeb"/>
      <path id="Caminho_1044" data-name="Caminho 1044" d="M47.861,81.138l20.074-.376L77.83,80.6h9.849L87,81.259V64.432l.752.752L67.83,64.973c-6.646,0-13.278-.165-19.909-.256l.406-.406c0,2.752-.135,5.519-.2,8.331Zm0,0-.226-8.315c0-2.812-.165-5.654-.2-8.511v-.406h.421c6.631,0,13.263-.241,19.909-.256l19.909-.09h.752v.752l-.09,16.826v.677h-.662c-3.368,0-6.722,0-10.075-.09L67.59,81.559Z" transform="translate(-46.658 -42.343)" fill="#ebebeb"/>
      <path id="Caminho_1045" data-name="Caminho 1045" d="M411.051,67.028l20.074-.421,9.894-.165h9.849l-.677.662-.075-16.826.752.752-19.909-.09c-6.646,0-13.278-.165-19.909-.256l.406-.406c0,2.752-.135,5.519-.2,8.331Zm0,0-.226-8.315c0-2.812-.165-5.654-.2-8.511V49.8h.421c6.631,0,13.263-.241,19.909-.256l19.909-.09h.752v.827l-.09,16.826v.677h-.662c-3.368,0-6.722,0-10.075-.09l-10.06-.241Z" transform="translate(136.283 -49.45)" fill="#ebebeb"/>
      <rect id="Retângulo_526" data-name="Retângulo 526" width="39.818" height="16.826" transform="translate(524.207 227.992) rotate(180)" fill="#ebebeb"/>
      <path id="Caminho_1046" data-name="Caminho 1046" d="M92.67,139.191a4.752,4.752,0,0,1,4.962,0l1.278.737c.436.226.872.451,1.323.662A4.752,4.752,0,0,1,103,144.694l.18,6.105,19.909-.617-.2-6.105a4.767,4.767,0,0,1,2.5-4.3,27.073,27.073,0,0,0,2.526-1.5,4.737,4.737,0,0,1,4.947-.316l5.368,2.872,9.413-17.548-5.368-2.887a4.722,4.722,0,0,1-2.481-4.286,24.283,24.283,0,0,0-.09-3.007,4.707,4.707,0,0,1,2.2-4.511l5.188-3.083L136.563,88.591l-5.143,3.173a4.722,4.722,0,0,1-4.947,0c-.406-.256-.842-.5-1.263-.722s-.872-.466-1.323-.662a4.752,4.752,0,0,1-2.767-4.12l-.226-6.15-19.909.617.2,6.015a4.707,4.707,0,0,1-2.5,4.3,27.181,27.181,0,0,0-2.526,1.5,4.707,4.707,0,0,1-4.947.316l-5.368-2.872L76.43,107.673,81.8,110.56a4.692,4.692,0,0,1,2.466,4.286,27.862,27.862,0,0,0,.105,3.007,4.722,4.722,0,0,1-2.2,4.511l-5.188,3.218L87.512,142.5Zm4.977-31.427a16.315,16.315,0,1,1,6.707,22.074A16.315,16.315,0,0,1,97.647,107.763Z" transform="translate(-32.056 -34.006)" fill="#ebebeb"/>
      <path id="Caminho_1047" data-name="Caminho 1047" d="M440.86,270.888a3.308,3.308,0,0,1,3.083-1.624H446a3.293,3.293,0,0,1,3.007,1.609l2.135,3.714,12.03-6.977-2.135-3.7a3.293,3.293,0,0,1,.12-3.474,20.4,20.4,0,0,0,1.038-1.8,3.323,3.323,0,0,1,3.007-1.835h4.271V242.844h-4.271a3.308,3.308,0,0,1-3.008-1.819,17.6,17.6,0,0,0-1.037-1.8,3.293,3.293,0,0,1-.12-3.474l2.135-3.714-12.03-6.962L449,228.784a3.293,3.293,0,0,1-3.007,1.624h-2.06a3.353,3.353,0,0,1-3.083-1.624l-2.135-3.714-12.03,6.962,2.135,3.7a3.293,3.293,0,0,1-.12,3.474q-.556.887-1.038,1.8a3.308,3.308,0,0,1-3.007,1.835H420.38V256.8h4.271a3.323,3.323,0,0,1,3.008,1.835,17.6,17.6,0,0,0,1.038,1.8,3.293,3.293,0,0,1,.12,3.474l-2.135,3.7,12.03,6.977Zm-7.323-21.052a11.4,11.4,0,1,0,.015,0Z" transform="translate(141.194 39.011)" fill="#ebebeb"/>
      <path id="Caminho_1048" data-name="Caminho 1048" d="M50.619,144.49a3.293,3.293,0,0,1,1.624,3.083v2.06a3.293,3.293,0,0,1-1.609,3.007l-3.714,2.135,6.977,12.03,3.669-2.03a3.323,3.323,0,0,1,3.474.12c.586.376,1.188.737,1.8,1.053a3.293,3.293,0,0,1,1.835,2.932v4.271H78.618V168.88a3.278,3.278,0,0,1,1.819-2.932,17.694,17.694,0,0,0,1.8-1.053,3.323,3.323,0,0,1,3.474-.12l3.714,2.135,6.962-12.03-3.714-2.15a3.338,3.338,0,0,1-1.624-3.007v-2.045a3.338,3.338,0,0,1,1.624-3.083l3.714-2.135-6.962-12.03-3.7,2.135a3.293,3.293,0,0,1-3.474-.12q-.872-.556-1.8-1.038a3.308,3.308,0,0,1-1.835-3.007V124.13H64.709V128.4a3.323,3.323,0,0,1-1.835,3.007,17.6,17.6,0,0,0-1.8,1.038,3.323,3.323,0,0,1-3.489.12L53.9,130.431,46.92,142.46Zm21.052-7.323A11.428,11.428,0,1,1,60.258,148.6,11.428,11.428,0,0,1,71.671,137.167Z" transform="translate(-46.92 -11.833)" fill="#ebebeb"/>
    </g>
    <g id="freepik--Shadow--inject-4" transform="translate(65.626 655.053)">
      <ellipse id="Elipse_103" data-name="Elipse 103" cx="109.169" cy="15.624" rx="109.169" ry="15.624" fill="#ebebeb"/>
    </g>
    <g id="freepik--Plant--inject-4" transform="translate(500.177 380.367)">
      <path id="Caminho_1049" data-name="Caminho 1049" d="M420.244,361.244c-11.127-22.871-30.6-34.585-52.63-28.134s-25.353,37.1-9.022,44.826,32.766-14.827,41.427-19.473S420.244,361.244,420.244,361.244Z" transform="translate(-348.346 -238.372)" fill="#fff"/>
      <path id="Caminho_1050" data-name="Caminho 1050" d="M427.234,420.305c0-2.752-.165-5.519-.271-8.27-.2-5.5-.376-11.007-.571-16.541-.376-10.06-1.5-19.954-5.639-29.232A45.277,45.277,0,0,0,403.1,345.917a37.2,37.2,0,0,0-9.278-4.015,21.653,21.653,0,0,0-10.842-6.015,44.3,44.3,0,0,0-15.428-.391c-.2,0-.18.316,0,.286a37.458,37.458,0,0,1,14.616,1.038,31.805,31.805,0,0,1,5.88,2.3,28.2,28.2,0,0,1,3.4,2.15,31.578,31.578,0,0,0-13.413.135,29.509,29.509,0,0,0-4.646,1.5,14.482,14.482,0,0,0-3.669-.316,23.073,23.073,0,0,0-4.752.677,35.717,35.717,0,0,0-9.022,3.955c-.165.09,0,.331.15.241a34.1,34.1,0,0,1,8.812-3.323,30.4,30.4,0,0,1,4.511-.662,23.583,23.583,0,0,1,2.526,0,29.127,29.127,0,0,0-14.195,14.15c-.075.165.18.316.256.135a26.736,26.736,0,0,1,18.044-14.5c.481-.12.977-.18,1.5-.286a22.029,22.029,0,0,0-.226,2.21c-.15,1.113-.331,2.225-.556,3.323a57.231,57.231,0,0,1-1.789,6.706,52.846,52.846,0,0,1-2.661,6.481,30.222,30.222,0,0,1-3.714,6.271.15.15,0,1,0,.241.165c1.308-2.06,2.842-3.97,4.045-6.105a44.759,44.759,0,0,0,3.007-6.391,41.941,41.941,0,0,0,1.955-6.857c.256-1.233.436-2.481.587-3.729a8.846,8.846,0,0,0,.135-2.271,30.079,30.079,0,0,1,7.789-.15c-.962,5.458-2.015,11.142-5.068,15.879-.105.165.165.316.256.135a63.147,63.147,0,0,0,3.759-7.8,29.562,29.562,0,0,0,1.895-8.12,35.982,35.982,0,0,1,12.887,4.316,42.645,42.645,0,0,1,17.157,18.766,70.674,70.674,0,0,1,6.361,26.916c.722,11.684.872,23.458,2.045,35.112a.771.771,0,0,0,1.5.15,42.417,42.417,0,0,0,.075-7.684Z" transform="translate(-344.555 -236.533)" fill="#263238"/>
      <path id="Caminho_1051" data-name="Caminho 1051" d="M390.184,343.558a12.932,12.932,0,0,0-2.526-2.346,31.655,31.655,0,0,0-2.827-2.135,21.444,21.444,0,0,0-6.316-3.007c-.18,0-.256.256,0,.286a16.932,16.932,0,0,1,6.24,3.007c.932.692,1.819,1.414,2.692,2.18A15.851,15.851,0,0,0,390,343.709C390.094,343.919,390.3,343.724,390.184,343.558Z" transform="translate(-333.233 -235.994)" fill="#263238"/>
      <path id="Caminho_1052" data-name="Caminho 1052" d="M365.582,346.576a69.184,69.184,0,0,0-5.113,6.752,41.581,41.581,0,0,0-3.789,7.518c0,.075.09.12.135,0a90.535,90.535,0,0,1,9.022-14.135C365.913,346.636,365.7,346.44,365.582,346.576Z" transform="translate(-344.149 -230.726)" fill="#263238"/>
      <path id="Caminho_1053" data-name="Caminho 1053" d="M379.648,345.1a16.538,16.538,0,0,1-1.248,4.135,28.683,28.683,0,0,1-2.12,3.669c0,.075,0,.15.12.09a14.842,14.842,0,0,0,3.534-7.834C379.964,345.005,379.678,344.9,379.648,345.1Z" transform="translate(-334.276 -231.502)" fill="#263238"/>
      <path id="Caminho_1054" data-name="Caminho 1054" d="M402.3,356.4s15.759-19.819,46.164-12.8c28.916,6.676,42.254,59.7,13.052,66.028S437.457,366.927,426.8,358.6C418.991,352.476,407.758,353.8,402.3,356.4Z" transform="translate(-321.17 -232.958)" fill="#fff"/>
      <path id="Caminho_1055" data-name="Caminho 1055" d="M476.815,371.18a60.82,60.82,0,0,0-6.271-4.812,27.743,27.743,0,0,0-6.676-3.338,41.777,41.777,0,0,0-3.97-5.1,40.028,40.028,0,0,0-9.188-7.323h.9a46.986,46.986,0,0,1,4.827,0,27.066,27.066,0,0,1,9.4,2.331c.165,0,.286-.2.12-.256a42.6,42.6,0,0,0-9.368-2.827,26.571,26.571,0,0,0-4.752-.406,24.091,24.091,0,0,0-2.556.15h-.5a40.831,40.831,0,0,0-8.767-3.218l.857-.241a45.109,45.109,0,0,1,4.511-.737,35.563,35.563,0,0,1,9.112.135.15.15,0,0,0,0-.286,58.748,58.748,0,0,0-9.2-.361,38.137,38.137,0,0,0-7.654.992,39.955,39.955,0,0,0-5.534-.632c-10.616-.451-22.18,3.5-28.706,12.225s-7.8,20.36-9.022,30.886a233.761,233.761,0,0,0-1.158,44.224c0,.857,1.293.707,1.308-.12.406-12.5.842-25.007,2.045-37.457.556-5.774,1.158-11.564,2.12-17.278a51.487,51.487,0,0,1,4.2-14.225,25.985,25.985,0,0,1,10.27-11.037,34.584,34.584,0,0,1,14.541-4.511,38.871,38.871,0,0,1,13.639,1.278,9.023,9.023,0,0,0-.075,2.692,15.711,15.711,0,0,0,.677,3.323,16.884,16.884,0,0,0,1.263,3.007c.571,1.037,1.278,1.97,1.91,3.007a.14.14,0,1,0,.226-.165,13.9,13.9,0,0,1-2.361-6.015,26.765,26.765,0,0,1-.361-3.1v-2.361a40.418,40.418,0,0,1,13.278,7.007c.737.6,1.5,1.218,2.15,1.865a15.142,15.142,0,0,0-2.586,3.173,31.581,31.581,0,0,0-2.707,4.812,41.547,41.547,0,0,0-2.812,10.526.144.144,0,1,0,.286,0A30.647,30.647,0,0,1,453.7,367a40.92,40.92,0,0,1,2.692-4.511c.511-.722,1.038-1.5,1.594-2.15.3-.376.632-.767.9-1.173a41.984,41.984,0,0,1,8.631,12.15h0a20.329,20.329,0,0,0-3.534,5.338,46.754,46.754,0,0,0-2.842,6.015,103.616,103.616,0,0,0-3.639,12.391c0,.18.256.241.286,0a52.8,52.8,0,0,1,4.316-12.225c.917-1.895,1.88-3.774,2.887-5.624a54.862,54.862,0,0,0,2.857-5.323,39.217,39.217,0,0,1,3.474,14.09c0,.18.3.165.286,0a49.17,49.17,0,0,0-6.827-21.623,51.989,51.989,0,0,1,5.519,2.526,30.885,30.885,0,0,1,6.316,4.511C476.755,371.526,476.951,371.3,476.815,371.18Z" transform="translate(-326.018 -231.572)" fill="#263238"/>
      <path id="Caminho_1056" data-name="Caminho 1056" d="M435.2,363.14c-.9,3.007-2.06,5.925-2.887,9.022A34.587,34.587,0,0,0,431,381.034c0,.09.135.09.15,0a87.349,87.349,0,0,1,4.361-17.8.164.164,0,0,0-.316-.09Z" transform="translate(-306.713 -222.419)" fill="#263238"/>
      <path id="Caminho_1057" data-name="Caminho 1057" d="M449.575,359.666a16.827,16.827,0,0,0-4.03-2.872,28.562,28.562,0,0,0-4.661-1.654c-.18,0-.241.241,0,.286a17.5,17.5,0,0,1,4.511,1.85,33.528,33.528,0,0,1,4.135,2.541.09.09,0,0,0,.045-.15Z" transform="translate(-301.815 -226.389)" fill="#263238"/>
      <path id="Caminho_1058" data-name="Caminho 1058" d="M412.26,350.5s2.9-35.578,29.352-47.111c22.089-9.624,34.736,15.187,19.127,30.39C448.108,346.083,427.853,340.534,412.26,350.5Z" transform="translate(-316.153 -253.541)" fill="#fff"/>
      <path id="Caminho_1059" data-name="Caminho 1059" d="M461.069,308.186a112.309,112.309,0,0,0-11.774,5.579,88.109,88.109,0,0,0-9.128,6.015c.436-.9.812-1.835,1.263-2.722.692-1.368,1.429-2.722,2.241-4.015a37.447,37.447,0,0,1,5.834-7.383c.135-.12-.09-.331-.211-.2a56.526,56.526,0,0,0-6.135,7.143,42.644,42.644,0,0,0-2.511,4.015,16.54,16.54,0,0,0-1.789,4.105l-.286.211a86.867,86.867,0,0,0-12.631,12.36c.075-.346.135-.692.241-1.022.5-1.729,1.023-3.458,1.594-5.173a44.786,44.786,0,0,1,4.782-10.376c.105-.15-.15-.3-.256-.135a83.523,83.523,0,0,0-5.534,10.12,38.241,38.241,0,0,0-1.835,5.263,22.651,22.651,0,0,0-.857,3.579c-1.158,1.5-2.286,2.932-3.353,4.511-11.353,16.165-17.052,35.713-18.42,55.291a170.188,170.188,0,0,0-.3,17.518,109.432,109.432,0,0,0,1.5,17.593c.075.376.647.256.647-.105-.135-5.143-.662-10.255-.767-15.4a151.533,151.533,0,0,1,.5-15.458,143.133,143.133,0,0,1,5.774-30.27,108.476,108.476,0,0,1,13.443-28.48c1.113-.226,2.226-.526,3.323-.812s2.647-.677,3.955-1.038a39.665,39.665,0,0,0,7.368-2.707.142.142,0,0,0-.151-.241,23.832,23.832,0,0,1-7.518,2.571c-2.075.421-4.225.677-6.3,1.158,1.925-2.8,3.97-5.5,6.15-8.09a46.107,46.107,0,0,0,15.037-1.113,61.742,61.742,0,0,0,7.7-2.406c2.662-1.022,5.158-2.331,7.774-3.428a.141.141,0,1,0-.12-.256,44.161,44.161,0,0,1-15.248,4.992,92.735,92.735,0,0,1-14.27,1.173c1.88-2.15,3.819-4.255,5.895-6.225,6.947-6.616,15.2-12.691,24.345-15.864C461.325,308.412,461.235,308.126,461.069,308.186Z" transform="translate(-321.369 -251.433)" fill="#263238"/>
      <path id="Caminho_1060" data-name="Caminho 1060" d="M428.8,307.358a39.388,39.388,0,0,0-3.248,4.737,26.2,26.2,0,0,0-2.331,5.519s0,.105.105,0c.887-1.744,1.624-3.564,2.526-5.293a26.291,26.291,0,0,1,3.158-4.812C429.13,307.4,428.9,307.208,428.8,307.358Z" transform="translate(-310.632 -250.484)" fill="#263238"/>
      <path id="Caminho_1061" data-name="Caminho 1061" d="M446.978,315.216a26.4,26.4,0,0,1-5.428,2.271,50.689,50.689,0,0,1-5.519,1.5c-.09,0-.075.165,0,.15a26.688,26.688,0,0,0,5.729-1.248,50.155,50.155,0,0,0,5.353-2.406A.151.151,0,0,0,446.978,315.216Z" transform="translate(-304.21 -246.508)" fill="#263238"/>
      <path id="Caminho_1062" data-name="Caminho 1062" d="M418.154,360.1c-.165,1.5-4-12.932-26.375-25.758-20.3-11.654-44.555-41.968-24.631-61.126C383.223,257.762,425.582,291.46,418.154,360.1Z" transform="translate(-342.617 -269.517)" fill="#fff"/>
      <path id="Caminho_1063" data-name="Caminho 1063" d="M427.779,439a395.14,395.14,0,0,0-3.549-44.916,202.161,202.161,0,0,0-9.458-40.254c-1.654-4.707-3.564-9.323-5.624-13.879a32.984,32.984,0,0,0-.09-5.323c-.105-2.286-.316-4.511-.526-6.827s-.436-4.511-.707-6.812-.752-4.511-.842-6.782a.15.15,0,1,0-.286,0,48.213,48.213,0,0,1,.8,7.2q.271,3.293.361,6.586c.075,2.21,0,4.406,0,6.616,0,.782,0,1.624-.075,2.481-2.09-4.511-4.346-8.827-6.8-13.082,1.5-9.278-.451-18.977-2.346-28.044,0-.18-.316-.09-.271.09a79.407,79.407,0,0,1,1.5,14.375c.09,3.8-.09,7.609-.105,11.413-.541-.9-1.068-1.819-1.624-2.722-2.9-4.737-6.015-9.383-9.293-13.879a21.594,21.594,0,0,0-.211-6.6,51.828,51.828,0,0,0-1.624-7.233,68.762,68.762,0,0,0-2.481-6.977c-.977-2.286-2.256-4.586-3.188-6.932-.09-.211-.376,0-.271.105a33.382,33.382,0,0,1,2.8,7.022,61.574,61.574,0,0,1,1.834,6.962c.481,2.346.857,4.707,1.188,7.1.226,1.5.361,3.2.632,4.782a172.416,172.416,0,0,0-15.654-18.225c-.135-.135-.331.075-.211.211A206.386,206.386,0,0,1,394.411,316.4l.707,1.233c-1.233-.767-2.647-1.383-3.8-2.03l-6.511-3.579-6.346-3.458c-1.083-.6-2.15-1.233-3.263-1.8a25.79,25.79,0,0,1-3.789-2.09.14.14,0,1,0-.165.225c2.15,1.188,4.06,3.007,6.135,4.271s4.21,2.616,6.391,3.834c3.97,2.21,8.285,3.8,12.21,6.105q4.06,7.128,7.519,14.6c-2.376-1.5-4.8-3.007-7.263-4.361-1.579-.887-3.173-1.759-4.782-2.6a24.152,24.152,0,0,1-4.511-2.722.15.15,0,0,0-.2.211,42.1,42.1,0,0,0,8.6,6.015c2.872,1.684,5.774,3.308,8.766,4.767q3.579,7.879,6.466,16.014c9.413,26.661,12.872,54.96,14.526,83.065.5,8.376.752,16.751.857,25.142s-.346,16.751-.331,25.127a.227.227,0,0,0,.451,0c1.008-7.428,1.173-15.037,1.5-22.465S427.944,446.622,427.779,439Z" transform="translate(-336.844 -265.542)" fill="#263238"/>
      <path id="Caminho_1064" data-name="Caminho 1064" d="M389.581,309.068a108.263,108.263,0,0,1-11.879-6.135,130.056,130.056,0,0,1-11.293-7.173s-.12,0-.075.105a96.541,96.541,0,0,0,10.842,7.518,109.328,109.328,0,0,0,12.27,5.88C389.626,309.4,389.761,309.143,389.581,309.068Z" transform="translate(-339.291 -256.299)" fill="#263238"/>
      <path id="Caminho_1065" data-name="Caminho 1065" d="M386.9,286.872c-.331-1.293-.737-2.571-1.173-3.834a.15.15,0,0,0,0-.15c-.286-.722-.587-1.5-.872-2.15l-.105-.271c0-.135-.12-.271-.165-.406s-.09,0-.075,0,.135.5.211.737a4.168,4.168,0,0,0,.12.406,104.8,104.8,0,0,1,3.323,15.187c0,.165.271.165.256,0A51.457,51.457,0,0,0,386.9,286.872Z" transform="translate(-330.132 -264.237)" fill="#263238"/>
      <path id="Caminho_1066" data-name="Caminho 1066" d="M446.416,388.47l-1.594,18.917-4.887,57.7H387.591l-4.887-57.7L381.11,388.47Z" transform="translate(-331.843 -209.6)" fill="#37474f"/>
      <path id="Caminho_1067" data-name="Caminho 1067" d="M446.416,388.47l-1.594,18.917H382.7L381.11,388.47Z" transform="translate(-331.843 -209.6)" fill="#263238"/>
      <rect id="Retângulo_527" data-name="Retângulo 527" width="75.576" height="18.15" transform="translate(44.124 171.276)" fill="#37474f"/>
    </g>
    <g id="freepik--Floor--inject-4" transform="translate(47.702 635.099)">
      <path id="Caminho_1068" data-name="Caminho 1068" d="M47.44,439.672l76.148-.361,76.148-.135,152.3-.256,152.3.241,76.148.135,76.148.376-76.148.361-76.148.135-152.3.256-152.3-.256-76.148-.135Z" transform="translate(-47.44 -438.92)" fill="#263238"/>
    </g>
    <g id="freepik--Device--inject-4" transform="translate(199.455 60.156)">
      <path id="Caminho_1069" data-name="Caminho 1069" d="M428.275,56.57H174.149A25.954,25.954,0,0,0,148.36,82.78v523.29a25.969,25.969,0,0,0,25.728,26.195H428.215a26,26,0,0,0,25.819-26.195V82.78a25.984,25.984,0,0,0-25.759-26.21Zm9.669,533.32c0,13.774-10.315,24.916-23.037,24.916H187.5c-12.751,0-23.067-11.142-23.067-24.916V102.6c0-28.059,10.315-29.428,23.067-29.428h45.547c2.647,0,4.812,3.007,4.812,6.737v1.609c0,8.782,4.782,8.782,10.706,8.782H353.827c5.91,0,10.661,0,10.661-8.767V79.908c0-3.729,2.12-6.737,4.812-6.737h45.562c12.721,0,23.037,3.729,23.037,29.428Z" transform="translate(-148.359 -56.57)" fill="#263238"/>
      <path id="Caminho_1070" data-name="Caminho 1070" d="M269.77,72.919H241.034a1.774,1.774,0,0,1-1.774-1.774h0a1.774,1.774,0,0,1,1.774-1.774H269.77a1.774,1.774,0,0,1,1.774,1.774h0A1.774,1.774,0,0,1,269.77,72.919Z" transform="translate(-102.572 -50.123)" fill="#fff"/>
      <path id="Caminho_1071" data-name="Caminho 1071" d="M432.649,97.038V584.329c0,13.774-10.315,24.916-23.037,24.916h-227.5c-12.751,0-23.067-11.142-23.067-24.916V97.038c0-28.059,10.315-29.428,23.067-29.428h45.547c2.647,0,4.812,3.007,4.812,6.737v1.609c0,8.782,4.782,8.782,10.706,8.782H348.442c5.925,0,10.661,0,10.661-8.767V74.347c0-3.729,2.135-6.737,4.827-6.737h45.562C422.259,67.61,432.649,71.339,432.649,97.038Z" transform="translate(-142.974 -51.009)" fill="#fff"/>
      <path id="Caminho_1072" data-name="Caminho 1072" d="M180.17,104.622l-8.09-7.564,8.09-7.579,1.248,1.338-6.646,6.24,6.646,6.24Z" transform="translate(-136.411 -39.993)" fill="#c7c7c7"/>
      <path id="Caminho_1073" data-name="Caminho 1073" d="M327.928,91.914a1.579,1.579,0,1,1-.462-1.132A1.594,1.594,0,0,1,327.928,91.914Z" transform="translate(-59.515 -39.57)" fill="#c7c7c7"/>
      <path id="Caminho_1074" data-name="Caminho 1074" d="M327.928,95.674a1.579,1.579,0,1,1-.462-1.132A1.594,1.594,0,0,1,327.928,95.674Z" transform="translate(-59.515 -37.676)" fill="#c7c7c7"/>
      <path id="Caminho_1075" data-name="Caminho 1075" d="M327.928,99.434a1.579,1.579,0,1,1-.462-1.132A1.594,1.594,0,0,1,327.928,99.434Z" transform="translate(-59.515 -35.782)" fill="#c7c7c7"/>
      <g id="freepik--u5Zjqx--inject-4" transform="translate(66.976 25.533)">
        <path id="Caminho_1076" data-name="Caminho 1076" d="M202.749,75.565l-.436.436-.256.241a6.015,6.015,0,0,0-8.481,0l-.241-.256-.436-.436h0l.556-.5a7.759,7.759,0,0,1,1.293-.812,6.225,6.225,0,0,1,1.714-.571,7.517,7.517,0,0,1,.842-.12h1.323a7.1,7.1,0,0,1,1.579.376,7.43,7.43,0,0,1,1.053.5,6.735,6.735,0,0,1,1.007.707l.466.421Z" transform="translate(-192.9 -73.55)" fill="#c7c7c7"/>
        <path id="Caminho_1077" data-name="Caminho 1077" d="M194.517,76.982l-.707-.692a5.037,5.037,0,0,1,7.1,0l-.707.692a4.03,4.03,0,0,0-5.684,0Z" transform="translate(-192.442 -72.906)" fill="#c7c7c7"/>
        <path id="Caminho_1078" data-name="Caminho 1078" d="M199.071,77.049l-.692.677a2.105,2.105,0,0,0-1.5-.6,2.045,2.045,0,0,0-1.5.617c-.226-.241-.466-.466-.692-.692a3.007,3.007,0,0,1,4.391,0Z" transform="translate(-192.003 -72.267)" fill="#c7c7c7"/>
        <path id="Caminho_1079" data-name="Caminho 1079" d="M197.008,77.807a.632.632,0,0,1-.632.632.627.627,0,1,1,.632-.632Z" transform="translate(-191.459 -71.717)" fill="#c7c7c7"/>
      </g>
      <path id="Caminho_1080" data-name="Caminho 1080" d="M170.91,76.379a1.8,1.8,0,1,1,.523,1.286,1.819,1.819,0,0,1-.523-1.286Z" transform="translate(-137 -47.508)" fill="#c7c7c7"/>
      <path id="Caminho_1081" data-name="Caminho 1081" d="M174.7,76.369a1.82,1.82,0,1,1,.522,1.306A1.82,1.82,0,0,1,174.7,76.369Z" transform="translate(-135.091 -47.498)" fill="#c7c7c7"/>
      <path id="Caminho_1082" data-name="Caminho 1082" d="M178.5,76.369a1.819,1.819,0,1,1,.522,1.306A1.82,1.82,0,0,1,178.5,76.369Z" transform="translate(-133.177 -47.498)" fill="#c7c7c7"/>
      <path id="Caminho_1083" data-name="Caminho 1083" d="M182.3,76.369a1.8,1.8,0,1,1,.512,1.305,1.819,1.819,0,0,1-.512-1.305Z" transform="translate(-131.263 -47.498)" fill="#c7c7c7"/>
      <path id="Caminho_1084" data-name="Caminho 1084" d="M186.1,76.369a1.8,1.8,0,1,1,.512,1.305,1.819,1.819,0,0,1-.512-1.305Z" transform="translate(-129.349 -47.498)" fill="#c7c7c7"/>
      <path id="Caminho_1085" data-name="Caminho 1085" d="M332.261,80.707H317.48V73.85h14.781Zm-14-.767h13.233V74.617H318.262Z" transform="translate(-63.172 -47.866)" fill="#c7c7c7"/>
      <rect id="Retângulo_528" data-name="Retângulo 528" width="9.518" height="4.511" transform="translate(255.541 27.157)" fill="#c7c7c7"/>
      <rect id="Retângulo_529" data-name="Retângulo 529" width="1.308" height="3.654" transform="translate(269.089 27.578)" fill="#c7c7c7"/>
      <path id="Caminho_1086" data-name="Caminho 1086" d="M192.991,411.259H190.9v9.549h-3.88v-4.872h-6.887v4.872h-3.88v-9.549H174.18l9.4-9.729Z" transform="translate(-135.353 117.188)" fill="#ebebeb"/>
      <rect id="Retângulo_530" data-name="Retângulo 530" width="22.676" height="3.233" transform="translate(244.188 518.719)" fill="#ebebeb"/>
      <rect id="Retângulo_531" data-name="Retângulo 531" width="22.676" height="3.233" transform="translate(244.188 526.733)" fill="#ebebeb"/>
      <rect id="Retângulo_532" data-name="Retângulo 532" width="22.676" height="3.233" transform="translate(244.188 534.748)" fill="#ebebeb"/>
      <path id="Caminho_1087" data-name="Caminho 1087" d="M258.612,407.433l-6.451,6.887-6.451-6.887,1.143-1.053,5.308,5.654,5.308-5.654Z" transform="translate(-99.323 119.632)" fill="#ebebeb"/>
      <path id="Caminho_1088" data-name="Caminho 1088" d="M253.924,424.238a11.714,11.714,0,1,1,11.714-11.714,11.714,11.714,0,0,1-11.714,11.714Zm0-21.879a10.165,10.165,0,1,0,10.165,10.165,10.165,10.165,0,0,0-10.165-10.165Z" transform="translate(-101.086 116.826)" fill="#ebebeb"/>
      <path id="Caminho_1089" data-name="Caminho 1089" d="M240.989,381.92a3.895,3.895,0,1,1-1.141-2.769,3.91,3.91,0,0,1,1.141,2.769Z" transform="translate(-105.639 105.341)" fill="#dbdbdb"/>
      <path id="Caminho_1090" data-name="Caminho 1090" d="M258.189,382.595a5.925,5.925,0,1,1-5.925-5.925A5.925,5.925,0,0,1,258.189,382.595Z" transform="translate(-99.006 104.666)" fill="#fff"/>
      <path id="Caminho_1091" data-name="Caminho 1091" d="M270.009,381.92a3.895,3.895,0,1,1-1.141-2.769,3.91,3.91,0,0,1,1.141,2.769Z" transform="translate(-91.022 105.341)" fill="#dbdbdb"/>
      <rect id="Retângulo_533" data-name="Retângulo 533" width="105.53" height="33.563" transform="translate(99.231 378.333)" fill="#fff"/>
      <path id="Caminho_1092" data-name="Caminho 1092" d="M234,325.764v-9.022a.827.827,0,0,1,.842-.842.842.842,0,0,1,.857.842v8.225h4.18a.857.857,0,1,1,0,1.714h-5.037a.842.842,0,0,1-.842-.917Z" transform="translate(-105.222 74.056)" fill="#fff"/>
      <path id="Caminho_1093" data-name="Caminho 1093" d="M248.007,317.294a5.639,5.639,0,0,1,0,7.789,4.992,4.992,0,0,1-3.669,1.654,5.158,5.158,0,0,1-3.774-1.654,5.714,5.714,0,0,1,0-7.789,5.1,5.1,0,0,1,3.774-1.654,4.947,4.947,0,0,1,3.669,1.654Zm-.2,3.895a3.969,3.969,0,0,0-1.052-2.691,3.308,3.308,0,0,0-2.421-1.1,3.353,3.353,0,0,0-2.5,1.1,3.91,3.91,0,0,0-1.053,2.692,3.834,3.834,0,0,0,1.053,2.677,3.368,3.368,0,0,0,2.5,1.113,3.323,3.323,0,0,0,2.421-1.113,3.909,3.909,0,0,0,.992-2.677Z" transform="translate(-102.687 73.925)" fill="#fff"/>
      <path id="Caminho_1094" data-name="Caminho 1094" d="M247.7,321.2a5.7,5.7,0,0,1,9.2-4.361.878.878,0,1,1-1.083,1.383,3.955,3.955,0,0,0-2.421-.827,3.849,3.849,0,0,0-2.782,1.128,3.639,3.639,0,0,0,0,5.323,3.85,3.85,0,0,0,2.782,1.128,4.18,4.18,0,0,0,2.105-.586v-2.105h-2.21a.9.9,0,0,1-.872-.887.872.872,0,0,1,.872-.857H256.3a.872.872,0,0,1,.9.857v3.413a1.292,1.292,0,0,1,0,.256h0a.722.722,0,0,1-.3.376,5.684,5.684,0,0,1-9.188-4.331Z" transform="translate(-98.321 73.924)" fill="#fff"/>
      <path id="Caminho_1095" data-name="Caminho 1095" d="M256.44,316.692a.827.827,0,0,1,.842-.842.857.857,0,0,1,.872.842v9.022a.872.872,0,0,1-.872.842.827.827,0,0,1-.842-.842Z" transform="translate(-93.918 74.031)" fill="#fff"/>
      <path id="Caminho_1096" data-name="Caminho 1096" d="M261.184,325.769a.842.842,0,0,1-1.684,0v-9.022h0a.857.857,0,0,1,.346-.707.872.872,0,0,1,1.173.181L266,323.108v-6.3a.827.827,0,0,1,.827-.827.842.842,0,0,1,.842.827v9.022a.857.857,0,0,1-.842.842.812.812,0,0,1-.632-.316l-.075-.09-4.932-6.842Z" transform="translate(-92.377 74.051)" fill="#fff"/>
      <path id="Caminho_1097" data-name="Caminho 1097" d="M284.126,144.492v10.992h-7.774V144.492c0-10.526-7.955-18.962-17.729-18.962s-17.729,8.5-17.729,18.962V172.01H233V144.492c0-15.037,11.443-27.172,25.563-27.172S284.126,129.515,284.126,144.492Z" transform="translate(-105.725 -25.97)" fill="#c7c7c7"/>
      <path id="Caminho_1098" data-name="Caminho 1098" d="M233.04,142.72l7.774.316v16.18H233.04Z" transform="translate(-105.705 -13.176)" fill="#a6a6a6"/>
      <rect id="Retângulo_534" data-name="Retângulo 534" width="70.945" height="64.359" transform="translate(117.366 136.822)" fill="#fff"/>
      <rect id="Retângulo_535" data-name="Retângulo 535" width="35.472" height="64.359" transform="translate(152.838 136.822)" opacity="0.1"/>
      <path id="Caminho_1099" data-name="Caminho 1099" d="M255.214,174.443l3.007,14.075h-12.6l3.007-14.075a6.316,6.316,0,1,1,6.661,0Z" transform="translate(-99.368 -3.081)" fill="#263238"/>
      <rect id="Retângulo_536" data-name="Retângulo 536" width="182.715" height="31.277" transform="translate(61.488 272.201)" fill="#fff"/>
      <path id="Caminho_1100" data-name="Caminho 1100" d="M372.954,269.871H188.75V237.09h184.2Zm-182.7-1.5h181.2V238.594h-181.2Z" transform="translate(-128.014 34.359)" fill="#ebebeb"/>
      <rect id="Retângulo_537" data-name="Retângulo 537" width="1.504" height="13.368" transform="translate(78.946 280.832)" fill="#37474f"/>
      <rect id="Retângulo_538" data-name="Retângulo 538" width="13.368" height="1.504" transform="translate(73.021 286.757)" fill="#37474f"/>
      <rect id="Retângulo_539" data-name="Retângulo 539" width="13.368" height="1.504" transform="matrix(0.707, -0.707, 0.707, 0.707, 74.445, 291.691)" fill="#37474f"/>
      <rect id="Retângulo_540" data-name="Retângulo 540" width="1.504" height="13.368" transform="translate(74.436 283.315) rotate(-45)" fill="#37474f"/>
      <rect id="Retângulo_541" data-name="Retângulo 541" width="1.504" height="13.368" transform="translate(101.622 280.832)" fill="#37474f"/>
      <rect id="Retângulo_542" data-name="Retângulo 542" width="13.368" height="1.504" transform="translate(95.697 286.757)" fill="#37474f"/>
      <rect id="Retângulo_543" data-name="Retângulo 543" width="13.368" height="1.504" transform="matrix(0.707, -0.707, 0.707, 0.707, 97.116, 291.707)" fill="#37474f"/>
      <rect id="Retângulo_544" data-name="Retângulo 544" width="1.504" height="13.368" transform="translate(97.117 283.31) rotate(-45)" fill="#37474f"/>
      <rect id="Retângulo_545" data-name="Retângulo 545" width="1.504" height="13.368" transform="translate(124.298 280.832)" fill="#37474f"/>
      <rect id="Retângulo_546" data-name="Retângulo 546" width="13.368" height="1.504" transform="translate(118.373 286.757)" fill="#37474f"/>
      <rect id="Retângulo_547" data-name="Retângulo 547" width="13.368" height="1.504" transform="matrix(0.707, -0.707, 0.707, 0.707, 119.787, 291.708)" fill="#37474f"/>
      <rect id="Retângulo_548" data-name="Retângulo 548" width="1.504" height="13.368" transform="translate(119.798 283.305) rotate(-45)" fill="#37474f"/>
      <rect id="Retângulo_549" data-name="Retângulo 549" width="1.504" height="13.368" transform="translate(146.989 280.832)" fill="#37474f"/>
      <rect id="Retângulo_550" data-name="Retângulo 550" width="13.368" height="1.504" transform="translate(141.049 286.757)" fill="#37474f"/>
      <rect id="Retângulo_551" data-name="Retângulo 551" width="13.368" height="1.504" transform="matrix(0.707, -0.707, 0.707, 0.707, 142.473, 291.709)" fill="#37474f"/>
      <rect id="Retângulo_552" data-name="Retângulo 552" width="1.504" height="13.368" transform="translate(142.489 283.32) rotate(-45)" fill="#37474f"/>
      <rect id="Retângulo_553" data-name="Retângulo 553" width="1.504" height="13.368" transform="translate(169.664 280.832)" fill="#37474f"/>
      <rect id="Retângulo_554" data-name="Retângulo 554" width="13.368" height="1.504" transform="translate(163.725 286.757)" fill="#37474f"/>
      <rect id="Retângulo_555" data-name="Retângulo 555" width="13.368" height="1.504" transform="matrix(0.707, -0.707, 0.707, 0.707, 165.144, 291.71)" fill="#37474f"/>
      <rect id="Retângulo_556" data-name="Retângulo 556" width="1.504" height="13.368" transform="translate(165.155 283.3) rotate(-45)" fill="#37474f"/>
      <rect id="Retângulo_557" data-name="Retângulo 557" width="1.504" height="13.368" transform="translate(192.34 280.832)" fill="#37474f"/>
      <rect id="Retângulo_558" data-name="Retângulo 558" width="13.368" height="1.504" transform="translate(186.416 286.757)" fill="#37474f"/>
      <rect id="Retângulo_559" data-name="Retângulo 559" width="13.368" height="1.504" transform="matrix(0.707, -0.707, 0.707, 0.707, 187.826, 291.7)" fill="#37474f"/>
      <rect id="Retângulo_560" data-name="Retângulo 560" width="1.504" height="13.368" transform="translate(187.836 283.295) rotate(-45)" fill="#37474f"/>
      <path id="Caminho_1101" data-name="Caminho 1101" d="M303.276,254.487a11.172,11.172,0,0,1-8.316-4.511l-.331-.451.331-.436a9.954,9.954,0,0,1,16.541,0l.316.436-.316.451A11.157,11.157,0,0,1,303.276,254.487Zm-6.737-4.9a8.361,8.361,0,0,0,13.533,0,8.361,8.361,0,0,0-13.533,0Z" transform="translate(-74.682 38.179)" fill="#ebebeb"/>
      <circle id="Elipse_104" data-name="Elipse 104" cx="3.383" cy="3.383" r="3.383" transform="translate(225.196 284.381)" fill="#ebebeb"/>
      <rect id="Retângulo_561" data-name="Retângulo 561" width="16.992" height="1.504" transform="translate(222.138 292.994) rotate(-45)" fill="#ebebeb"/>
      <path id="Caminho_1102" data-name="Caminho 1102" d="M218.861,218.728h-2.406v4.225a1.083,1.083,0,0,1-2.165,0v-11.5a1.068,1.068,0,0,1,1.083-1.068h3.489a4.18,4.18,0,1,1,0,8.346Zm-2.406-2.165h2.406a2.015,2.015,0,1,0,0-4.015h-2.406Z" transform="translate(-115.149 20.903)" fill="#fff"/>
      <path id="Caminho_1103" data-name="Caminho 1103" d="M228.191,220.776h-4.737l-.962,2.541a1.113,1.113,0,0,1-1.007.677,1.037,1.037,0,0,1-.376,0,1.1,1.1,0,0,1-.647-1.4l4.316-11.488a1.113,1.113,0,0,1,1.038-.677,1.068,1.068,0,0,1,1.022.677l4.316,11.488a1.1,1.1,0,0,1-.647,1.4.9.9,0,0,1-.376,0,1.068,1.068,0,0,1-.992-.677Zm-.8-2.135-1.579-4.2-1.5,4.2Z" transform="translate(-112.073 20.93)" fill="#fff"/>
      <path id="Caminho_1104" data-name="Caminho 1104" d="M228.884,220.756a1.007,1.007,0,0,1,1.5-.135,6.361,6.361,0,0,0,3.729,1.5,4.18,4.18,0,0,0,2.436-.722,1.744,1.744,0,0,0,.842-1.4,1.067,1.067,0,0,0-.18-.617,1.954,1.954,0,0,0-.586-.586,7.623,7.623,0,0,0-2.677-.917h0a10.524,10.524,0,0,1-2.526-.767,4.15,4.15,0,0,1-1.8-1.5,2.9,2.9,0,0,1-.451-1.594,3.624,3.624,0,0,1,1.5-2.857,5.759,5.759,0,0,1,3.368-1.023,7.714,7.714,0,0,1,4.256,1.5.992.992,0,0,1,.271,1.383.977.977,0,0,1-1.383.3,5.669,5.669,0,0,0-3.143-1.248,3.714,3.714,0,0,0-2.18.662,1.5,1.5,0,0,0-.737,1.233.887.887,0,0,0,.135.541,1.894,1.894,0,0,0,.526.511,6.737,6.737,0,0,0,2.436.857h0a12.03,12.03,0,0,1,2.692.812,4.617,4.617,0,0,1,1.955,1.624,3.218,3.218,0,0,1,.466,1.654,3.774,3.774,0,0,1-1.684,3.007,6.014,6.014,0,0,1-3.594,1.113,8.33,8.33,0,0,1-4.992-1.955A1.022,1.022,0,0,1,228.884,220.756Z" transform="translate(-107.895 20.784)" fill="#fff"/>
      <path id="Caminho_1105" data-name="Caminho 1105" d="M237.424,220.756a.992.992,0,0,1,1.414-.135,6.361,6.361,0,0,0,3.729,1.5A4.151,4.151,0,0,0,245,221.4a1.744,1.744,0,0,0,.842-1.4,1.068,1.068,0,0,0-.18-.617,1.8,1.8,0,0,0-.586-.586,7.517,7.517,0,0,0-2.662-.917h0a10.224,10.224,0,0,1-2.511-.767,4.27,4.27,0,0,1-1.819-1.5,3.007,3.007,0,0,1-.451-1.594,3.624,3.624,0,0,1,1.5-2.857,5.759,5.759,0,0,1,3.368-1.022,7.714,7.714,0,0,1,4.256,1.5.992.992,0,0,1,.271,1.383.977.977,0,0,1-1.383.3,5.669,5.669,0,0,0-3.143-1.248,3.714,3.714,0,0,0-2.18.662,1.5,1.5,0,0,0-.737,1.233.887.887,0,0,0,.135.541,1.9,1.9,0,0,0,.526.511,6.857,6.857,0,0,0,2.436.857h0a12.03,12.03,0,0,1,2.692.812,4.512,4.512,0,0,1,1.94,1.624,3.007,3.007,0,0,1,.466,1.654,3.759,3.759,0,0,1-1.669,3.007,6.014,6.014,0,0,1-3.609,1.113,8.331,8.331,0,0,1-4.992-1.955,1.038,1.038,0,0,1-.09-1.384Z" transform="translate(-103.608 20.784)" fill="#fff"/>
      <path id="Caminho_1106" data-name="Caminho 1106" d="M264,211.947,259.222,223.3a.436.436,0,0,1-.105.18h0a.146.146,0,0,1-.09.12h0l-.135.09h0a.391.391,0,0,1-.18.12h-.767a.286.286,0,0,1-.165-.12h0l-.135-.09h0a.15.15,0,0,0-.075-.12h0a.647.647,0,0,1,0-.18l-2.556-6.015-2.556,6.015s0,.135-.075.18h0l-.12.12h0a.362.362,0,0,0-.12.09h0l-.15.12h0a.36.36,0,0,0-.15,0h-.632a.481.481,0,0,1-.18-.12h0a.178.178,0,0,1-.135-.09h0l-.09-.12h0a.221.221,0,0,0-.105-.18l-4.8-11.368a1.068,1.068,0,0,1,1.97-.812l3.819,9.022,2.526-6.015a1.083,1.083,0,0,1,1.007-.662,1.143,1.143,0,0,1,1.023.662l2.511,6.015,3.8-9.022a1.083,1.083,0,0,1,1.413-.571A1.068,1.068,0,0,1,264,211.947Z" transform="translate(-99.256 20.947)" fill="#fff"/>
      <path id="Caminho_1107" data-name="Caminho 1107" d="M270.807,212.2a7.173,7.173,0,0,1,0,9.879,6.391,6.391,0,0,1-4.661,2.075,6.631,6.631,0,0,1-4.782-2.075,7.308,7.308,0,0,1,0-9.879,6.571,6.571,0,0,1,4.782-2.075A6.33,6.33,0,0,1,270.807,212.2Zm-.256,4.932a5.023,5.023,0,0,0-1.324-3.4,4.15,4.15,0,0,0-3.082-1.383,4.226,4.226,0,0,0-3.158,1.383,4.962,4.962,0,0,0-1.323,3.4,4.9,4.9,0,0,0,1.323,3.4,4.286,4.286,0,0,0,3.158,1.4,4.225,4.225,0,0,0,3.083-1.4,4.977,4.977,0,0,0,1.263-3.4Z" transform="translate(-92.406 20.774)" fill="#fff"/>
      <path id="Caminho_1108" data-name="Caminho 1108" d="M279.938,222.43a1.053,1.053,0,0,1-.677,1.353,1.354,1.354,0,0,1-.436,0h0a1.338,1.338,0,0,1-.752-.211,1.819,1.819,0,0,1-.632-.677,5.338,5.338,0,0,1-.406-2.346,1.638,1.638,0,0,0-.241-.842,1.609,1.609,0,0,0-.586-.556,3.565,3.565,0,0,0-1.083-.466h-2.3v4.225a1.083,1.083,0,0,1-1.1,1.068,1.068,1.068,0,0,1-1.068-1.068v-11.5a1.053,1.053,0,0,1,1.068-1.068h3.489a4.165,4.165,0,0,1,2.662,7.383,3.461,3.461,0,0,1,.677.722,3.715,3.715,0,0,1,.647,2.105,4.21,4.21,0,0,0,.075,1.158A.992.992,0,0,1,279.938,222.43Zm-2.752-7.849a2,2,0,0,0-2.015-2.015H272.78v4.015h2.391a2.015,2.015,0,0,0,2.015-2Z" transform="translate(-86.756 20.885)" fill="#fff"/>
      <path id="Caminho_1109" data-name="Caminho 1109" d="M278.94,222.951v-11.5a1.053,1.053,0,0,1,1.068-1.068h2.3a6.827,6.827,0,0,1,0,13.639h-2.3A1.068,1.068,0,0,1,278.94,222.951Zm2.165-1.1h1.2a4.661,4.661,0,0,0,0-9.308h-1.2Z" transform="translate(-82.585 20.905)" fill="#fff"/>
    </g>
    <g id="freepik--Shield--inject-4" transform="translate(472.138 74.742)">
      <path id="Caminho_1110" data-name="Caminho 1110" d="M486.607,117.411s-11.473,91.816-30.33,112.477c-22.556,24.781-39.1,21.157-48.119,33.939h0c-9.143-12.8-25.563-9.158-48.119-33.954-18.857-20.661-30.3-112.477-30.3-112.477,49.622-24.059,78.494-51.126,78.494-51.126h0C408.985,67.127,437.706,93.683,486.607,117.411Z" transform="translate(-329.68 -66.27)" fill="#37474f"/>
      <path id="Caminho_1111" data-name="Caminho 1111" d="M408.118,66.3V263.827h0c-9.143-12.8-25.563-9.158-48.119-33.954C341.143,209.212,329.7,117.4,329.7,117.4c49.622-24.059,78.494-51.126,78.494-51.126Z" transform="translate(-329.7 -66.27)" fill="#455a64"/>
      <path id="Caminho_1112" data-name="Caminho 1112" d="M470.417,119.671s-9.684,77.561-25.563,95.019c-19.142,20.962-33.082,17.879-40.735,28.676-7.714-10.8-21.593-7.714-40.735-28.676-15.909-17.458-25.563-95.019-25.563-95.019,41.953-20.375,66.313-43.2,66.313-43.2S428.388,99.3,470.417,119.671Z" transform="translate(-325.61 -61.132)" fill="#455a64"/>
      <path id="Caminho_1113" data-name="Caminho 1113" d="M337.75,119.682s9.684,77.546,25.563,95.019c19.112,20.947,32.976,17.894,40.705,28.661V76.45C403.327,77.277,379.057,99.622,337.75,119.682Z" transform="translate(-325.645 -61.142)" fill="#37474f"/>
      <circle id="Elipse_105" data-name="Elipse 105" cx="30.751" cy="30.751" r="30.751" transform="translate(34.941 98.79) rotate(-45)" fill="#fff"/>
      <path id="Caminho_1114" data-name="Caminho 1114" d="M384.109,157.389l-13.7-14.24,5.083-4.887,7.549,7.849,16.27-24.962,5.91,3.849Z" transform="translate(-309.194 -38.627)" fill="#fff"/>
    </g>
    <g id="freepik--Character--inject-4" transform="translate(48.592 129.577)">
      <rect id="Retângulo_562" data-name="Retângulo 562" width="105.5" height="21.849" transform="translate(154.127 217.05) rotate(180)" fill="#c7c7c7"/>
      <path id="Caminho_1115" data-name="Caminho 1115" d="M131.7,246.96l2.947,27.924,36.48,261.4h10.421l-28.781-261.4-2.331-27.924Z" transform="translate(-5.887 -30.09)" fill="#c7c7c7"/>
      <path id="Caminho_1116" data-name="Caminho 1116" d="M66.03,536.288H76.466l36.48-261.4,2.947-27.924H97.157l-2.331,27.924Z" transform="translate(-38.966 -30.09)" fill="#c7c7c7"/>
      <rect id="Retângulo_563" data-name="Retângulo 563" width="116.372" height="6.556" transform="translate(161.044 420.802) rotate(180)" fill="#c7c7c7"/>
      <path id="Caminho_1117" data-name="Caminho 1117" d="M152.767,273.906h-18.12L131.7,246.96h18.736Z" transform="translate(-5.887 -30.09)" fill="#a6a6a6"/>
      <path id="Caminho_1118" data-name="Caminho 1118" d="M85.18,273.906H103.3l2.947-26.946H87.511Z" transform="translate(-29.32 -30.09)" fill="#a6a6a6"/>
      <path id="Caminho_1119" data-name="Caminho 1119" d="M93.711,192.934c4.511,2.316,5.293,10.3,19.338,9.864,2,0,3.639-.857,5.473-.18,2.692.977,4.812,3.128,7.2,4.692a15.428,15.428,0,0,0,6.406,2.466,19.1,19.1,0,0,0,12.571-2.9c2.3-1.413,4.225-3.368,6.451-4.9s15.654-4.782,17.924-12.33c1.5-4.8,1.218-10.255-4.511-17.263a8.767,8.767,0,0,1-2.571-4.661,10.436,10.436,0,0,1,1.038-4.511,8.857,8.857,0,0,0,.827-5.158,11.383,11.383,0,0,0-3.007-4.406c-2.105-2.541-1.714-6.21,0-10.721a13.278,13.278,0,0,0-1.353-11.639,27.744,27.744,0,0,0-4.842-5.263c-2.571-2.436-3.007-4.692-4.165-8.135-2.18-6.616-5.594-9.579-9.609-11.624-3.624-1.819-3.5-1.128-7.383-.541a20.375,20.375,0,0,0-13.127-2.827c-4.24.541-7.744,3.383-10.947,6.105-2.857,2.436-5.473,5.052-5.624,9.158-.09,2.361.481,4.707.376,7.067-.15,3.007-1.819,4.917-3.819,6.812a17.7,17.7,0,0,0-5.849,9.819c-.526,3.2,2.632,8.18-1.068,12.917-3.248,4.18-9.022,9.022-10.526,14.255C78.328,185.37,89.456,190.709,93.711,192.934Z" transform="translate(-31.009 -102.736)" fill="#263238"/>
      <path id="Caminho_1120" data-name="Caminho 1120" d="M125.944,182.246c6.451-.977,16.36.241,19.789-6.947a11.037,11.037,0,0,0,4.045-9.218,16.18,16.18,0,0,0-4.887-9.789,24.81,24.81,0,0,1-4.09-5.007,32.717,32.717,0,0,1-.8-4.361,22.285,22.285,0,0,1,1.5-5.474h0c-1.413,3.007-2.722,6.255-1.413,9.564a10.523,10.523,0,0,0,.677,1.368,26.709,26.709,0,0,0,1.925,5.037c2.12,4.21,4.06,8.015,3.774,12.932a11.729,11.729,0,0,1-1.158,4.737,17.8,17.8,0,0,1-9.97,4.331c-.09,0-.09.165,0,.15a20.254,20.254,0,0,0,9.323-3.383c-3.744,5.368-12.451,4.631-18.751,5.879C125.748,182.065,125.808,182.261,125.944,182.246Zm20.285-8.165v-.135a18.044,18.044,0,0,0-.812-12.03c-1.023-2.511-2.556-4.767-3.564-7.293-.165-.436-.331-.872-.481-1.323,1.5,1.97,3.4,3.609,4.812,5.534,3.007,4.18,3.97,9.158,1.1,13.684a12.451,12.451,0,0,1-1.053,1.564Z" transform="translate(-8.853 -83.236)" fill="#263238"/>
      <path id="Caminho_1121" data-name="Caminho 1121" d="M81.157,176.978a.12.12,0,1,0,.2-.135c-2.722-4.722-1.94-9.579.241-13.924-1.053,6.481.226,13.744,6.15,17.232.105,0,.18-.105.09-.165-6.135-3.669-7.067-12.03-5.4-18.6a37.413,37.413,0,0,1,4.737-6.24c2.827-3.007,6.331-6.015,8.406-9.759a8.842,8.842,0,0,1-3.474,5.458c-.105.09,0,.271.105.2a9.5,9.5,0,0,0,3.91-5.609,6.932,6.932,0,0,0,.15-1.5,13.534,13.534,0,0,0,1.038-3.819h-.09a13.052,13.052,0,0,1-.947,3.413,27.849,27.849,0,0,0-1.383-6.015c-1.5-5.624,1.323-8.932,4.812-11.954l.857-.541a12.03,12.03,0,0,0,4.631-4.286c.256-.256.481-.511.707-.767h0s-.376.376-.571.556a6.932,6.932,0,0,0,.586-1.624h0a8.691,8.691,0,0,1-1.5,2.571c-1.383,1.158-2.917,2.21-4.391,3.338-2.737,1.669-5.5,3.278-6.571,6.616s-.226,6.616,0,9.864c.391,5.007-1.5,9.2-6.015,11.188-.075,0-.075.12,0,.09.331-.12.707-.211,1.023-.361a17.5,17.5,0,0,0-6.165,8.09C79.1,165.309,77.758,171.685,81.157,176.978Zm11.684-28.21c-.511.406-1.023.812-1.5,1.188a8.872,8.872,0,0,0,1.669-2.887c1.263-3.549.226-7.413.135-11.067a9.564,9.564,0,0,1,3.428-8.1,10.737,10.737,0,0,0-2.286,4.045c-.812,2.707,0,5.2.812,7.8a13.082,13.082,0,0,1,.6,5.067,22.932,22.932,0,0,1-2.857,3.955Zm-9.413,9.864a22.706,22.706,0,0,1,6.436-7.308c.2-.135.361-.286.541-.436.722-.586,1.5-1.173,2.15-1.774C89.592,152.423,85.923,155.355,83.427,158.633Z" transform="translate(-32.349 -94.6)" fill="#263238"/>
      <path id="Caminho_1122" data-name="Caminho 1122" d="M86.587,160.27Z" transform="translate(-28.621 -73.757)" fill="#263238"/>
      <path id="Caminho_1123" data-name="Caminho 1123" d="M129.731,117.576a89.623,89.623,0,0,1,6.872,6.646,8.917,8.917,0,0,1,2.556,5.714,9.534,9.534,0,0,1-1.94,6.015c-.481.722-.977,1.5-1.413,2.21a9.127,9.127,0,0,0,.647,4.105c1.053,2.481,3.383,4.015,4.511,6.526,1.744,4.06-.2,7.4-1.91,11.022h0c1.248-3.007,3.007-5.91,2.015-9.278-.782-2.752-2.8-4.24-4.316-6.481a9.353,9.353,0,0,1-1.5-4.767c-1.353,2.737-1.819,5.624.571,8.5.105.135,0,.316-.18.2-3.007-3.007-2.225-6.782-.376-10.015a17.774,17.774,0,0,1,1.248-5.564c0-.18.346,0,.316.135-.271,1.413-.632,2.827-.827,4.225l.316-.466c2.406-3.443,3.353-7.519.586-11.127-2.075-2.752-4.9-4.917-7.218-7.519C129.581,117.621,129.671,117.516,129.731,117.576Z" transform="translate(-6.926 -95.271)" fill="#263238"/>
      <path id="Caminho_1124" data-name="Caminho 1124" d="M154.818,306.39s-26.931,59.817-26.961,59.863c-5.2,11.413-9.579,21.5-11.338,26.946a.12.12,0,0,0,0,.09,8.662,8.662,0,0,0-.767,3.91v.09c2.346,3.865,92.328,48.119,96,48.645s5.338-9.894,3.218-14.406-29.007-36.871-29.007-36.871L212.365,334.6Z" transform="translate(-13.924 -0.155)" fill="#eb9481"/>
      <path id="Caminho_1125" data-name="Caminho 1125" d="M133.388,338s-5.5,12.24-5.534,12.285c-5.2,11.413-9.579,21.5-11.338,26.946a.12.12,0,0,0,0,.09,16.405,16.405,0,0,0-.767,3.91s0,.075,0,.09c2.346,3.865,92.328,48.119,96,48.645s5.338-9.894,3.218-14.406-29.007-36.871-29.007-36.871l5.789-12.391Z" transform="translate(-13.922 15.767)" fill="#ebebeb"/>
      <path id="Caminho_1126" data-name="Caminho 1126" d="M211.774,425.947c-3.669-.481-93.681-44.69-96.042-48.555-.917-1.5,4.752-14.947,12.03-31.052l.226-.511,58.4,27.879-.511.977s26.9,32.345,29.037,36.856S215.428,426.444,211.774,425.947Z" transform="translate(-13.979 19.711)" fill="#263238"/>
      <path id="Caminho_1127" data-name="Caminho 1127" d="M216.416,414.07c1.308,1.413-1.7,6.661-3.007,6.526s-99.245-48.78-100.748-49.983,2.06-6.872,4.15-6.225S216.416,414.07,216.416,414.07Z" transform="translate(-15.659 29.033)" fill="#fff"/>
      <path id="Caminho_1128" data-name="Caminho 1128" d="M172.272,368.537c-5.428-4.045-13.172-6.722-19.834-4.707-.256,0-.135.451.09.481a92.917,92.917,0,0,1,19.353,4.977.436.436,0,0,0,.391-.752Z" transform="translate(4.486 28.432)" fill="#fff"/>
      <path id="Caminho_1129" data-name="Caminho 1129" d="M174.292,371.677c-5.428-4.06-13.172-6.722-19.834-4.707-.256.075-.135.436.09.481a92.87,92.87,0,0,1,19.353,4.962.421.421,0,0,0,.391-.737Z" transform="translate(5.504 30.013)" fill="#fff"/>
      <path id="Caminho_1130" data-name="Caminho 1130" d="M176.316,374.807c-5.428-4.045-13.187-6.722-19.834-4.707-.256.09-.15.451,0,.481a92.813,92.813,0,0,1,19.368,4.977.442.442,0,0,0,.466-.752Z" transform="translate(6.517 31.59)" fill="#fff"/>
      <path id="Caminho_1131" data-name="Caminho 1131" d="M134.31,358.212c-4.932-6.466-15.037,1.173-10.06,7.654S139.242,364.693,134.31,358.212Z" transform="translate(-10.316 24.712)" fill="#fff"/>
      <path id="Caminho_1132" data-name="Caminho 1132" d="M181.107,313.759c-.6,17.4-34.134,92.538-34.134,92.538l58.81,27.067s47.472-83.561,43.066-122.056c-3.759-32.66-85.937-93.064-99.124-110.086-1.955-2.526-1.293-12.691-1.293-12.691H95.08v12.736c20.375,43.247,81.32,95.124,85.832,110.357a6.782,6.782,0,0,1,.2,2.135Z" transform="translate(-24.333 -59.522)" fill="#37474f"/>
      <path id="Caminho_1133" data-name="Caminho 1133" d="M185.289,350.589c-9.684-4.646-6.842-3.459-16.541-7.985-4.767-2.21-28.676-13.413-33.488-14.661a.108.108,0,1,0-.09.2c4.12,2.8,28.285,13.428,33.082,15.548,9.819,4.331,7.052,3.007,16.917,7.188C185.335,350.965,185.47,350.664,185.289,350.589Z" transform="translate(-4.171 10.697)" fill="#263238"/>
      <path id="Caminho_1134" data-name="Caminho 1134" d="M104.079,203.074a561.3,561.3,0,0,0,53.848,69.516c4.842,5.278,9.819,10.406,14.8,15.548,4.21,4.346,8.511,9.173,9.549,15.353,1.173,6.887-1.5,13.744-3.654,20.165-2.361,7.067-4.737,14.12-7.248,21.142-2.707,7.519-13.774,34.871-15.593,38.555-.917,1.835,14.646-37.593,17.172-44.871s5.083-14.511,7.233-21.879a30.751,30.751,0,0,0,1.5-11.654,21.051,21.051,0,0,0-4.391-10.406c-4.331-5.774-9.955-10.676-14.872-15.939q-15.293-16.375-29.157-34.014a486.471,486.471,0,0,1-29.412-41.412.124.124,0,0,1,.225-.105Z" transform="translate(-19.92 -52.232)" fill="#263238"/>
      <path id="Caminho_1135" data-name="Caminho 1135" d="M83.881,393.12S81.265,458.7,81.25,458.742c.3,12.541.782,23.533,1.5,29.187a.3.3,0,0,0,0,.105,8.662,8.662,0,0,0,1.128,3.849v.075c3.789,2.436,104.087,3.007,107.59,1.85s.481-11.248-3.383-14.375-42.209-20.511-42.209-20.511l2-65.532Z" transform="translate(-31.299 43.532)" fill="#eb9481"/>
      <path id="Caminho_1136" data-name="Caminho 1136" d="M81.746,428.165s-.511,12.932-.526,12.977c.3,12.541.782,23.533,1.5,29.187a.3.3,0,0,0,0,.105,17.354,17.354,0,0,0,1.173,3.849v.075c3.789,2.436,104.087,3.007,107.59,1.85s.481-11.248-3.383-14.375-42.209-20.511-42.209-20.511l.406-13.263Z" transform="translate(-31.315 61.131)" fill="#ebebeb"/>
      <path id="Caminho_1137" data-name="Caminho 1137" d="M191.442,472.039c-3.5,1.158-103.756.692-107.605-1.744-1.5-.9-2.241-15.518-2.677-33.217v-.556l64.659-.421v1.1s38.314,17.353,42.224,20.48S194.96,470.9,191.442,472.039Z" transform="translate(-31.345 65.181)" fill="#263238"/>
      <path id="Caminho_1138" data-name="Caminho 1138" d="M193.55,458.024c1.789.707,1.383,6.737.075,7.2s-110.643-.511-112.507-.932-1.143-7.1,1.023-7.428S193.55,458.024,193.55,458.024Z" transform="translate(-31.904 75.617)" fill="#fff"/>
      <path id="Caminho_1139" data-name="Caminho 1139" d="M134.471,437.171c-6.646-1.278-14.8-.286-19.894,4.421-.2.18,0,.466.271.391a93.606,93.606,0,0,1,19.548-3.97.423.423,0,1,0,.075-.842Z" transform="translate(-14.553 65.463)" fill="#fff"/>
      <path id="Caminho_1140" data-name="Caminho 1140" d="M137.69,439.1c-6.646-1.278-14.781-.286-19.894,4.421-.2.18,0,.466.286.391a93.229,93.229,0,0,1,19.548-3.97.422.422,0,0,0,.06-.842Z" transform="translate(-12.93 66.435)" fill="#fff"/>
      <path id="Caminho_1141" data-name="Caminho 1141" d="M140.843,441.042c-6.646-1.278-14.8-.3-19.894,4.421-.211.18,0,.466.271.391a93.233,93.233,0,0,1,19.548-3.97.423.423,0,0,0,.075-.842Z" transform="translate(-11.346 67.412)" fill="#fff"/>
      <path id="Caminho_1142" data-name="Caminho 1142" d="M95.17,444.153c-7.263-3.669-12.977,7.609-5.714,11.278S102.493,447.837,95.17,444.153Z" transform="translate(-28.859 68.872)" fill="#fff"/>
      <path id="Caminho_1143" data-name="Caminho 1143" d="M150.294,540.888l-65.562.541s10.917-267.765,3.609-276.517c-17.383-20.8-14.616-48.525-2.9-76.373h59.742s-2.872,42.284-2.586,43.517C160.97,312.2,150.294,540.888,150.294,540.888Z" transform="translate(-33.955 -59.517)" fill="#37474f"/>
      <path id="Caminho_1144" data-name="Caminho 1144" d="M142.024,414.08c-14.3-1.113-51.968.105-56.72.827a.135.135,0,0,0,0,.241c4.707.947,47.893-.406,56.7-.752a.165.165,0,0,0,.015-.316Z" transform="translate(-29.294 53.863)" fill="#263238"/>
      <path id="Caminho_1145" data-name="Caminho 1145" d="M126.244,199.848c-.6,7.519-.3,20.48-4.677,20.676s-3.609-15.593-3.729-19.232c-.12-3.293-1.248-2.842-1.368,1.038-.331,10.526,0,19.834,5.534,19.4s5.549-16.751,5.413-20.48C127.342,199.322,126.424,197.457,126.244,199.848Z" transform="translate(-13.604 -54.389)" fill="#263238"/>
      <path id="Caminho_1146" data-name="Caminho 1146" d="M120.057,213.758a32.6,32.6,0,0,0,.165,7.985c.075.211.917,0,1.007-.135.511-1.1.105-6.27.241-7.669a.712.712,0,0,0-1.413-.18Z" transform="translate(-11.838 -47.127)" fill="#263238"/>
      <path id="Caminho_1147" data-name="Caminho 1147" d="M121.523,220.169c1.865,6.616,3.774,19.278,3.323,22.556,0,.3-.481.406-.541.09-.6-3.549-3.248-20.616-3.519-22.405S121,218.32,121.523,220.169Z" transform="translate(-11.424 -44.215)" fill="#263238"/>
      <path id="Caminho_1148" data-name="Caminho 1148" d="M113.625,228.4a24.7,24.7,0,0,1,2.8-2.361c.977-.767,1.955-1.5,3.007-2.241,2.075-1.5,4.21-2.8,6.391-4.09s4.316-2.421,6.541-3.549,4.782-2.06,7.1-3.218c.135-.075.256.12.12.2-2.2,1.218-4.24,2.737-6.376,4.075s-4.271,2.722-6.421,4.06-4.18,2.647-6.285,3.94q-1.639,1.023-3.338,1.985A28.16,28.16,0,0,1,114,228.96C113.64,229.1,113.43,228.629,113.625,228.4Z" transform="translate(-15.03 -47.232)" fill="#263238"/>
      <path id="Caminho_1149" data-name="Caminho 1149" d="M91.669,394.865c.947-21.458,2.451-45.427,2.812-66.855q.256-16.1.241-32.224c0-10.661,0-24.9-.481-35.548-.286-5.413-9.819-9.594-11.759-25.352a59.848,59.848,0,0,1,2.09-26.8,57.024,57.024,0,0,1,2.391-6.18c0-.135.256,0,.2.12a58.87,58.87,0,0,0-4.616,28.1,47.7,47.7,0,0,0,3.007,14.15c2.556,6.361,8.857,11.518,9.188,14.9.5,5.037.571,9.4.632,14.466s.12,10.526.15,15.789q.09,16.12-.09,32.224-.361,32.074-1.684,64.118c-.9,21.368-6.436,128.356-6.8,130.822,0,.271-.481.211-.466,0C87.143,505.823,90.706,416.322,91.669,394.865Z" transform="translate(-31.012 -52.811)" fill="#263238"/>
      <path id="Caminho_1150" data-name="Caminho 1150" d="M113.525,162.757c14.225,29.352,32.285,61.141,49.186,66.163,16.09,4.737,47.277-34.766,57.141-45.111,3.519-3.759-25.067-25.262-29.5-22-8.361,6.15-23.383,22.9-25.909,22.315s-23.623-20.646-42.63-37.487C110.292,136.427,103.675,142.412,113.525,162.757Z" transform="translate(-17.455 -83.085)" fill="#eb9481"/>
      <path id="Caminho_1151" data-name="Caminho 1151" d="M200.526,162.039c3.91-1.639,34.014-2.6,34.014-9.128s-38.329-4.692-38.329-4.692Z" transform="translate(26.607 -79.946)" fill="#eb9481"/>
      <path id="Caminho_1152" data-name="Caminho 1152" d="M160.68,162.926c5.263-6.541,9.894-13.533,14.466-14.887,3.173-.9,37.247.571,42.585.256s24.315.165,24.766,4.827c.617,6.6-21.879,6.541-24.27,9.924-8.285,11.639-39.788,28.871-39.788,28.871Z" transform="translate(8.71 -80.067)" fill="#eb9481"/>
      <path id="Caminho_1153" data-name="Caminho 1153" d="M223.081,153.17a5.173,5.173,0,0,0-2.18-3.007c-2.331-1.624-5.4-1.774-8.135-1.985a73.678,73.678,0,0,0-12.481-.105.075.075,0,1,0,0,.15c3.113,0,6.225.075,9.338.331a38.8,38.8,0,0,1,8.436,1.293,6.812,6.812,0,0,1,3.248,1.955,2.692,2.692,0,0,1,.647,2.511c-.917,2.872-6.586,3.729-9.2,4.316-3.413.767-6.962,1.5-10.406,2.135-.15,0,0,.271.075.241,3.564-.707,7.338-.992,10.917-1.639,2.9-.526,6.015-1.113,8.361-3.007a3.293,3.293,0,0,0,1.383-3.188Z" transform="translate(28.621 -80.009)" fill="#263238"/>
      <path id="Caminho_1154" data-name="Caminho 1154" d="M0,0H5.173V60.359a2.06,2.06,0,0,1-2.06,2.06H2.06A2.06,2.06,0,0,1,0,60.359V0Z" transform="translate(198.715 58.947) rotate(-78.95)" fill="#fff"/>
      <rect id="Retângulo_564" data-name="Retângulo 564" width="5.173" height="7.278" transform="translate(198.708 58.957) rotate(-78.95)" opacity="0.1"/>
      <path id="Caminho_1155" data-name="Caminho 1155" d="M166.428,137.444l-1.744,9.022a11.722,11.722,0,0,0,23.007,4.511l1.759-9.022a11.73,11.73,0,1,0-23.022-4.511Zm19.338,2.241a6.631,6.631,0,0,1-5.744,5.067,6.722,6.722,0,0,1,3.428,6.857c-.707,3.579-4.646,5.834-8.812,5.022s-6.977-4.391-6.285-7.955a6.677,6.677,0,0,1,5.759-5.068,6.661,6.661,0,0,1-3.428-6.857c.707-3.594,4.646-5.819,8.812-5.007s6.977,4.361,6.27,7.94Z" transform="translate(10.615 -90.027)" fill="#fff"/>
      <rect id="Retângulo_565" data-name="Retângulo 565" width="11.744" height="2.376" rx="0.63" transform="translate(198.078 62.18) rotate(-78.95)" fill="#fff"/>
      <rect id="Retângulo_566" data-name="Retângulo 566" width="11.744" height="2.376" rx="0.63" transform="translate(200.411 62.64) rotate(-78.95)" fill="#fff"/>
      <path id="Caminho_1156" data-name="Caminho 1156" d="M211.666,144.829l1.759.346.992-5.128,1.519.3-.526,2.677,1.759.346.526-2.677,1.323.256-.812,4.225,1.759.346.827-4.225,1.895.376-1.1,5.639,1.759.346,1.1-5.639,1.789.346-1.4,7.2L209.08,146.5l1.4-7.218,2.18.436Z" transform="translate(33.089 -84.329)" fill="#fff"/>
      <path id="Caminho_1157" data-name="Caminho 1157" d="M76.56,221.974l83.937,1.383-6.586-25.142a26.315,26.315,0,0,0,3.774-21.909c-2.015-7.4-11.564-18.481-17.428-25.563-14.255-17.142-26.646-9.4-30.6-4.992C94.574,162.638,76.56,221.974,76.56,221.974Z" transform="translate(-33.662 -83.899)" fill="#fff"/>
      <path id="Caminho_1158" data-name="Caminho 1158" d="M114.91,151.972V147.19l3.173,3.549,3.428-1.068-1.669,3.007,1.609,1.684-2.5.256v3.248l-2.737-2.286-2.225,1.85.256-2.737L111,153.19ZM150.668,205.7l-2.647,2.421-2.436-1.293.857,2.782-3.158,1.639,3.007,1.293-.737,2.406,2.2-.842,2.165,2.737.331-3.579,4.511-1.5-4.391-1.91ZM119.977,187.85l2.571,5.113,2.541-4.887,4.842.842-2.571-5.143,3.594-3.428-5.1.18-1.023-4.992-2.677,5.173-6.8-.526,4,4.135-3.7,2.842ZM139.992,158.3l1.233-2.075-2.316.211-.8-1.91-1.248,2.075-2.03-.5,1.218,1.774-1.5,1.5L137,159.16l1.353,2.526.556-2.346,1.835.662Zm-39.367,54.765,1.233-2.06-2.3.2-.812-1.91-1.233,2.09-2.03-.511,1.218,1.774-1.5,1.5,2.451-.211L99,216.466l.556-2.361,1.85.677Zm13.8-37.277,1.233-2.06-2.316.2-.8-1.91-1.233,2.09-2.045-.511,1.218,1.774-1.5,1.5,2.451-.211,1.353,2.511.556-2.346,1.85.662Zm-14.947,5.594-.421-1.353-.812,1.1-1.158-.406.421,1.368-1.007.692,1.248.165v1.263l.857-1.173,1.639.406-.812-1.173,1.023-.556Zm38.961,32.254-.421-1.353-.827,1.1-1.143-.391.421,1.353-1.023.707,1.263.15v1.263l.857-1.158,1.639.391-.812-1.173,1.023-.541ZM150.1,174.332l1.068-.947-1.338-.286-.12-1.218-1.068.947-1.053-.632.376,1.2-1.128.571,1.413.3.316,1.669.737-1.233.917.707Zm-21.052,25.4,1.053-.947-1.338-.286-.12-1.218-1.053.947-1.068-.632.376,1.2-1.128.571,1.413.3.316,1.669.737-1.233.917.707ZM85.708,207.7l1.053-.947-1.338-.3-.105-1.218-1.068.962-.992-.647.361,1.218-1.128.556,1.413.316.331,1.654.722-1.218.917.707Z" transform="translate(-30.675 -80.345)" fill="#fff"/>
      <path id="Caminho_1159" data-name="Caminho 1159" d="M113.1,177.882a71.907,71.907,0,0,1,10.8-.18c1.789.12,3.564.331,5.338.586.872.12,1.759.211,2.647.3a11.611,11.611,0,0,0,2.8,0s.105.105,0,.135a21.794,21.794,0,0,1-2.6.421,20.959,20.959,0,0,1-2.571,0c-1.8-.12-3.624-.316-5.428-.436-3.654-.271-7.308-.526-10.977-.526C112.991,178.212,112.991,177.9,113.1,177.882Z" transform="translate(-15.298 -65.038)" fill="#263238"/>
      <path id="Caminho_1160" data-name="Caminho 1160" d="M107.684,181.812a80.694,80.694,0,0,1,8.676-2.015c1.5-.241,3.007-.406,4.421-.526l2.12-.15h2.346c.09,0,.105.12,0,.135-.737.075-1.5.271-2.2.376l-2.2.346-4.391.692q-4.391.632-8.782,1.413C107.564,182.082,107.534,181.857,107.684,181.812Z" transform="translate(-18.036 -64.262)" fill="#263238"/>
      <path id="Caminho_1161" data-name="Caminho 1161" d="M104,151.838c.361,1.5,7.519,11.2,14.36,10.872,2.225-.12,2.165-12.3,2.165-12.3l.2-.9,2.827-12.616-14.8-9.473-2.135-1.248s-.541,3.5-1.173,7.864v.617a7.21,7.21,0,0,1-.12.722c-.105.647-.211,1.308-.286,1.97s-.135,1.007-.2,1.5l-.18,1.594A84.975,84.975,0,0,0,104,151.838Z" transform="translate(-19.841 -90.933)" fill="#eb9481"/>
      <path id="Caminho_1162" data-name="Caminho 1162" d="M105,134.019a26,26,0,0,0,15.338,15.488l2.707-12.616-14.8-9.473-2.135-1.248S105.571,129.659,105,134.019Z" transform="translate(-19.336 -90.933)" fill="#263238"/>
      <path id="Caminho_1163" data-name="Caminho 1163" d="M142.735,127.659c4.406,22.255-8.436,27.4-13.233,28.345-4.346.857-19.293,3.2-25.969-18.466s2.286-30.751,12.15-33.232S138.344,105.42,142.735,127.659Z" transform="translate(-21.238 -102.287)" fill="#eb9481"/>
      <path id="Caminho_1164" data-name="Caminho 1164" d="M125.689,117.985a13.848,13.848,0,0,1-1.5.256,2.6,2.6,0,0,1-1.624,0,.812.812,0,0,1-.361-.917,2,2,0,0,1,1.669-1.158,2.9,2.9,0,0,1,2.09.3.857.857,0,0,1-.271,1.519Z" transform="translate(-10.688 -96.011)" fill="#263238"/>
      <path id="Caminho_1165" data-name="Caminho 1165" d="M114.331,121.211a13.873,13.873,0,0,0,1.5-.316,2.5,2.5,0,0,0,1.5-.617.767.767,0,0,0,0-.977,1.955,1.955,0,0,0-1.97-.481,2.872,2.872,0,0,0-1.85,1.022.857.857,0,0,0,.812,1.368Z" transform="translate(-15.134 -94.681)" fill="#263238"/>
      <path id="Caminho_1166" data-name="Caminho 1166" d="M116.573,122.28s-.105,0-.09.15c.271,1.5.331,3.308-.962,4.015v.09C117.189,126.039,117.084,123.663,116.573,122.28Z" transform="translate(-14.037 -92.892)" fill="#263238"/>
      <path id="Caminho_1167" data-name="Caminho 1167" d="M115.706,121.351c-2.481.18-1.94,5.143.361,4.962S117.781,121.2,115.706,121.351Z" transform="translate(-14.764 -93.362)" fill="#263238"/>
      <path id="Caminho_1168" data-name="Caminho 1168" d="M115.48,121.613c-.406.316-.767.857-1.293.977s-1.1-.346-1.5-.8h0c.09.947.556,1.88,1.594,1.91s1.5-.887,1.639-1.865C115.826,121.719,115.646,121.478,115.48,121.613Z" transform="translate(-15.486 -93.248)" fill="#263238"/>
      <path id="Caminho_1169" data-name="Caminho 1169" d="M122.5,121.32a.118.118,0,0,1,.12.12c.12,1.5.5,3.293,1.94,3.654v.09C122.829,125.124,122.348,122.794,122.5,121.32Z" transform="translate(-10.535 -93.376)" fill="#263238"/>
      <path id="Caminho_1170" data-name="Caminho 1170" d="M123.7,120.169c2.451-.436,3.143,4.511.872,4.9S121.645,120.545,123.7,120.169Z" transform="translate(-10.538 -93.969)" fill="#263238"/>
      <path id="Caminho_1171" data-name="Caminho 1171" d="M124.072,120.481c.436.211.887.632,1.353.586s.872-.632,1.143-1.188h.09c.15.932,0,1.97-.9,2.271s-1.5-.436-1.88-1.353C123.816,120.677,123.906,120.391,124.072,120.481Z" transform="translate(-9.838 -94.101)" fill="#263238"/>
      <path id="Caminho_1172" data-name="Caminho 1172" d="M118.12,130.9c.391.346.8.812,1.353.827a4.241,4.241,0,0,0,1.639-.5s.09,0,0,0a2.075,2.075,0,0,1-1.895.962A1.624,1.624,0,0,1,118,131.053S118,130.857,118.12,130.9Z" transform="translate(-12.788 -88.553)" fill="#263238"/>
      <path id="Caminho_1173" data-name="Caminho 1173" d="M123.6,131.677s.6,2.241.737,3.323c0,.105-.241.18-.617.256h0a5.2,5.2,0,0,1-5.233-1.308c0-.09,0-.226.15-.165a7.774,7.774,0,0,0,4.857.767c0-.3-1.158-3.819-.992-3.849a9.547,9.547,0,0,1,2.526.256c-1.1-4.722-3.007-9.233-3.985-13.954,0-.165.211-.256.271-.105a77.772,77.772,0,0,1,4.932,14.842C126.384,132.339,124.069,131.8,123.6,131.677Z" transform="translate(-12.541 -95.643)" fill="#263238"/>
      <path id="Caminho_1174" data-name="Caminho 1174" d="M123.643,129.132a6.226,6.226,0,0,1-2.12,2.361,2.827,2.827,0,0,1-1.669.421c-1.263-.105-1.5-1.218-1.5-2.21a6.887,6.887,0,0,1,.286-1.5,8.09,8.09,0,0,0,5.007.932Z" transform="translate(-12.612 -89.91)" fill="#263238"/>
      <path id="Caminho_1175" data-name="Caminho 1175" d="M121.523,131a2.827,2.827,0,0,1-1.669.421c-1.263-.105-1.5-1.218-1.5-2.21A2.9,2.9,0,0,1,121.523,131Z" transform="translate(-12.612 -89.42)" fill="#ff9abb"/>
      <path id="Caminho_1176" data-name="Caminho 1176" d="M106.764,139.49c4.255,0,3.97-9.774,3.97-9.774s17.383-5.549,16.842-20.24a24.766,24.766,0,0,0,14.27,11.654s-2.872-15.789-15.909-17.1c0,0-16.436-3.474-23.473,10.18S103.907,139.535,106.764,139.49Z" transform="translate(-21.987 -102.283)" fill="#263238"/>
      <path id="Caminho_1177" data-name="Caminho 1177" d="M122.628,106.8a16.06,16.06,0,0,1,.135,6.722,16.436,16.436,0,0,1-2.526,6.331,13.079,13.079,0,0,1-1.038,1.368l-.526.677c-.2.211-.406.406-.617.6s-.812.8-1.233,1.173l-1.383,1.023c-.226.165-.451.331-.692.481l-.737.421-1.5.827c-1.023.451-2.075.842-3.128,1.218.962-.586,1.955-1.068,2.887-1.654l1.383-.932.677-.466c.226-.165.421-.346.632-.526l1.248-1.053c.406-.376.767-.782,1.143-1.173l.571-.586.5-.647a13.109,13.109,0,0,0,.947-1.308A18.977,18.977,0,0,0,122,113.281a21.052,21.052,0,0,0,.556-3.233A20.418,20.418,0,0,0,122.628,106.8Z" transform="translate(-17.13 -100.69)" fill="#263238"/>
      <path id="Caminho_1178" data-name="Caminho 1178" d="M100.353,118.59,99.3,120.725l7.037,5.143,2.256-4.8Zm5.489,5.083-4.857-3.158.226-.5,5.458,1.97Z" transform="translate(-22.208 -94.751)" fill="#fff"/>
      <path id="Caminho_1179" data-name="Caminho 1179" d="M100.255,116.352l-.165,2.376,8.466,2.12.286-5.308Zm7.007,2.631-5.7-1.083v-.556l5.8-.226Z" transform="translate(-21.81 -96.287)" fill="#fff"/>
      <path id="Caminho_1180" data-name="Caminho 1180" d="M109.805,127.826s-5.7-6.511-8.691-4.406,1.8,11.909,5.7,12.887a3.819,3.819,0,0,0,4.887-2.6Z" transform="translate(-21.766 -92.529)" fill="#eb9481"/>
      <path id="Caminho_1181" data-name="Caminho 1181" d="M101.76,125.13v.09a9.669,9.669,0,0,1,5.624,5.489,2.105,2.105,0,0,0-3.2-.226s0,.15.09.135a2.346,2.346,0,0,1,2.662.526,11.681,11.681,0,0,1,1.5,1.955c.135.226.556,0,.436-.21h0C108.512,129.446,105.4,125.07,101.76,125.13Z" transform="translate(-20.968 -91.457)" fill="#263238"/>
      <path id="Caminho_1182" data-name="Caminho 1182" d="M113.041,149.754C93.914,182.746,65.328,258.472,60.156,269.3c-3.5,7.353,34.931,26.736,36.57,21.383,2.075-6.842,28.751-95.049,30.5-134.4C128.033,138.055,119.161,139.2,113.041,149.754Z" transform="translate(-42.038 -82.894)" fill="#eb9481"/>
      <path id="Caminho_1183" data-name="Caminho 1183" d="M74.81,260.038c2.03-1.774,3.007-.722,2.09,3.97s-8.346,22.556-1.91,24.586,16.541-23.217,17.473-31.142-.511-21.052-.511-21.052C88.99,240.941,80.825,251.227,74.81,260.038Z" transform="translate(-35.762 -35.409)" fill="#eb9481"/>
      <path id="Caminho_1184" data-name="Caminho 1184" d="M98.358,281.28,50.24,272.618c-1.5-.12-2.421-1.113-2.165-2.225l4.406-19.668A2.827,2.827,0,0,1,55.5,249.01l48.119,8.616c1.5.135,2.421,1.128,2.165,2.225l-4.406,19.668a2.782,2.782,0,0,1-3.022,1.759Z" transform="translate(-48.032 -29.073)" fill="#a6a6a6"/>
      <path id="Caminho_1185" data-name="Caminho 1185" d="M98.757,279.755l-48.209-8.661c-1.5-.135-2.406-1.128-2.165-2.225L52.8,249.2a2.767,2.767,0,0,1,3.007-1.759L104.02,256.1c1.5.12,2.406,1.113,2.165,2.21L101.81,278a2.8,2.8,0,0,1-3.053,1.759Z" transform="translate(-47.874 -29.864)" fill="#c7c7c7"/>
      <path id="Caminho_1186" data-name="Caminho 1186" d="M82.057,264.825c-1.113-.421-2.165,0-2.346.932a2.421,2.421,0,0,0,1.7,2.421c1.113.421,2.165,0,2.346-.917a2.421,2.421,0,0,0-1.7-2.436Z" transform="translate(-32.076 -21.174)" fill="#263238"/>
      <path id="Caminho_1187" data-name="Caminho 1187" d="M68.063,224.4c-9.819,13.233-18.511,28.811-18.721,46.028a8.586,8.586,0,0,0,1.639,5.338c-.226,7.7,3.338,10.135,3.338,10.135,1.985,7.233,6.015,9.218,6.015,9.218s.571,6.21,4.947,6.12,6.782-10.27,10.526-17.7c8.767-17.052,24.706-36.42,27.713-41.081Z" transform="translate(-47.374 -41.454)" fill="#eb9481"/>
      <path id="Caminho_1188" data-name="Caminho 1188" d="M67.562,249.236A124.026,124.026,0,0,0,60.75,264.6a124.447,124.447,0,0,0-3.91,18.044.15.15,0,1,1-.3,0,65.366,65.366,0,0,1,10.8-33.442C67.487,248.89,67.758,249,67.562,249.236Z" transform="translate(-43.746 -29.058)" fill="#263238"/>
      <path id="Caminho_1189" data-name="Caminho 1189" d="M60.006,244.75c-2.135,5.067-5.834,13.984-7.173,31.067h-.105a58.644,58.644,0,0,1,7.037-31.172C59.931,244.344,60.157,244.4,60.006,244.75Z" transform="translate(-45.709 -31.354)" fill="#263238"/>
      <path id="Caminho_1190" data-name="Caminho 1190" d="M55.969,242.4c-3.308,8.752-4.3,14.691-5.473,24.42H50.39c.18-11.2,1.5-15.263,5.293-24.586C55.818,241.962,56.089,242.053,55.969,242.4Z" transform="translate(-46.844 -32.551)" fill="#263238"/>
    </g>
  </g>
</svg>
