<svg xmlns="http://www.w3.org/2000/svg" width="663.131" height="641.751" viewBox="0 0 663.131 641.751">
  <g id="Task-cuate" transform="translate(-36.62 -48.6)">
    <g id="freepik--background-complete--inject-91" transform="translate(36.62 51.024)">
      <rect id="Retângulo_572" data-name="Retângulo 572" width="50.032" height="17.387" transform="translate(32.754 525.338)" fill="#ebebeb"/>
      <rect id="Retângulo_573" data-name="Retângulo 573" width="50.032" height="17.387" transform="translate(4.832 547.262)" fill="#ebebeb"/>
      <rect id="Retângulo_574" data-name="Retângulo 574" width="50.032" height="17.387" transform="translate(148.03 199.507)" fill="#ebebeb"/>
      <rect id="Retângulo_575" data-name="Retângulo 575" width="50.032" height="17.387" transform="translate(120.124 221.431)" fill="#ebebeb"/>
      <rect id="Retângulo_576" data-name="Retângulo 576" width="50.032" height="17.387" transform="translate(92.326 199.507)" fill="#ebebeb"/>
      <rect id="Retângulo_577" data-name="Retângulo 577" width="50.032" height="17.387" transform="translate(608.217 547.262)" fill="#ebebeb"/>
      <rect id="Retângulo_578" data-name="Retângulo 578" width="50.032" height="17.387" transform="translate(580.311)" fill="#ebebeb"/>
      <rect id="Retângulo_579" data-name="Retângulo 579" width="50.032" height="17.387" transform="translate(608.217 21.924)" fill="#ebebeb"/>
      <rect id="Retângulo_580" data-name="Retângulo 580" width="50.032" height="17.387" transform="translate(4.832)" fill="#ebebeb"/>
      <rect id="Retângulo_581" data-name="Retângulo 581" width="226.232" height="9.711" transform="translate(0 115.866)" fill="#ebebeb"/>
      <path id="Caminho_1218" data-name="Caminho 1218" d="M62.193,169.219h-8.81L49.84,130.98H62.193Z" transform="translate(-29.299 -5.402)" fill="#ebebeb"/>
      <path id="Caminho_1219" data-name="Caminho 1219" d="M161.05,169.219h8.81L173.4,130.98H161.05Z" transform="translate(32.289 -5.402)" fill="#ebebeb"/>
      <path id="Caminho_1220" data-name="Caminho 1220" d="M49.84,130.98H62.177v13.161H51.052Z" transform="translate(-29.299 -5.402)" fill="#dbdbdb"/>
      <path id="Caminho_1221" data-name="Caminho 1221" d="M173.387,130.98l-1.212,13.161H161.05V130.98Z" transform="translate(32.289 -5.402)" fill="#dbdbdb"/>
      <path id="Caminho_1222" data-name="Caminho 1222" d="M86,91.378c-8.934,12.1-18.257,26.166-20.526,41.346,0,.233.342.311.388,0a89.7,89.7,0,0,1,3.962-12.166c5.873-1.554,11.638-2.937,14.73-8.779s2.75-13.813,2.144-20.355C86.664,91.161,86.182,91.145,86,91.378Z" transform="translate(-20.643 -27.424)" fill="#ebebeb"/>
      <path id="Caminho_1223" data-name="Caminho 1223" d="M68.325,119.162A100.374,100.374,0,0,1,84.065,93.68s.109,0,0,0a108.546,108.546,0,0,0-10.737,16.874c2.968-3,6.215-5.687,9.012-8.888,0,0,.14,0,.093.093a49.1,49.1,0,0,1-9.4,9.509c-.963,1.8-1.942,3.6-2.937,5.392l.746-.373h0a8.328,8.328,0,0,1-.839.4c-.466.855-.932,1.709-1.414,2.564C68.512,119.52,68.247,119.349,68.325,119.162Z" transform="translate(-19.07 -26.059)" fill="#a6a6a6"/>
      <path id="Caminho_1224" data-name="Caminho 1224" d="M70.267,109.721a53.713,53.713,0,0,0,6.852-4.661h.093a36.1,36.1,0,0,1-6.852,4.661C70.252,109.939,70.159,109.784,70.267,109.721Z" transform="translate(-18.013 -19.757)" fill="#a6a6a6"/>
      <path id="Caminho_1225" data-name="Caminho 1225" d="M65.091,140.047a.171.171,0,0,0,.326,0V125.006c1.274-2.595,4.024-4.024,5.935-6.091a26.912,26.912,0,0,0,3.574-4.972,35.551,35.551,0,0,0,4.133-13.8c.528-5.345-1.554-23-3.745-22.39-1.181.311-4.957,9.059-5.967,11.949a83.1,83.1,0,0,0-3.558,14.668,155.8,155.8,0,0,0-.7,35.675Z" transform="translate(-21.243 -34.886)" fill="#ebebeb"/>
      <path id="Caminho_1226" data-name="Caminho 1226" d="M64.847,117.446h0A113.427,113.427,0,0,1,67.955,98.6a63.209,63.209,0,0,1,6.51-18.832c0-.109.218,0,.171.093A69.3,69.3,0,0,0,69.4,94.248c.218-.357.5-.7.73-1.041s.311,0,.233.14A9.322,9.322,0,0,1,69.291,94.9h0c-1.165,4.661-2,9.556-2.735,14.373l.14-.218h0c-.093,0-.186.311-.28.482-.357,2.439-.7,4.879-1.041,7.3a34.184,34.184,0,0,0,10.193-13.378h0a28.046,28.046,0,0,1-10.286,13.984L65,119.4c0,.124-.233.093-.233,0v-1.74a.14.14,0,0,1,.078-.218Z" transform="translate(-21.046 -33.789)" fill="#a6a6a6"/>
      <path id="Caminho_1227" data-name="Caminho 1227" d="M66.14,103.5A100.453,100.453,0,0,0,75.012,88.21h.109A49.271,49.271,0,0,1,66.3,103.593a.109.109,0,0,1-.155-.093Z" transform="translate(-20.272 -29.088)" fill="#a6a6a6"/>
      <path id="Caminho_1228" data-name="Caminho 1228" d="M69.011,90.023c1.383-2.439,2.843-4.817,4.133-7.3h.109a37.618,37.618,0,0,1-4.024,7.365C69.1,90.271,68.9,90.163,69.011,90.023Z" transform="translate(-18.699 -32.128)" fill="#a6a6a6"/>
      <path id="Caminho_1229" data-name="Caminho 1229" d="M68.645,88.11Z" transform="translate(-18.892 -29.144)" fill="#a6a6a6"/>
      <path id="Caminho_1230" data-name="Caminho 1230" d="M68.26,123.934a50.048,50.048,0,0,1-1.165,9.867,9.39,9.39,0,0,0,.155,1.072,47.111,47.111,0,0,0,1.756-10.985.311.311,0,0,0,0-.342h0a71.336,71.336,0,0,0-1.15-14.885C66.3,99.462,62.93,90.636,56.513,83.8a.451.451,0,0,0-.7.14c-2.595,6.588-1.694,14.435.513,20.992a38.254,38.254,0,0,0,5.081,9.975C63.676,117.952,66.473,120.562,68.26,123.934Z" transform="translate(-26.867 -31.592)" fill="#ebebeb"/>
      <path id="Caminho_1231" data-name="Caminho 1231" d="M56.325,85.73a70.667,70.667,0,0,1,10.877,33.2.179.179,0,0,1-.357,0c-.14-1.041-.311-2.082-.482-3.108h0a39.62,39.62,0,0,1-6.961-7.893s0-.109.093,0a82.5,82.5,0,0,0,6.7,7.287c-.435-2.579-.948-5.112-1.554-7.614l-.482-.559c-.109-.124.078-.311.186-.186l.14.171a87.247,87.247,0,0,0-3.108-10.084,30.1,30.1,0,0,1-4.4-5.671s0-.093,0,0a43.367,43.367,0,0,0,2.812,3.729c.4.466.855.917,1.274,1.367A77.085,77.085,0,0,0,56.092,86.01C55.967,85.715,56.231,85.591,56.325,85.73Z" transform="translate(-25.855 -30.493)" fill="#a6a6a6"/>
      <path id="Caminho_1232" data-name="Caminho 1232" d="M57.046,93.553c1.973,2.641,4.211,5.159,6.029,7.893a.078.078,0,0,1-.124.093,39.886,39.886,0,0,1-6.029-7.909C56.89,93.537,57.046,93.475,57.046,93.553Z" transform="translate(-25.379 -26.149)" fill="#a6a6a6"/>
      <path id="Caminho_1233" data-name="Caminho 1233" d="M61.1,99l.078.093s0,.14-.093.093v-.093S60.977,99,61.1,99Z" transform="translate(-23.095 -23.113)" fill="#a6a6a6"/>
      <path id="Caminho_1234" data-name="Caminho 1234" d="M49.5,96.5a30.314,30.314,0,0,0,6.417,15.056,16.1,16.1,0,0,0,5.236,4.04c2.253,1.1,4.661,2.393,6.945,3.31a45.231,45.231,0,0,1,2.377,8.717,3.507,3.507,0,0,1,.218-.761c-1.461-12.85-9.773-23.82-20.417-30.843a.528.528,0,0,0-.777.482Z" transform="translate(-29.487 -24.796)" fill="#ebebeb"/>
      <path id="Caminho_1235" data-name="Caminho 1235" d="M51.876,98.8a.093.093,0,0,1,.109-.14A43.413,43.413,0,0,1,65.518,115.35a.155.155,0,0,1-.264.155c-.482-.87-.994-1.709-1.554-2.533h0a14.4,14.4,0,0,1-6.526-3.791s0-.109,0,0a15.663,15.663,0,0,0,3.108,2.16c.994.5,2.051.808,3.108,1.212-.9-1.429-1.833-2.8-2.812-4.118a28.279,28.279,0,0,1-7.287-4.1c-.078,0,0-.171,0-.124a74.916,74.916,0,0,0,6.775,3.636,55.938,55.938,0,0,0-4.786-5.578c-.824-.435-1.647-.886-2.455-1.352v-.124a9.2,9.2,0,0,1,1.88.932A24.819,24.819,0,0,0,51.876,98.8Z" transform="translate(-28.18 -23.303)" fill="#a6a6a6"/>
      <path id="Caminho_1236" data-name="Caminho 1236" d="M52.006,101.6a2.7,2.7,0,0,1,.4.3h0a2.224,2.224,0,0,1-.42-.233S52.006,101.558,52.006,101.6Z" transform="translate(-28.108 -21.677)" fill="#a6a6a6"/>
      <path id="Caminho_1237" data-name="Caminho 1237" d="M79.383,131.5H57.49l1.072-14.342.42-4.677H77.689l.42,4.677Z" transform="translate(-25.062 -15.648)" fill="#dbdbdb"/>
      <path id="Caminho_1238" data-name="Caminho 1238" d="M77.727,117.157H58.18l.42-4.677H77.307Z" transform="translate(-24.68 -15.648)" fill="#c7c7c7"/>
      <rect id="Retângulo_582" data-name="Retângulo 582" width="21.691" height="4.801" transform="translate(32.428 92.995)" fill="#dbdbdb"/>
      <rect id="Retângulo_583" data-name="Retângulo 583" width="65.275" height="16.439" transform="translate(125.422 50.545) rotate(90)" fill="#c7c7c7"/>
      <rect id="Retângulo_584" data-name="Retângulo 584" width="7.179" height="16.439" transform="translate(125.422 47.049) rotate(90)" fill="#dbdbdb"/>
      <rect id="Retângulo_585" data-name="Retângulo 585" width="2.657" height="16.439" transform="translate(125.422 63.41) rotate(90)" fill="#dbdbdb"/>
      <rect id="Retângulo_586" data-name="Retângulo 586" width="7.179" height="16.439" transform="translate(125.422 100.08) rotate(90)" fill="#dbdbdb"/>
      <rect id="Retângulo_587" data-name="Retângulo 587" width="76.151" height="11.483" transform="translate(136.905 39.668) rotate(90)" fill="#dbdbdb"/>
      <rect id="Retângulo_588" data-name="Retângulo 588" width="29.289" height="6.899" transform="translate(134.574 46.831) rotate(90)" fill="#ebebeb"/>
      <rect id="Retângulo_589" data-name="Retângulo 589" width="76.151" height="11.483" transform="matrix(0.711, 0.703, -0.703, 0.711, 164.57, 54.029)" fill="#c7c7c7"/>
      <rect id="Retângulo_590" data-name="Retângulo 590" width="29.289" height="6.899" transform="matrix(0.711, 0.703, -0.703, 0.711, 183.599, 76.018)" fill="#dbdbdb"/>
      <rect id="Retângulo_591" data-name="Retângulo 591" width="57.848" height="19.516" transform="translate(156.405 57.988) rotate(90)" fill="#a6a6a6"/>
      <rect id="Retângulo_592" data-name="Retângulo 592" width="5.392" height="19.516" transform="translate(156.405 104.306) rotate(90)" fill="#c7c7c7"/>
      <rect id="Retângulo_593" data-name="Retângulo 593" width="2.098" height="19.516" transform="translate(156.42 98.681) rotate(90)" fill="#c7c7c7"/>
      <rect id="Retângulo_594" data-name="Retângulo 594" width="54.352" height="13.471" transform="translate(109.091 65.917) rotate(113.23)" fill="#a6a6a6"/>
      <rect id="Retângulo_595" data-name="Retângulo 595" width="5.065" height="13.471" transform="translate(91.921 105.907) rotate(113.23)" fill="#c7c7c7"/>
      <rect id="Retângulo_596" data-name="Retângulo 596" width="5.065" height="13.471" transform="translate(104.666 76.189) rotate(113.24)" fill="#c7c7c7"/>
      <rect id="Retângulo_597" data-name="Retângulo 597" width="1.958" height="13.471" transform="translate(101.284 84.035) rotate(113.24)" fill="#c7c7c7"/>
      <path id="Caminho_1239" data-name="Caminho 1239" d="M332.7,311.74v231.3H472.541V311.74ZM459.831,457.672H345.394V397.463H459.831Zm0-74.582H345.394V322.912H459.831Z" transform="translate(127.347 94.701)" fill="#dbdbdb"/>
      <rect id="Retângulo_598" data-name="Retângulo 598" width="63.224" height="231.298" transform="translate(599.873 406.441)" fill="#ebebeb"/>
      <rect id="Retângulo_599" data-name="Retângulo 599" width="27.191" height="60.21" transform="translate(472.742 417.613)" fill="#ebebeb"/>
      <path id="Caminho_1240" data-name="Caminho 1240" d="M455.579,472.25H341.08V414.06h114.5Zm-113.722-.777H454.8V414.837H341.857Z" transform="translate(131.988 151.366)" fill="#ebebeb"/>
      <rect id="Retângulo_600" data-name="Retângulo 600" width="22.592" height="8.251" transform="translate(519.014 581.958)" fill="#ebebeb"/>
      <rect id="Retângulo_601" data-name="Retângulo 601" width="27.191" height="60.21" transform="translate(472.742 492.164)" fill="#ebebeb"/>
      <rect id="Retângulo_602" data-name="Retângulo 602" width="55.517" height="19.127" transform="translate(571.532 496.857) rotate(90)" fill="#a6a6a6"/>
      <rect id="Retângulo_603" data-name="Retângulo 603" width="11.98" height="19.127" transform="translate(571.516 531.475) rotate(90)" fill="#dbdbdb"/>
      <rect id="Retângulo_604" data-name="Retângulo 604" width="7.101" height="19.127" transform="translate(571.516 514.741) rotate(90)" fill="#dbdbdb"/>
      <rect id="Retângulo_605" data-name="Retângulo 605" width="48.354" height="46.458" transform="translate(506.102 431.364)" fill="#ebebeb"/>
      <rect id="Retângulo_606" data-name="Retângulo 606" width="18.381" height="46.458" transform="translate(554.456 431.364)" fill="#c7c7c7"/>
      <path id="Caminho_1241" data-name="Caminho 1241" d="M362.34,342.73h48.354l-37.757,1.2Z" transform="translate(143.762 111.864)" fill="#c7c7c7"/>
      <path id="Caminho_1242" data-name="Caminho 1242" d="M410.694,354.07H362.34l37.757,1.2Z" transform="translate(143.762 118.144)" fill="#c7c7c7"/>
      <path id="Caminho_1243" data-name="Caminho 1243" d="M362.34,334.37h30.625l-27.222.979Z" transform="translate(143.762 107.234)" fill="#c7c7c7"/>
      <path id="Caminho_1244" data-name="Caminho 1244" d="M404.375,349.67H373.75l27.222.979Z" transform="translate(150.081 115.707)" fill="#c7c7c7"/>
      <path id="Caminho_1245" data-name="Caminho 1245" d="M369.81,331.05h34.541l-5.765.575Z" transform="translate(147.899 105.395)" fill="#c7c7c7"/>
      <path id="Caminho_1246" data-name="Caminho 1246" d="M365.37,345.94h34.541l-5.765.575Z" transform="translate(145.44 113.641)" fill="#c7c7c7"/>
      <path id="Caminho_1247" data-name="Caminho 1247" d="M379.04,337.22h22.406l4.009,1.569Z" transform="translate(153.01 108.812)" fill="#ebebeb"/>
      <path id="Caminho_1248" data-name="Caminho 1248" d="M358.37,337.22h22.406l4.009,1.569Z" transform="translate(141.563 108.812)" fill="#ebebeb"/>
      <path id="Caminho_1249" data-name="Caminho 1249" d="M386.294,350.66H363.873l-3.993,1.569Z" transform="translate(142.399 116.255)" fill="#ebebeb"/>
      <path id="Caminho_1250" data-name="Caminho 1250" d="M393.46,347.25h17.993l4.009,1.554Z" transform="translate(160.996 114.367)" fill="#c7c7c7"/>
      <path id="Caminho_1251" data-name="Caminho 1251" d="M397.5,343.184h13.953L409.6,341.91Z" transform="translate(163.233 111.409)" fill="#c7c7c7"/>
      <rect id="Retângulo_607" data-name="Retângulo 607" width="15.647" height="59.215" transform="translate(571.516 493.159)" fill="#ebebeb"/>
      <path id="Caminho_1252" data-name="Caminho 1252" d="M410.643,377.4a3.263,3.263,0,1,1,3.263-3.263A3.263,3.263,0,0,1,410.643,377.4Z" transform="translate(168.705 127.447)" fill="#fff"/>
      <path id="Caminho_1253" data-name="Caminho 1253" d="M410.145,375.5a1.865,1.865,0,1,1,1.865-1.865,1.864,1.864,0,0,1-1.865,1.865Z" transform="translate(169.203 127.946)" fill="#a6a6a6"/>
      <rect id="Retângulo_608" data-name="Retângulo 608" width="14.404" height="15.647" transform="translate(587.179 528.632) rotate(90)" fill="#fff"/>
      <rect id="Retângulo_609" data-name="Retângulo 609" width="59.215" height="12.306" transform="translate(493.174 540.161)" fill="#c7c7c7"/>
      <path id="Caminho_1254" data-name="Caminho 1254" d="M384.61,402.929a3.263,3.263,0,1,1,3.263,3.247A3.263,3.263,0,0,1,384.61,402.929Z" transform="translate(156.095 143.385)" fill="#fff"/>
      <path id="Caminho_1255" data-name="Caminho 1255" d="M385.51,402.425a1.865,1.865,0,1,1,1.865,1.865A1.865,1.865,0,0,1,385.51,402.425Z" transform="translate(156.593 143.889)" fill="#a6a6a6"/>
      <rect id="Retângulo_610" data-name="Retângulo 610" width="14.404" height="12.306" transform="translate(516.901 552.451) rotate(180)" fill="#fff"/>
    </g>
    <g id="freepik--Plant--inject-91" transform="translate(622.224 541.11)">
      <path id="Caminho_1256" data-name="Caminho 1256" d="M474.373,390.551c-14.9,20.2-30.423,43.584-34.183,68.88,0,.388.575.513.653.124a151.737,151.737,0,0,1,6.588-20.2c9.8-2.7,19.407-4.91,24.55-14.637,5.252-9.991,4.584-23.012,3.589-33.9A.68.68,0,0,0,474.373,390.551Z" transform="translate(-398.729 -351.881)" fill="#4d6bfe"/>
      <path id="Caminho_1257" data-name="Caminho 1257" d="M444.94,436.85c6.7-15.025,15.274-30.1,26.2-42.45,0,0,.186,0,.124.124-7.147,8.794-12.586,18.366-17.884,28.108,4.926-5,10.333-9.494,15.01-14.792.093-.109.233,0,.14.14-4.661,5.578-9.7,11.622-15.74,15.74-1.631,2.983-3.263,6-4.91,9,.4-.233.823-.435,1.227-.637l.078.109c-.466.233-.917.482-1.4.684l-2.362,4.242C445.235,437.44,444.8,437.16,444.94,436.85Z" transform="translate(-396.114 -349.608)" fill="#263238"/>
      <path id="Caminho_1258" data-name="Caminho 1258" d="M448.146,421.07a86.64,86.64,0,0,0,11.436-7.629c.093-.078.249,0,.14.14a60.6,60.6,0,0,1-11.4,7.769.171.171,0,0,1-.171-.28Z" transform="translate(-394.348 -339.08)" fill="#263238"/>
      <path id="Caminho_1259" data-name="Caminho 1259" d="M439.441,469.362c0,.311.559.311.544,0,0-8.344,0-16.7.14-25.078,2.129-4.3,6.712-6.7,9.9-10.146a44.085,44.085,0,0,0,5.935-8.266,59.417,59.417,0,0,0,6.9-22.981c.886-8.919-2.5-38.332-6.215-37.291-1.942.528-8.251,15.1-9.913,19.9a137.607,137.607,0,0,0-5.935,24.426C437.7,429.507,437.949,449.629,439.441,469.362Z" transform="translate(-399.736 -365.573)" fill="#4d6bfe"/>
      <path id="Caminho_1260" data-name="Caminho 1260" d="M439.04,431.587h0c.451-10.55,2.828-21.194,5.05-31.418,2.393-11.016,5.19-21.38,10.877-31.2a.16.16,0,0,1,.28.155,116.266,116.266,0,0,0-8.717,23.959c.373-.59.839-1.15,1.228-1.725.155-.218.528,0,.373.218a15.12,15.12,0,0,1-1.771,2.5.093.093,0,0,1-.078,0c-1.942,7.878-3.356,15.926-4.553,23.959a2.53,2.53,0,0,0,.264-.311s.171,0,.124.093-.311.544-.466.808c-.606,4.071-1.165,8.142-1.74,12.182,7.272-6.215,13.471-13.518,16.967-22.53h0c-3.418,9.323-8.826,17.651-17.092,23.307-.155,1.088-.311,2.175-.451,3.263,0,.218-.4.155-.4,0,0-.948,0-1.911.093-2.875a.233.233,0,0,1,.016-.388Z" transform="translate(-399.428 -363.737)" fill="#263238"/>
      <path id="Caminho_1261" data-name="Caminho 1261" d="M441.229,408.506a165.869,165.869,0,0,0,14.792-25.482c0-.093.233,0,.187.078a82.554,82.554,0,0,1-14.7,25.622C441.385,408.863,441.12,408.677,441.229,408.506Z" transform="translate(-398.168 -355.93)" fill="#263238"/>
      <path id="Caminho_1262" data-name="Caminho 1262" d="M446.019,386.055c2.3-4.071,4.661-8.033,6.883-12.166,0-.124.218,0,.171.093a63.066,63.066,0,0,1-6.7,12.275C446.175,386.521,445.833,386.288,446.019,386.055Z" transform="translate(-395.531 -360.996)" fill="#263238"/>
      <path id="Caminho_1263" data-name="Caminho 1263" d="M445.39,382.84Z" transform="translate(-395.85 -356.01)" fill="#263238"/>
      <path id="Caminho_1264" data-name="Caminho 1264" d="M443.728,440.771a84.382,84.382,0,0,1-1.942,16.424c.093.59.171,1.181.264,1.8a78.791,78.791,0,0,0,2.937-18.3.559.559,0,0,0,0-.559h0a121.779,121.779,0,0,0-1.833-24.783c-2.579-15.32-8.22-30-18.894-41.486a.761.761,0,0,0-1.181.249c-4.32,10.954-2.812,24.022.855,34.96a64.217,64.217,0,0,0,8.468,16.61C436.083,430.8,440.76,435.147,443.728,440.771Z" transform="translate(-409.663 -361.081)" fill="#4d6bfe"/>
      <path id="Caminho_1265" data-name="Caminho 1265" d="M423.862,377.1c10.115,16.424,17.092,35.908,18.024,55.3,0,.342-.559.435-.606.093-.249-1.756-.513-3.48-.792-5.205h0a65.776,65.776,0,0,1-11.483-13.254c0-.078.078-.187.14-.109A139.844,139.844,0,0,0,440.3,426.065c-.73-4.289-1.554-8.5-2.595-12.663-.28-.311-.544-.637-.808-.948s.124-.5.3-.3l.249.264a148.214,148.214,0,0,0-5.283-16.8c-2.579-3.108-5.469-5.734-7.334-9.432l.124-.078c1.554,2.113,2.968,4.242,4.661,6.215.684.777,1.445,1.554,2.144,2.269a129.9,129.9,0,0,0-8.282-17.263.233.233,0,0,1,.389-.233Z" transform="translate(-407.992 -359.225)" fill="#263238"/>
      <path id="Caminho_1266" data-name="Caminho 1266" d="M425.083,390.149c3.263,4.4,6.992,8.608,10.037,13.161.078.124-.109.264-.218.155a67.763,67.763,0,0,1-10.053-13.192C424.835,390.134,425.083,389.963,425.083,390.149Z" transform="translate(-407.225 -352.008)" fill="#263238"/>
      <path id="Caminho_1267" data-name="Caminho 1267" d="M431.853,399.25l.14.14c.093.093,0,.249-.14.155l-.14-.14C431.6,399.312,431.76,399.157,431.853,399.25Z" transform="translate(-403.444 -346.938)" fill="#263238"/>
      <path id="Caminho_1268" data-name="Caminho 1268" d="M413.512,397.745a50.5,50.5,0,0,0,10.69,25.063,26.617,26.617,0,0,0,8.655,6.759c3.76,1.849,7.676,3.993,11.56,5.516a75.282,75.282,0,0,1,4.086,14.528c.124-.419.249-.855.388-1.29-2.5-21.38-16.346-39.668-34.059-51.415a.87.87,0,0,0-1.321.839Z" transform="translate(-413.506 -348.292)" fill="#4d6bfe"/>
      <path id="Caminho_1269" data-name="Caminho 1269" d="M417.468,401.561a.15.15,0,0,1,.186-.233,72.391,72.391,0,0,1,22.561,27.813c.124.3-.264.544-.435.249-.823-1.43-1.663-2.843-2.517-4.211h0c-4.04-.761-7.862-3.6-10.877-6.308-.078-.078,0-.186.124-.124a24.86,24.86,0,0,0,5.112,3.589c1.647.839,3.434,1.367,5.143,2.035q-2.331-3.566-4.661-6.868a47.236,47.236,0,0,1-12.151-6.821c-.109-.093,0-.28.124-.2a127.2,127.2,0,0,0,11.281,6.044,99.749,99.749,0,0,0-7.971-9.323c-1.367-.715-2.766-1.445-4.086-2.222-.109,0,0-.249,0-.2a14.422,14.422,0,0,1,3.108,1.554C420.886,404.715,419.239,403.115,417.468,401.561Z" transform="translate(-411.34 -345.784)" fill="#263238"/>
      <path id="Caminho_1270" data-name="Caminho 1270" d="M417.763,406.239a6.6,6.6,0,0,1,.668.482c.078,0,0,.14-.078.109a4.028,4.028,0,0,1-.715-.4C417.514,406.347,417.638,406.145,417.763,406.239Z" transform="translate(-411.247 -343.065)" fill="#263238"/>
      <path id="Caminho_1271" data-name="Caminho 1271" d="M471.355,479.822H422.83l3.916-44.19.87-9.742h38.969l.855,9.742Z" transform="translate(-408.343 -332.169)" fill="#455a64"/>
      <path id="Caminho_1272" data-name="Caminho 1272" d="M466.044,435.632H425.35l.87-9.742h38.969Z" transform="translate(-406.948 -332.169)" fill="#263238"/>
      <rect id="Retângulo_611" data-name="Retângulo 611" width="43.615" height="9.649" transform="translate(16.942 86.9)" fill="#455a64"/>
    </g>
    <g id="freepik--Chair--inject-91" transform="translate(132.722 330.194)">
      <path id="Caminho_1273" data-name="Caminho 1273" d="M199.359,352.34c-6.883,4.071-13.829,8.018-20.79,11.933s-13.984,7.769-20.961,11.607-13.984,7.614-21.116,11.343l-10.612,5.563c-3.558,1.8-7.1,3.667-10.69,5.438,3.434-2.051,6.914-4.024,10.364-6.044l10.426-5.9c6.961-3.916,13.984-7.769,20.961-11.607s13.984-7.6,21.116-11.327S192.212,355.914,199.359,352.34Z" transform="translate(-89.211 -161.985)" fill="#dbdbdb"/>
      <path id="Caminho_1274" data-name="Caminho 1274" d="M119,352.34c6.65,3.108,13.238,6.464,19.8,9.789s13.083,6.759,19.64,10.131,13.005,6.883,19.469,10.41l9.7,5.3c3.2,1.818,6.433,3.589,9.618,5.438-3.341-1.554-6.619-3.216-9.944-4.832l-9.867-4.957c-6.557-3.325-13.083-6.759-19.624-10.131s-13.005-6.883-19.469-10.41S125.417,356.007,119,352.34Z" transform="translate(-87.101 -161.985)" fill="#dbdbdb"/>
      <path id="Caminho_1275" data-name="Caminho 1275" d="M250.473,352.34c-6.868,4.071-13.813,8.018-20.774,11.933s-13.984,7.769-20.976,11.607-13.984,7.614-21.116,11.343l-10.612,5.563c-3.558,1.8-7.1,3.667-10.675,5.438,3.434-2.051,6.9-4.024,10.348-6.044l10.426-5.9c6.961-3.916,13.984-7.769,20.976-11.607s13.984-7.6,21.116-11.327S243.326,355.914,250.473,352.34Z" transform="translate(-60.895 -161.985)" fill="#dbdbdb"/>
      <path id="Caminho_1276" data-name="Caminho 1276" d="M170.14,352.34c6.65,3.108,13.238,6.464,19.811,9.789s13.083,6.759,19.624,10.131,13.021,6.883,19.485,10.41l9.68,5.3c3.216,1.818,6.433,3.589,9.618,5.438-3.325-1.554-6.619-3.216-9.929-4.832l-9.867-4.957c-6.573-3.325-13.083-6.759-19.624-10.131s-13.021-6.883-19.485-10.41S176.526,356.007,170.14,352.34Z" transform="translate(-58.78 -161.985)" fill="#dbdbdb"/>
      <path id="Caminho_1277" data-name="Caminho 1277" d="M211.14,345.26l4.2,25.249,28.512,153.965h4.6L227.719,370.509l-3.061-25.249Z" transform="translate(-36.074 -165.906)" fill="#dbdbdb"/>
      <path id="Caminho_1278" data-name="Caminho 1278" d="M224.658,345.26H211.14l4.2,25.249h12.384Z" transform="translate(-36.074 -165.906)" fill="#c7c7c7"/>
      <path id="Caminho_1279" data-name="Caminho 1279" d="M153.51,524.475h4.6l28.512-153.965,4.211-25.249H177.314l-3.061,25.249Z" transform="translate(-67.989 -165.906)" fill="#dbdbdb"/>
      <path id="Caminho_1280" data-name="Caminho 1280" d="M169.921,345.26l-3.061,25.249h12.368l4.211-25.249Z" transform="translate(-60.596 -165.906)" fill="#c7c7c7"/>
      <path id="Caminho_1281" data-name="Caminho 1281" d="M98.47,524.475h4.6l28.512-153.965,4.211-25.249H122.274l-3.061,25.249Z" transform="translate(-98.47 -165.906)" fill="#dbdbdb"/>
      <path id="Caminho_1282" data-name="Caminho 1282" d="M111.82,370.509h12.368L128.4,345.26H114.881Z" transform="translate(-91.077 -165.906)" fill="#c7c7c7"/>
      <path id="Caminho_1283" data-name="Caminho 1283" d="M103.16,421.04H312.083v-22h-78.2L207.59,229.83h-96.46Z" transform="translate(-95.873 -229.83)" fill="#dbdbdb"/>
      <path id="Caminho_1284" data-name="Caminho 1284" d="M103.16,421.04h11.389l7.427-191.21H111.131Z" transform="translate(-95.873 -229.83)" fill="#c7c7c7"/>
    </g>
    <g id="freepik--Table--inject-91" transform="translate(36.62 407.977)">
      <rect id="Retângulo_612" data-name="Retângulo 612" width="37.322" height="6.557" transform="translate(41.875 184.762)" fill="#455a64"/>
      <path id="Caminho_1285" data-name="Caminho 1285" d="M121.31,550.442h-4.04L84.407,396.989l-1.88-8.748-5.9-27.549-2.191-10.271-8.282-38.55-2.89-13.5H77.617l2.346,13.5,1.538,8.857,1.026,5.9,5.889,34.059,1.911,10.954Z" transform="translate(-21.867 -269.656)" fill="#455a64"/>
      <path id="Caminho_1286" data-name="Caminho 1286" d="M77.617,298.37l2.346,13.5H66.15l-2.89-13.5Z" transform="translate(-21.867 -269.656)" fill="#263238"/>
      <path id="Caminho_1287" data-name="Caminho 1287" d="M86.345,363.678l-5.92,25.342-1.88-8.748-5.9-27.549L70.45,342.453l7.07-29.693,1.026,5.9,5.889,34.059Z" transform="translate(-17.885 -261.687)" fill="#263238"/>
      <path id="Caminho_1288" data-name="Caminho 1288" d="M108.734,298.37l-2.89,13.5-10.473,48.82-5.889,27.549-34.758,162.2H50.7L83.578,360.693l5.9-34.059,2.548-14.761,2.346-13.5Z" transform="translate(-28.823 -269.656)" fill="#455a64"/>
      <path id="Caminho_1289" data-name="Caminho 1289" d="M94,298.37l-2.89,13.5H77.3l2.346-13.5Z" transform="translate(-14.092 -269.656)" fill="#263238"/>
      <rect id="Retângulo_613" data-name="Retângulo 613" width="37.322" height="6.557" transform="translate(376.733 184.762)" fill="#455a64"/>
      <path id="Caminho_1290" data-name="Caminho 1290" d="M336.82,550.442h-4.04L299.917,396.989l-1.88-8.748-5.9-27.549-2.191-10.271-8.282-38.55-2.89-13.5h14.357l2.346,13.5,1.538,8.857,1.026,5.9,5.889,34.059,1.911,10.954Z" transform="translate(97.481 -269.656)" fill="#455a64"/>
      <path id="Caminho_1291" data-name="Caminho 1291" d="M293.127,298.37l2.346,13.5H281.66l-2.89-13.5Z" transform="translate(97.481 -269.656)" fill="#263238"/>
      <path id="Caminho_1292" data-name="Caminho 1292" d="M301.855,363.678l-5.92,25.342-1.88-8.748-5.9-27.549-2.191-10.271,7.07-29.693,1.026,5.9,5.889,34.059Z" transform="translate(101.463 -261.687)" fill="#263238"/>
      <path id="Caminho_1293" data-name="Caminho 1293" d="M324.244,298.37l-2.89,13.5-10.473,48.82-5.889,27.549-34.758,162.2H266.21l32.878-189.749,5.9-34.059,2.548-14.761,2.346-13.5Z" transform="translate(90.526 -269.656)" fill="#455a64"/>
      <path id="Caminho_1294" data-name="Caminho 1294" d="M309.513,298.37l-2.89,13.5H292.81l2.346-13.5Z" transform="translate(105.256 -269.656)" fill="#263238"/>
      <rect id="Retângulo_614" data-name="Retângulo 614" width="429.298" height="9.867" transform="translate(13.44 18.847)" fill="#455a64"/>
      <rect id="Retângulo_615" data-name="Retângulo 615" width="456.178" height="18.848" transform="translate(0 0)" fill="#37474f"/>
    </g>
    <g id="freepik--Sheets--inject-91" transform="translate(43.053 342.733)">
      <rect id="Retângulo_616" data-name="Retângulo 616" width="66.937" height="64.312" transform="translate(97.392 64.312) rotate(180)" fill="#ebebeb"/>
      <rect id="Retângulo_617" data-name="Retângulo 617" width="25.436" height="64.312" transform="translate(30.454 64.312) rotate(180)" fill="#c7c7c7"/>
      <path id="Caminho_1295" data-name="Caminho 1295" d="M127.3,258.59H60.36l52.27,1.663Z" transform="translate(-29.906 -226.442)" fill="#c7c7c7"/>
      <path id="Caminho_1296" data-name="Caminho 1296" d="M60.36,274.29H127.3l-52.27,1.662Z" transform="translate(-29.906 -217.747)" fill="#c7c7c7"/>
      <path id="Caminho_1297" data-name="Caminho 1297" d="M118.553,247.02H76.15l37.7,1.352Z" transform="translate(-21.161 -232.849)" fill="#c7c7c7"/>
      <path id="Caminho_1298" data-name="Caminho 1298" d="M60.36,268.2h42.4l-37.7,1.352Z" transform="translate(-29.906 -221.12)" fill="#c7c7c7"/>
      <path id="Caminho_1299" data-name="Caminho 1299" d="M110.156,242.42H62.33l7.971.808Z" transform="translate(-28.815 -235.397)" fill="#c7c7c7"/>
      <path id="Caminho_1300" data-name="Caminho 1300" d="M116.29,263.03H68.48l7.971.808Z" transform="translate(-25.409 -223.983)" fill="#c7c7c7"/>
      <path id="Caminho_1301" data-name="Caminho 1301" d="M93.361,250.97H62.332L56.8,253.13Z" transform="translate(-31.877 -230.662)" fill="#ebebeb"/>
      <path id="Caminho_1302" data-name="Caminho 1302" d="M121.971,250.97H90.941l-5.531,2.16Z" transform="translate(-16.033 -230.662)" fill="#dbdbdb"/>
      <path id="Caminho_1303" data-name="Caminho 1303" d="M83.32,269.57h31.014l5.547,2.16Z" transform="translate(-17.191 -220.361)" fill="#dbdbdb"/>
      <path id="Caminho_1304" data-name="Caminho 1304" d="M71.214,264.85H46.307l-5.547,2.16Z" transform="translate(-40.76 -222.975)" fill="#c7c7c7"/>
      <path id="Caminho_1305" data-name="Caminho 1305" d="M61.659,259.216H42.33l2.579-1.756Z" transform="translate(-39.891 -227.068)" fill="#c7c7c7"/>
    </g>
    <g id="freepik--Clipboard--inject-91" transform="translate(338.786 48.6)">
      <rect id="Retângulo_618" data-name="Retângulo 618" width="341.602" height="453.723" transform="translate(9.292 32.972)" fill="#4d6bfe"/>
      <g id="Grupo_978" data-name="Grupo 978" transform="translate(9.292 32.972)" opacity="0.1">
        <rect id="Retângulo_619" data-name="Retângulo 619" width="341.602" height="453.723" fill="#020100"/>
      </g>
      <rect id="Retângulo_620" data-name="Retângulo 620" width="341.602" height="453.723" transform="translate(0 32.972)" fill="#4d6bfe"/>
      <rect id="Retângulo_621" data-name="Retângulo 621" width="301.56" height="408.788" transform="translate(20.641 54.925) rotate(-0.73)" fill="#ebebeb"/>
      <rect id="Retângulo_622" data-name="Retângulo 622" width="408.788" height="301.56" transform="translate(14.242 458.5) rotate(-88.76)" fill="#dbdbdb"/>
      <rect id="Retângulo_623" data-name="Retângulo 623" width="301.56" height="408.788" transform="translate(18.599 53)" fill="#fff"/>
      <path id="Caminho_1306" data-name="Caminho 1306" d="M297.525,173.795c-8.049.2-23.664.513-31.713.606-.171-9.323-.124-22.359-.2-31.744v-.777h.777c9.432.093,22.437,0,31.744.186-.109,8.064-.388,23.68-.606,31.728Zm0,0c-.2-7.769-.482-23.307-.59-31.076l.59.59c-9,.109-22,.14-31.076.186l.777-.777c0,9.183-.078,22.079-.186,31.076l-.59-.59C274.218,173.3,289.834,173.608,297.525,173.795Z" transform="translate(-211.973 3.058)" fill="#c7c7c7"/>
      <path id="Caminho_1307" data-name="Caminho 1307" d="M296.8,146.092c22.825-1.057,45.837-1.057,68.662,0C342.621,147.165,319.625,147.149,296.8,146.092Z" transform="translate(-194.7 4.952)" fill="#c7c7c7"/>
      <path id="Caminho_1308" data-name="Caminho 1308" d="M296.8,150.914c58.547-1.041,123.635-1.01,182.229,0C420.42,151.909,355.362,151.94,296.8,150.914Z" transform="translate(-194.7 7.635)" fill="#c7c7c7"/>
      <path id="Caminho_1309" data-name="Caminho 1309" d="M267.59,158.415c1.15.963,2.237,1.958,3.325,2.968s2.129,2.051,3.108,3.108c2.1,2.067,4.118,4.2,6.106,6.355l-3.558.233a139.22,139.22,0,0,1,9.7-17.092q2.7-4.071,5.749-7.955a74.4,74.4,0,0,1,6.65-7.412,74.407,74.407,0,0,1-3.481,9.323c-1.321,3-2.781,5.936-4.351,8.794a143.294,143.294,0,0,1-10.535,16.5l-1.958,2.61-1.554-2.377c-1.647-2.439-3.263-4.894-4.817-7.4-.746-1.274-1.554-2.517-2.268-3.807S268.227,159.752,267.59,158.415Z" transform="translate(-210.876 1.253)" fill="#263238"/>
      <path id="Caminho_1310" data-name="Caminho 1310" d="M297.525,211.375c-8.049.2-23.664.513-31.713.606-.171-9.323-.124-22.344-.2-31.744v-.777h.777c9.432.093,22.437,0,31.744.2-.109,8.064-.388,23.664-.606,31.713Zm0,0c-.2-7.769-.482-23.307-.59-31.076l.59.606c-9,.109-22,.124-31.076.171l.777-.777c0,9.183-.078,22.095-.186,31.076l-.59-.59C274.218,210.878,289.834,211.188,297.525,211.375Z" transform="translate(-211.973 23.869)" fill="#c7c7c7"/>
      <path id="Caminho_1311" data-name="Caminho 1311" d="M296.8,183.645c22.825-1.057,45.837-1.072,68.662,0C342.621,184.7,319.625,184.7,296.8,183.645Z" transform="translate(-194.7 25.745)" fill="#c7c7c7"/>
      <path id="Caminho_1312" data-name="Caminho 1312" d="M296.8,188.452c58.547-1.025,123.635-1.01,182.229,0C420.42,189.462,355.362,189.493,296.8,188.452Z" transform="translate(-194.7 28.426)" fill="#c7c7c7"/>
      <path id="Caminho_1313" data-name="Caminho 1313" d="M267.59,195.922c1.15.963,2.237,1.958,3.325,2.968s2.129,2.051,3.108,3.108c2.1,2.082,4.118,4.211,6.106,6.371l-3.558.218a140.192,140.192,0,0,1,9.7-17q2.7-4.071,5.749-7.955a72.7,72.7,0,0,1,6.65-7.412,74.193,74.193,0,0,1-3.48,9.323c-1.321,3.014-2.781,5.936-4.351,8.81A143.109,143.109,0,0,1,280.3,210.839l-1.958,2.626-1.554-2.393c-1.647-2.424-3.263-4.879-4.817-7.4-.746-1.274-1.554-2.517-2.268-3.807S268.227,197.258,267.59,195.922Z" transform="translate(-210.876 22.075)" fill="#263238"/>
      <path id="Caminho_1314" data-name="Caminho 1314" d="M297.525,248.868c-8.049.2-23.664.513-31.713.606-.171-9.323-.124-22.359-.2-31.744V217h.777c9.432.093,22.437,0,31.744.186-.109,8.064-.388,23.664-.606,31.728Zm0,0c-.2-7.769-.482-23.307-.59-31.076l.59.59c-9,.109-22,.14-31.076.186l.777-.777c0,9.183-.078,22.079-.186,31.076l-.59-.59C274.218,248.371,289.834,248.682,297.525,248.868Z" transform="translate(-211.973 44.659)" fill="#c7c7c7"/>
      <path id="Caminho_1315" data-name="Caminho 1315" d="M296.8,221.182c22.825-1.057,45.837-1.057,68.662,0C342.621,222.239,319.625,222.239,296.8,221.182Z" transform="translate(-194.7 46.536)" fill="#c7c7c7"/>
      <path id="Caminho_1316" data-name="Caminho 1316" d="M296.8,226c58.547-1.041,123.635-1.01,182.229,0C420.42,227,355.362,227.03,296.8,226Z" transform="translate(-194.7 49.219)" fill="#c7c7c7"/>
      <path id="Caminho_1317" data-name="Caminho 1317" d="M297.525,286.425c-8.049.2-23.664.513-31.713.606-.171-9.323-.124-22.344-.2-31.744v-.777h.777c9.432.093,22.437,0,31.744.2-.109,8.049-.388,23.664-.606,31.713Zm0,0c-.2-7.769-.482-23.307-.59-31.076l.59.606c-9,.109-22,.124-31.076.171l.777-.777c0,9.183-.078,22.095-.186,31.076l-.59-.59C274.218,285.928,289.834,286.238,297.525,286.425Z" transform="translate(-211.973 65.432)" fill="#c7c7c7"/>
      <path id="Caminho_1318" data-name="Caminho 1318" d="M296.8,258.737c22.825-1.072,45.837-1.072,68.662,0C342.621,259.793,319.625,259.793,296.8,258.737Z" transform="translate(-194.7 67.327)" fill="#c7c7c7"/>
      <path id="Caminho_1319" data-name="Caminho 1319" d="M296.8,263.542c58.547-1.025,123.635-1.01,182.229,0C420.42,264.552,355.362,264.583,296.8,263.542Z" transform="translate(-194.7 70.011)" fill="#c7c7c7"/>
      <path id="Caminho_1320" data-name="Caminho 1320" d="M297.525,323.975c-8.049.2-23.664.5-31.713.606-.171-9.323-.124-22.359-.2-31.744v-.777h.777c9.432.093,22.437,0,31.744.186-.109,8.064-.388,23.664-.606,31.729Zm0,0c-.2-7.769-.482-23.385-.59-31.076l.59.59c-9,.109-22,.14-31.076.186l.777-.777c0,9.183-.078,22.079-.186,31.076l-.59-.59C274.218,323.478,289.834,323.788,297.525,323.975Z" transform="translate(-211.973 86.227)" fill="#c7c7c7"/>
      <path id="Caminho_1321" data-name="Caminho 1321" d="M296.8,296.282c22.825-1.057,45.837-1.057,68.662,0C342.621,297.339,319.625,297.339,296.8,296.282Z" transform="translate(-194.7 88.126)" fill="#c7c7c7"/>
      <path id="Caminho_1322" data-name="Caminho 1322" d="M296.8,301.094c58.547-1.041,123.635-1.01,182.229,0C420.42,302.089,355.362,302.12,296.8,301.094Z" transform="translate(-194.7 90.804)" fill="#c7c7c7"/>
      <path id="Caminho_1323" data-name="Caminho 1323" d="M326.369,111.716h-4.18V125.7a1.445,1.445,0,1,1-2.89,0V111.716h-4.164a1.461,1.461,0,0,1-1.445-1.461,1.43,1.43,0,0,1,1.445-1.445h11.234a1.429,1.429,0,0,1,1.445,1.445A1.554,1.554,0,0,1,326.369,111.716Z" transform="translate(-185.347 -15.256)" fill="#4d6bfe"/>
      <path id="Caminho_1324" data-name="Caminho 1324" d="M333.736,122.883H327.35l-1.29,3.418a1.461,1.461,0,0,1-1.367.917,1.663,1.663,0,0,1-.5-.078,1.554,1.554,0,0,1-.87-1.9l5.811-15.538a1.525,1.525,0,0,1,2.8,0l5.811,15.538a1.554,1.554,0,0,1-.87,1.9,1.662,1.662,0,0,1-.5.078,1.429,1.429,0,0,1-1.352-.917Zm-1.072-2.89-2.129-5.656-2.129,5.656Z" transform="translate(-180.05 -15.267)" fill="#4d6bfe"/>
      <path id="Caminho_1325" data-name="Caminho 1325" d="M334.339,122.827a1.367,1.367,0,0,1,1.927-.186,8.515,8.515,0,0,0,5.019,2.02,5.594,5.594,0,0,0,3.294-.979,2.362,2.362,0,0,0,1.119-1.88,1.554,1.554,0,0,0-.233-.855,2.516,2.516,0,0,0-.792-.777,10.706,10.706,0,0,0-3.589-1.243h0a13.705,13.705,0,0,1-3.387-1.026,5.749,5.749,0,0,1-2.455-2.051,4.056,4.056,0,0,1-.59-2.16,4.863,4.863,0,0,1,2.1-3.838,7.862,7.862,0,0,1,4.553-1.383,10.333,10.333,0,0,1,5.733,2.1,1.352,1.352,0,0,1,.357,1.865,1.321,1.321,0,0,1-1.865.4,7.567,7.567,0,0,0-4.226-1.694,5.05,5.05,0,0,0-2.952.9,2.067,2.067,0,0,0-.995,1.647,1.243,1.243,0,0,0,.186.746,2.439,2.439,0,0,0,.7.684,9.323,9.323,0,0,0,3.294,1.15h0a15.617,15.617,0,0,1,3.636,1.1,6.215,6.215,0,0,1,2.626,2.191,4.289,4.289,0,0,1,.637,2.237,5.081,5.081,0,0,1-2.268,4.071,8.219,8.219,0,0,1-4.863,1.554,11.234,11.234,0,0,1-6.728-2.626,1.4,1.4,0,0,1-.233-1.973Z" transform="translate(-174.08 -15.445)" fill="#4d6bfe"/>
      <path id="Caminho_1326" data-name="Caminho 1326" d="M345.89,125.718V110.335a1.445,1.445,0,0,1,2.89,0v7.551l8.515-8.546a1.429,1.429,0,0,1,2.051,0,1.461,1.461,0,0,1,0,2.051l-5.78,5.749,5.842,7.66a1.4,1.4,0,0,1-.218,2.02,1.352,1.352,0,0,1-.917.342,1.414,1.414,0,0,1-1.072-.528l-5.687-7.443-2.735,2.8v3.729a1.445,1.445,0,0,1-2.89,0Z" transform="translate(-167.514 -15.212)" fill="#4d6bfe"/>
      <path id="Caminho_1327" data-name="Caminho 1327" d="M357.572,122.827a1.336,1.336,0,0,1,1.911-.186,8.546,8.546,0,0,0,5.019,2.02,5.594,5.594,0,0,0,3.294-.979,2.346,2.346,0,0,0,1.134-1.88,1.461,1.461,0,0,0-.249-.855,2.611,2.611,0,0,0-.777-.777,10.675,10.675,0,0,0-3.6-1.243h0a13.705,13.705,0,0,1-3.387-1.026,5.625,5.625,0,0,1-2.439-2.051,3.93,3.93,0,0,1-.606-2.16,4.863,4.863,0,0,1,2.1-3.838,7.862,7.862,0,0,1,4.553-1.383,10.286,10.286,0,0,1,5.733,2.1,1.375,1.375,0,1,1-1.554,2.269,7.567,7.567,0,0,0-4.226-1.694,5.05,5.05,0,0,0-2.952.9,2.113,2.113,0,0,0-.995,1.647,1.367,1.367,0,0,0,.186.746,2.533,2.533,0,0,0,.715.684,9.23,9.23,0,0,0,3.279,1.15h0a15.708,15.708,0,0,1,3.62,1.1,6.215,6.215,0,0,1,2.626,2.191,4.15,4.15,0,0,1,.637,2.237,5.081,5.081,0,0,1-2.269,4.071,8.189,8.189,0,0,1-4.863,1.554,11.327,11.327,0,0,1-6.728-2.626,1.383,1.383,0,0,1-.155-1.973Z" transform="translate(-161.235 -15.445)" fill="#4d6bfe"/>
      <rect id="Retângulo_624" data-name="Retângulo 624" width="148.123" height="45.153" transform="translate(93.461 24.69)" fill="#c7c7c7"/>
      <path id="Caminho_1328" data-name="Caminho 1328" d="M402.263,48.6H310.341L306.27,73.29H407.7ZM356.97,66.313a5.407,5.407,0,1,1,3.839-1.584A5.423,5.423,0,0,1,356.97,66.313Z" transform="translate(-189.456 -48.6)" fill="#c7c7c7"/>
      <path id="Caminho_1329" data-name="Caminho 1329" d="M407.7,66.456H306.27l.917-5.516h99.287Z" transform="translate(-189.456 -41.766)" fill="#a6a6a6"/>
    </g>
    <g id="freepik--Floor--inject-91" transform="translate(36.62 688.046)">
      <path id="Caminho_1330" data-name="Caminho 1330" d="M36.62,460.855c212.4-.948,450.693-.963,663.1,0-212.4.963-450.693.948-663.1,0Z" transform="translate(-36.62 -460.139)" fill="#263238"/>
    </g>
    <g id="freepik--Character--inject-91" transform="translate(146.464 111.983)">
      <path id="Caminho_1331" data-name="Caminho 1331" d="M282.09,499.56c-3.791,1.243-112.153-.14-116.239-2.828-1.554-.979-2.284-16.781-2.61-35.893v-.606c-.078-3.931-.124-8-.14-12.1v-1.694l5.236-56.216,72.484.7-7.132,55.688-.093,2.206-.435,11.529v1.181s41.238,19.081,45.417,22.5S285.9,498.364,282.09,499.56Z" transform="translate(-76.42 77.204)" fill="#ad6359"/>
      <path id="Caminho_1332" data-name="Caminho 1332" d="M282.09,479.524c-3.791,1.243-112.153-.14-116.239-2.828-1.554-.979-2.284-16.781-2.61-35.893V440.2c-.078-3.931-.124-8-.14-12.1V426.4l70.589.171-.093,2.206-.435,11.529v1.181s41.238,19.081,45.417,22.5S285.9,478.328,282.09,479.524Z" transform="translate(-76.42 97.24)" fill="#ebebeb"/>
      <path id="Caminho_1333" data-name="Caminho 1333" d="M282.066,474.612c-1.958.637-31.387.575-60.163,0-5.8-.124-11.545-.249-17.092-.4-20.526-.559-37.478-1.4-39.047-2.424s-2.284-16.346-2.595-35.1V435.27h.078l69.828.124v1.181s41.253,19.081,45.433,22.483S285.858,473.4,282.066,474.612Z" transform="translate(-76.382 102.153)" fill="#4d6bfe"/>
      <path id="Caminho_1334" data-name="Caminho 1334" d="M278.2,458.321c-18.257-.684-91.969-1.709-110.071-.994-.155,0-.155.109,0,.124,18.086,1.072,91.8,1.554,110.071,1.165C278.591,458.616,278.591,458.336,278.2,458.321Z" transform="translate(-73.699 114.233)" fill="#263238"/>
      <path id="Caminho_1335" data-name="Caminho 1335" d="M220.9,435.752c-7.163-1.43-15.973-.435-21.536,4.661-.218.2,0,.5.311.435a101.15,101.15,0,0,1,21.178-4.133.482.482,0,1,0,.047-.963Z" transform="translate(-56.388 102.09)" fill="#263238"/>
      <path id="Caminho_1336" data-name="Caminho 1336" d="M224.2,437.813c-7.163-1.43-15.973-.451-21.52,4.661-.218.2,0,.513.3.435a101.084,101.084,0,0,1,21.194-4.133.482.482,0,1,0,.031-.963Z" transform="translate(-54.549 103.23)" fill="#263238"/>
      <path id="Caminho_1337" data-name="Caminho 1337" d="M227.527,439.862c-7.179-1.43-15.973-.435-21.536,4.661-.218.2,0,.5.3.435a100.3,100.3,0,0,1,21.194-4.133.482.482,0,1,0,.047-.963Z" transform="translate(-52.716 104.366)" fill="#263238"/>
      <path id="Caminho_1338" data-name="Caminho 1338" d="M221.933,474.612c-5.8-.124-11.545-.249-17.092-.4-20.526-.559-37.478-1.4-39.047-2.424s-2.284-16.346-2.595-35.1V435.27h.078C172.834,441.982,206.551,464.373,221.933,474.612Z" transform="translate(-76.365 102.153)" fill="#263238"/>
      <path id="Caminho_1339" data-name="Caminho 1339" d="M251.325,568.83H173.293s15.662-182.276,15.056-185.461c-.777-4.071-5.392-22.514-11.529-46.614-1.927-7.551-4.009-15.631-6.215-24.022-5.827-22.67-12.244-47.453-17.838-69.02-8.406-32.3-14.947-48.944-14.947-48.944h66.129s54.383,155.659,56.543,187.823C262.4,410.654,251.325,568.83,251.325,568.83Z" transform="translate(-90.42 -31.035)" fill="#263238"/>
      <path id="Caminho_1340" data-name="Caminho 1340" d="M233.629,427.133c-11.918-.249-8.484-.342-20.4-.466-5.842,0-44.174-.373-49.628.528-.109,0-.109.218,0,.249,5.454.9,43.786.559,49.628.5,11.918-.124,8.484-.218,20.4-.466a.171.171,0,0,0,0-.342Z" transform="translate(-76.189 97.346)" fill="#37474f"/>
      <path id="Caminho_1341" data-name="Caminho 1341" d="M198.2,366.348c-2.564-11.281-6.386-22.328-9.727-33.407q-10.146-33.748-20.432-67.45c-3.418-11.234-19.283-53.28-20.852-58.873-.637-2.269-.979-1.026-.155,1.865,1.647,5.827,28.745,89.172,35.613,112.013q5.159,17.185,10.333,34.339a142.116,142.116,0,0,1,4.226,16.61,76.43,76.43,0,0,1,.684,17.775c-.746,11.933-2.129,23.866-3.216,35.737l-3.31,35.737q-3.294,35.644-6.526,71.273c-.264,3.014-.528,6.013-.761,9.028,0,1.01,1.445.932,1.554,0,2.564-23.493,4.537-47.064,6.728-70.589s4.382-46.816,6.557-70.232c.559-5.873,1.181-11.762,1.181-17.667a73.244,73.244,0,0,0-1.9-16.159Z" transform="translate(-85.587 -25.123)" fill="#37474f"/>
      <path id="Caminho_1342" data-name="Caminho 1342" d="M196.485,194.77c-4.661,35.52-13.316,93.678-19.687,142-14.932-58.547-38.938-141.986-38.938-141.986Z" transform="translate(-90.398 -31.035)" fill="#37474f"/>
      <path id="Caminho_1343" data-name="Caminho 1343" d="M230.24,500.1c-3.807,1.243-112.168.249-116.255-2.408-1.554-.979-2.362-16.781-2.75-35.893v-.606c-.093-3.931-.155-7.987-.186-12.1V447.4c-.264-27.6,1.725-56.216,1.725-56.216l70.822.451-1.973,55.688v2.206l-.4,11.529v1.181s41.3,18.941,45.511,22.328S234.031,498.873,230.24,500.1Z" transform="translate(-105.26 77.736)" fill="#ad6359"/>
      <path id="Caminho_1344" data-name="Caminho 1344" d="M230.232,480.092c-3.807,1.243-112.168.249-116.255-2.408-1.554-.979-2.362-16.781-2.75-35.893v-.606c-.093-3.931-.155-7.987-.186-12.1v-1.694l70.573-.078v2.206l-.4,11.529v1.181s41.3,18.941,45.511,22.328S234.023,478.865,230.232,480.092Z" transform="translate(-105.251 97.744)" fill="#ebebeb"/>
      <path id="Caminho_1345" data-name="Caminho 1345" d="M230.165,475.2c-3.807,1.243-112.168.249-116.255-2.408-1.554-.979-2.362-16.781-2.75-35.893v-.606l69.921-.14v1.181s41.3,18.941,45.511,22.328S233.956,473.969,230.165,475.2Z" transform="translate(-105.184 102.64)" fill="#4d6bfe"/>
      <path id="Caminho_1346" data-name="Caminho 1346" d="M226.272,458.9c-18.257-.621-91.969-1.367-110.071-.59-.155,0-.155.109,0,.109,18.086,1.01,91.8,1.165,110.071.777C226.63,459.179,226.63,458.915,226.272,458.9Z" transform="translate(-102.457 114.727)" fill="#263238"/>
      <path id="Caminho_1347" data-name="Caminho 1347" d="M168.855,436.524c-7.179-1.4-15.973-.373-21.52,4.661-.2.2.078.5.311.435a99.915,99.915,0,0,1,21.178-4.211.466.466,0,0,0,.031-.886Z" transform="translate(-85.19 102.53)" fill="#263238"/>
      <path id="Caminho_1348" data-name="Caminho 1348" d="M172.175,438.577c-7.178-1.414-15.973-.388-21.52,4.661-.2.2.078.5.311.435a101.274,101.274,0,0,1,21.178-4.118.49.49,0,1,0,.031-.979Z" transform="translate(-83.351 103.662)" fill="#263238"/>
      <path id="Caminho_1349" data-name="Caminho 1349" d="M175.5,440.617c-7.179-1.414-15.973-.388-21.5,4.661-.218.186,0,.5.3.419a101.283,101.283,0,0,1,21.178-4.164.459.459,0,1,0,.031-.917Z" transform="translate(-81.514 104.792)" fill="#263238"/>
      <path id="Caminho_1350" data-name="Caminho 1350" d="M220.269,194.77a255.2,255.2,0,0,1-8.748,48.261c-.575,2.067-1.212,4.1-1.9,6.06,0,0-5.842,2.735-17.371,9.8,0,0-.746,25.467-1.554,53.854-.839,31.744-1.709,67.155-1.554,74.66.668,28.093-3.481,182.571-3.481,182.571l-78.016.342S121.634,397.851,121.634,387.5c-.155-16.548,3.76-89.654,6.775-142.949,1.849-32.847,3.372-49.721,3.372-49.721Z" transform="translate(-107.128 -31.035)" fill="#263238"/>
      <path id="Caminho_1351" data-name="Caminho 1351" d="M181.181,427.454c-11.918-.186-8.5-.311-20.417-.357-5.827,0-44.159-.2-49.613.73-.124,0-.109.218,0,.233,5.454.886,43.786.373,49.628.3,11.918-.171,8.484-.249,20.4-.544a.186.186,0,0,0,0-.357Z" transform="translate(-105.238 97.616)" fill="#37474f"/>
      <path id="Caminho_1352" data-name="Caminho 1352" d="M134.445,202.167c-1.429,43.506-2.937,78.606-4.879,122.128s-4.568,87.292-8.2,130.845c-2.035,24.332-3.947,58.563-6.573,82.848,0,.155.233.218.249,0,5.671-43.18,8.826-96.568,11.622-140.028s4.661-87.012,6.137-130.519c.824-24.612,1.461-40.787,2.191-65.4C135,201.778,134.461,201.809,134.445,202.167Z" transform="translate(-103.174 -27.104)" fill="#37474f"/>
      <path id="Caminho_1353" data-name="Caminho 1353" d="M129.442,229.374c1.927-.5,3.978-.653,5.936-.963,1.554-.249,3.108-.528,4.661-.87a20.634,20.634,0,0,0,8.328-3.512c3.884-3.108,8.359-18.444,8.9-19.422.932-1.694,1.212-.218,1.212,0,0,1.787-4.086,15.274-5.671,17.791-2.89,4.661-8.08,6.464-13.254,7.116-1.476.186-2.968.3-4.459.373a31.274,31.274,0,0,1-5.656,0,.264.264,0,0,1,0-.513Z" transform="translate(-95.171 -26.032)" fill="#37474f"/>
      <path id="Caminho_1354" data-name="Caminho 1354" d="M180.983,230.007a139.731,139.731,0,0,0-21.94,10.193.249.249,0,0,0,.2.451c7.4-3.108,14.948-6.215,22.173-9.8a.482.482,0,0,0-.435-.839Z" transform="translate(-78.734 -11.532)" fill="#37474f"/>
      <path id="Caminho_1355" data-name="Caminho 1355" d="M179.931,197.415c0-.249-.466-.311-.466,0a244.428,244.428,0,0,1-1.243,24.721c-.342,3.822-3.4,24.861-10.022,23.307-1.1-.249-1.663-1.352-1.833-3.014a26.415,26.415,0,0,1,.87-6.464c.73-4.413,1.321-8.841,1.709-13.285a121.613,121.613,0,0,0-.28-24.938.218.218,0,0,0-.42,0,227.546,227.546,0,0,1-2.02,34.417c-.823,5.469-3.589,13.72,2.144,14.575s9.618-12.974,10.333-16.75A125.966,125.966,0,0,0,179.931,197.415Z" transform="translate(-75.46 -29.687)" fill="#37474f"/>
      <path id="Caminho_1356" data-name="Caminho 1356" d="M167.9,228.806a32.847,32.847,0,0,0-1.554,4.366,10.209,10.209,0,0,0-.622,3.589c0,.233.342.249.466.093a12.6,12.6,0,0,0,1.554-3.5c.5-1.352,1.025-2.688,1.554-4.055a.742.742,0,1,0-1.4-.5Z" transform="translate(-74.97 -12.459)" fill="#37474f"/>
      <path id="Caminho_1357" data-name="Caminho 1357" d="M172.129,144.293c-2.284,34.774-.684,70.309,3.776,76.742,6.914,9.991,52.3,31.356,67.575,35.256,5,1.274,16.33-31.977,12.99-36.374s-52.829-23.7-55.3-25.979c-1.321-1.227-8.5-29.817-14.559-49.209C180.986,126.7,172.828,133.727,172.129,144.293Z" transform="translate(-71.993 -64.882)" fill="#ad6359"/>
      <path id="Caminho_1358" data-name="Caminho 1358" d="M227.082,252.523l14.885-41.859s-34.65-15.538-38.752-17.869c-1.74-.963-10.8-36.3-15.538-51.617-3.108-10.069-12.632-15.072-16.222,4.972-2.1,11.731-3.869,68.491,3.7,77.907C181.2,231.563,227.082,252.523,227.082,252.523Z" transform="translate(-72.797 -65.59)" fill="#455a64"/>
      <path id="Caminho_1359" data-name="Caminho 1359" d="M202.192,219.4c.59-3.108,5.159-15.616,6.339-18.646s6.215-15.32,7.5-18.49c0-.171.342-.124.264,0-1.15,3.108-5.314,15.818-6.464,18.91s-5.842,15.538-7.489,18.288a.084.084,0,0,1-.155-.062Z" transform="translate(-54.775 -38.025)" fill="#263238"/>
      <path id="Caminho_1360" data-name="Caminho 1360" d="M212.487,245.621c-13.984-6.806-33.531-16.843-37.291-21.551-7.567-9.432-5.811-66.192-3.7-77.923,1.8-10.131,5.143-13.844,8.39-13.767Z" transform="translate(-72.777 -65.586)" fill="#020100" opacity="0.1"/>
      <path id="Caminho_1361" data-name="Caminho 1361" d="M121.221,232.47c.171.28,94.952,11.84,95.993,11.047.388-.3,2.735-85.008-7.21-107.507-4.1-9.323-20.743-14.2-30.035-4.351C134.552,179.734,121,232.1,121.221,232.47Z" transform="translate(-99.614 -68.984)" fill="#ebebeb"/>
      <rect id="Retângulo_625" data-name="Retângulo 625" width="43.04" height="209.498" transform="translate(50.171 239.974) rotate(-109.53)" fill="#4d6bfe"/>
      <rect id="Retângulo_626" data-name="Retângulo 626" width="43.04" height="209.498" transform="translate(50.171 239.974) rotate(-109.53)" fill="#020100" opacity="0.2"/>
      <g id="Grupo_979" data-name="Grupo 979" transform="translate(46.312 139.449)" opacity="0.1">
        <path id="Caminho_1362" data-name="Caminho 1362" d="M321.074,179.14c-58.764,21.349-124.863,44.8-183.954,65.259C195.884,223.05,261.983,199.6,321.074,179.14Z" transform="translate(-137.12 -179.14)"/>
        <path id="Caminho_1363" data-name="Caminho 1363" d="M322.892,184.331C264.127,205.665,198.044,229.111,139,249.559c58.764-21.349,124.863-44.78,183.954-65.259Z" transform="translate(-136.079 -176.282)"/>
        <path id="Caminho_1364" data-name="Caminho 1364" d="M324.744,189.49c-58.765,21.349-124.863,44.8-183.954,65.259C199.554,233.4,265.668,209.953,324.744,189.49Z" transform="translate(-135.088 -173.408)"/>
        <path id="Caminho_1365" data-name="Caminho 1365" d="M326.564,194.67C267.8,216.019,201.7,239.466,142.61,259.929,201.374,238.58,267.473,215.149,326.564,194.67Z" transform="translate(-134.08 -170.54)"/>
      </g>
      <path id="Caminho_1366" data-name="Caminho 1366" d="M141.242,262.35s-24.193,11.638-32.35-11.358,17.962-29.211,17.962-29.211Z" transform="translate(-107.314 -16.077)" fill="#ff9abb"/>
      <rect id="Retângulo_627" data-name="Retângulo 627" width="50.25" height="12.197" transform="translate(35.235 249.111) rotate(-109.53)" fill="#a6a6a6"/>
      <rect id="Retângulo_628" data-name="Retângulo 628" width="50.25" height="12.197" transform="translate(47.918 244.595) rotate(-109.53)" fill="#a6a6a6"/>
      <path id="Caminho_1367" data-name="Caminho 1367" d="M258.931,172.63l34.6,4.91,11.42,1.554-7.769,8.53-23.758,25.622-7.349-2.02s4.4-5.982,4.459-6.106l-7.349-2.02s4.413-5.982,4.475-6.106l-7.318-1.927s4.382-6.075,4.428-6.215l-7.3-1.927s4.366-6.075,4.428-6.215l-7.318-1.927S258.884,172.754,258.931,172.63Z" transform="translate(-25.759 -43.296)" fill="#4d6bfe"/>
      <path id="Caminho_1368" data-name="Caminho 1368" d="M258.931,172.63l34.6,4.91,11.42,1.554-7.769,8.53-23.758,25.622-7.349-2.02s4.4-5.982,4.459-6.106l-7.349-2.02s4.413-5.982,4.475-6.106l-7.318-1.927s4.382-6.075,4.428-6.215l-7.3-1.927s4.366-6.075,4.428-6.215l-7.318-1.927S258.884,172.754,258.931,172.63Z" transform="translate(-25.759 -43.296)" fill="#fff" opacity="0.8"/>
      <path id="Caminho_1369" data-name="Caminho 1369" d="M279.65,175.79l11.42,1.585-7.847,8.5Z" transform="translate(-11.876 -41.546)" fill="#263238"/>
      <path id="Caminho_1370" data-name="Caminho 1370" d="M171.246,135.365c-21.4,19.034-50.436,54.088-49.131,63.084,3.263,22.514,19.966,50.871,28.714,61.359,5.1,6.122,38.721-19.22,34.448-24.861-6.712-8.934-22.7-37.1-24.519-40.772-.979-1.958,13.86-28.807,21.94-47.2C191.492,126.959,181.688,126.1,171.246,135.365Z" transform="translate(-99.141 -67.08)" fill="#ad6359"/>
      <path id="Caminho_1371" data-name="Caminho 1371" d="M176.646,217.068c-1.212-2.471.078-3.108,4.459-1.01s19.982,14.233,23.758,8.437-18.475-22.561-26.073-25.529-20.79-5.1-20.79-5.1C161.636,197.988,169.591,208.864,176.646,217.068Z" transform="translate(-79.245 -31.533)" fill="#ad6359"/>
      <path id="Caminho_1372" data-name="Caminho 1372" d="M140.43,224.1c10.768,11.249,23.493,25.933,40.4,30.7a8.639,8.639,0,0,0,5.7-.186c7.551,2.284,10.877-.606,10.877-.606,7.676,0,10.69-3.434,10.69-3.434s8.872,2.564,11.327-2.548c2.766-5.718-10.255-8.22-16.579-13.984-14.481-13.176-31.387-35.97-35.178-40.181Z" transform="translate(-88.975 -31.539)" fill="#ad6359"/>
      <path id="Caminho_1373" data-name="Caminho 1373" d="M164.692,217.728A125.421,125.421,0,0,0,178.039,228.6a127.72,127.72,0,0,0,16.7,8.639.155.155,0,1,1-.109.28,66.642,66.642,0,0,1-30.113-19.547C164.335,217.712,164.474,217.542,164.692,217.728Z" transform="translate(-75.682 -18.364)" fill="#263238"/>
      <path id="Caminho_1374" data-name="Caminho 1374" d="M158.778,222.627c4.428,3.449,12.244,9.478,28.73,15.336v.109a59.743,59.743,0,0,1-28.87-15.243C158.343,222.6,158.483,222.394,158.778,222.627Z" transform="translate(-78.982 -15.665)" fill="#263238"/>
      <path id="Caminho_1375" data-name="Caminho 1375" d="M155.642,225.3c7.769,5.594,13.347,8.142,22.654,11.9v.093c-11.016-3.108-14.652-5.563-22.841-11.762C155.145,225.331,155.347,225.083,155.642,225.3Z" transform="translate(-80.74 -14.174)" fill="#263238"/>
      <path id="Caminho_1376" data-name="Caminho 1376" d="M144.169,259.081l42.854-29.351-21.753-34.914c7.474-14.745,21.4-43.895,25.032-54.864,4.273-12.865-3.108-14.435-14.077-5.936-24.861,19.422-56.978,56.884-58.454,64.653C115.657,209.779,144.169,259.081,144.169,259.081Z" transform="translate(-101.586 -67.611)" fill="#455a64"/>
      <path id="Caminho_1377" data-name="Caminho 1377" d="M135.061,214.043c2.3-2.3,13.254-10.084,16-12s13.984-9.214,16.89-11.156c.155-.109.342.078.186.186-2.766,1.973-13.5,10.177-16.237,12.1s-13.813,9.649-16.75,11C135.061,214.245,134.984,214.121,135.061,214.043Z" transform="translate(-91.966 -33.201)" fill="#263238"/>
      <path id="Caminho_1378" data-name="Caminho 1378" d="M165.783,148.479c-4.288,10.6-10.146,21.5-14.963,31.884-.342.746-1.414,3.108-1.554,3.48,4.817,8.546,10.877,17.744,15.926,26.259l5.19,8.624h0l-1.181.746,1.1-.87v.109l-5.7-8.313c-5.407-8.173-11.4-17.092-16.33-25.467-.2-.451-.482-.684-.451-1.305a22.469,22.469,0,0,1,1.554-4.009c4.817-10.1,11.125-21.4,16.361-31.247Z" transform="translate(-84.883 -56.731)" fill="#263238"/>
      <path id="Caminho_1379" data-name="Caminho 1379" d="M160.843,149.77a12.228,12.228,0,0,1-3.543,4.211A45.762,45.762,0,0,1,160.843,149.77Z" transform="translate(-79.632 -55.956)" fill="#263238"/>
      <path id="Caminho_1380" data-name="Caminho 1380" d="M217.529,212.706c2.595-4.661,6.619,1.057,6.619,1.057s-3.791-9.649.746-13.425,9,3.48,9.323,3.978c-.2-.513-3.449-9.478,1.554-12.8s8.546,4.475,8.763,4.988c0-.528-.342-7.769,3.993-9.323,7.458-2.859,10.084,17.558,15.15,21.6l11.7-2.937a16.113,16.113,0,0,0-4.91,7.676c-1.367,4.273-2.253,7.116-4.226,9.105a5.858,5.858,0,0,1-6.883,1.259s1.134,5.563-2.688,8.3c-1.958,1.4-5.951-.5-5.951-.5s.715,4.49-2.828,6.712c-2.828,1.787-6.386-.388-6.386-.388s-1.305,4.661-4.786,5.516C229.726,245.258,211.966,222.7,217.529,212.706Z" transform="translate(-46.866 -35.391)" fill="#ad6359"/>
      <path id="Caminho_1381" data-name="Caminho 1381" d="M248.64,201.69l8.67-2.579h1.026c11.576-.2,21.069,11.187,13.161,13.72-6.013,1.927-14.295-4.894-20.2-2.02h0Z" transform="translate(-29.049 -28.632)" fill="#ad6359"/>
      <path id="Caminho_1382" data-name="Caminho 1382" d="M238.226,228.354s0,.186-.093.124a49.722,49.722,0,0,1-16.89-24.332c-.078-.311.388-.59.544-.264a101.543,101.543,0,0,0,16.439,24.472Z" transform="translate(-44.226 -26.069)" fill="#263238"/>
      <path id="Caminho_1383" data-name="Caminho 1383" d="M244.561,225.788c0,.078,0,.2-.155.124-7.847-6.215-14.947-16.47-16.765-27.658,0-.388.264-.792.373-.357C229.753,205.246,238.221,219.013,244.561,225.788Z" transform="translate(-40.679 -29.407)" fill="#263238"/>
      <path id="Caminho_1384" data-name="Caminho 1384" d="M234.765,192.593c2.16,10.659,7.52,19.562,14.342,27.968.093.109-.078.218-.171.155-4.444-3.108-8.235-8.95-10.877-13.689a28.714,28.714,0,0,1-3.729-14.295C234.392,192.469,234.719,192.376,234.765,192.593Z" transform="translate(-36.974 -32.307)" fill="#263238"/>
      <path id="Caminho_1385" data-name="Caminho 1385" d="M168.675,125.607c-4.661,1.88-4.273,8.033-1.088,15.631s8.157,12.959,13.269,12.555,7.023-7.629,7.489-11.778c.357-3.263-.839-9.851-6.464-13.067S171.332,124.535,168.675,125.607Z" transform="translate(-75.267 -69.549)" fill="#455a64"/>
      <path id="Caminho_1386" data-name="Caminho 1386" d="M179.064,156.576c-5.594-.855-12.073-13.3-12.974-21.007,0-.528,2.439-4.832,5.252-10.208,1.678-3.263,3.481-6.93,4.879-10.41l19.64,14.062a59.635,59.635,0,0,0-7.474,12.43,8.266,8.266,0,0,0-.435,1.476,1.925,1.925,0,0,1,0,.249C187.237,146.1,184.471,157.4,179.064,156.576Z" transform="translate(-74.765 -75.239)" fill="#ad6359"/>
      <path id="Caminho_1387" data-name="Caminho 1387" d="M184.291,142.658v.233a14.714,14.714,0,0,1-2.284-.777c-12.43-5.361-9.23-21.986-8.049-26.554l4.894,3.512,13.409,9.618a59.386,59.386,0,0,0-7.474,12.43A8.067,8.067,0,0,0,184.291,142.658Z" transform="translate(-71.103 -74.901)" fill="#263238"/>
      <path id="Caminho_1388" data-name="Caminho 1388" d="M176.471,102.524c-4.351,7.551-5.438,31.977-.87,38.534,6.619,9.494,20.2,13.363,28.9,4.786,8.484-8.313,9.323-40.181,3.993-46.412C200.6,90.265,182.873,91.384,176.471,102.524Z" transform="translate(-71.131 -87.239)" fill="#ad6359"/>
      <path id="Caminho_1389" data-name="Caminho 1389" d="M188.419,112.44a.127.127,0,0,0-.124.14c0,1.647-.342,3.527-1.865,3.993v.093C188.279,116.511,188.667,114.009,188.419,112.44Z" transform="translate(-63.5 -76.629)" fill="#263238"/>
      <path id="Caminho_1390" data-name="Caminho 1390" d="M187.624,111.3c-2.626-.342-3.108,4.957-.653,5.267S189.846,111.575,187.624,111.3Z" transform="translate(-64.088 -77.271)" fill="#263238"/>
      <path id="Caminho_1391" data-name="Caminho 1391" d="M193.805,112.78s.124,0,.109.155c-.186,1.631-.14,3.543,1.29,4.211v.093C193.4,116.82,193.354,114.287,193.805,112.78Z" transform="translate(-59.548 -76.44)" fill="#263238"/>
      <path id="Caminho_1392" data-name="Caminho 1392" d="M195.377,111.76c2.657,0,2.393,5.345,0,5.314S193.155,111.729,195.377,111.76Z" transform="translate(-59.504 -77.005)" fill="#263238"/>
      <path id="Caminho_1393" data-name="Caminho 1393" d="M185.862,109.809a20.707,20.707,0,0,0,2.16-.326,3.543,3.543,0,0,0,2.144-.73,1.15,1.15,0,0,0,0-1.383,2.828,2.828,0,0,0-2.7-.824,4.118,4.118,0,0,0-2.657,1.29,1.2,1.2,0,0,0,1.057,1.973Z" transform="translate(-64.564 -79.933)" fill="#263238"/>
      <path id="Caminho_1394" data-name="Caminho 1394" d="M197.946,110.374a21.3,21.3,0,0,1-2.051-.73,3.6,3.6,0,0,1-1.958-1.15,1.134,1.134,0,0,1,.171-1.305,2.828,2.828,0,0,1,2.812-.28,4.1,4.1,0,0,1,2.346,1.787,1.2,1.2,0,0,1-1.321,1.678Z" transform="translate(-59.416 -79.83)" fill="#263238"/>
      <path id="Caminho_1395" data-name="Caminho 1395" d="M185.568,121.733c.357.4.715.979,1.305,1.072a4.226,4.226,0,0,0,1.8-.249v.093a2.206,2.206,0,0,1-2.16.7,1.74,1.74,0,0,1-1.165-1.554A.133.133,0,0,1,185.568,121.733Z" transform="translate(-64.098 -71.502)" fill="#263238"/>
      <path id="Caminho_1396" data-name="Caminho 1396" d="M186.9,124.758a5.594,5.594,0,0,0,3.5,2.828,7.163,7.163,0,0,0,2,.264,1.553,1.553,0,0,0,.388,0h.357a.419.419,0,0,0,.373-.342h0v-.171h0v-.155c.155-1.259.2-3.185.2-3.185.435.28,2.7,1.554,2.719.87a85.13,85.13,0,0,0-.653-17.092.155.155,0,0,0-.311,0c-.357,5.267.2,10.566,0,15.88a9.679,9.679,0,0,0-2.564-1.041c-.186,0,0,3.729-.14,4.3a7.769,7.769,0,0,1-5.625-2.3C186.947,124.525,186.807,124.618,186.9,124.758Z" transform="translate(-63.256 -79.298)" fill="#263238"/>
      <path id="Caminho_1397" data-name="Caminho 1397" d="M171.44,120.915c-.249-2.253-1.243-21.38-.218-23.8s3.294-.855,3.356-.979.482-2.206,1.9-2.781a3.6,3.6,0,0,1,2.812.513s.761-2.144,2.237-2.517a2.89,2.89,0,0,1,2.626,1.041,3.729,3.729,0,0,1,2.657-2.269,2.424,2.424,0,0,1,2.5,1.461s.948-2,2.455-2.175,2.517,1.554,2.517,1.554a3.216,3.216,0,0,1,2.875-1.554,2.8,2.8,0,0,1,2.129,2.3,3.822,3.822,0,0,1,3.014-1.461c1.663.218,1.9,2.377,1.9,2.377s.963-1.725,2.5-1.352,1.554,2.61,1.554,2.61,1.4-2.175,2.937-.979c1.818,1.429,1.942,15.538,1.554,21.442,0,0-.653-4.366-2.331-4.428s-2.812,3.558-5.858,2.424-7.085-4.661-11.591-4.475-8.126,4.661-10.752,11.125C179.3,126.276,172.03,126.245,171.44,120.915Z" transform="translate(-72.174 -89.392)" fill="#263238"/>
      <path id="Caminho_1398" data-name="Caminho 1398" d="M186.752,122.2a6.93,6.93,0,1,1,8.437-6.961h0a6.961,6.961,0,0,1-8.437,6.961Zm2.828-12.632a6.743,6.743,0,0,0-1.554-.14,6,6,0,1,0,1.554.14Z" transform="translate(-66.324 -78.807)" fill="#4d6bfe"/>
      <path id="Caminho_1399" data-name="Caminho 1399" d="M196.43,123.223c-2.579-.59-4.335-3.76-3.962-7.365a8.251,8.251,0,0,1,1.958-4.661,4.661,4.661,0,0,1,3.9-1.694,4.568,4.568,0,0,1,3.449,2.455,8.282,8.282,0,0,1,.963,4.972c-.4,3.807-3.03,6.65-5.858,6.355Zm2.144-12.741h-.342a3.7,3.7,0,0,0-3.108,1.4,7.194,7.194,0,0,0-1.725,4.133c-.357,3.294,1.259,6.215,3.574,6.417s4.49-2.237,4.848-5.531a7.535,7.535,0,0,0-.839-4.413,3.822,3.822,0,0,0-2.408-2Z" transform="translate(-60.184 -78.26)" fill="#4d6bfe"/>
      <path id="Caminho_1400" data-name="Caminho 1400" d="M190.233,113.938l-.513-.777c1.134-.761,3.667-1.694,5.174.28l-.746.559C192.812,112.228,190.342,113.86,190.233,113.938Z" transform="translate(-61.678 -76.728)" fill="#4d6bfe"/>
      <path id="Caminho_1401" data-name="Caminho 1401" d="M170.431,113.906l-.761-.513c.233-.357,2.377-3.527,4.459-3.651s14.186,2.331,14.714,2.439l-.186.917c-3.512-.715-12.959-2.517-14.466-2.424S171.006,113.036,170.431,113.906Z" transform="translate(-72.782 -78.126)" fill="#4d6bfe"/>
      <path id="Caminho_1402" data-name="Caminho 1402" d="M179,115s-3.745-8.717-7.6-7.551-2.144,13.052,1.554,15.414a4.2,4.2,0,0,0,5.982-1.072Z" transform="translate(-73.034 -79.452)" fill="#ad6359"/>
      <path id="Caminho_1403" data-name="Caminho 1403" d="M171.015,109.6s-.093,0,0,.093c2.61,1.756,3.558,4.661,4.04,7.66a2.315,2.315,0,0,0-3.279-1.336c-.093,0,0,.171,0,.171a2.579,2.579,0,0,1,2.61,1.461,12.151,12.151,0,0,1,.855,2.533c.093.3.575.249.544,0V120.1C176.577,116.437,174.822,110.765,171.015,109.6Z" transform="translate(-72.06 -78.201)" fill="#263238"/>
    </g>
  </g>
</svg>
